<svg width="19" height="11" viewBox="0 0 19 11" fill="none" xmlns="http://www.w3.org/2000/svg">
<path d="M11.1528 5.11073C11.1528 5.49807 11.0379 5.8767 10.8228 6.19876C10.6076 6.52081 10.3017 6.77182 9.94386 6.92005C9.58601 7.06828 9.19224 7.10706 8.81235 7.03149C8.43246 6.95593 8.08351 6.76941 7.80963 6.49552C7.53574 6.22164 7.34922 5.87269 7.27366 5.4928C7.19809 5.11291 7.23687 4.71914 7.3851 4.36129C7.53333 4.00344 7.78434 3.69758 8.10639 3.48239C8.42845 3.2672 8.80708 3.15234 9.19442 3.15234C9.71381 3.15234 10.2119 3.35867 10.5792 3.72594C10.9465 4.09321 11.1528 4.59134 11.1528 5.11073ZM3.59902 3.15234C3.21168 3.15234 2.83305 3.2672 2.51099 3.48239C2.18894 3.69758 1.93793 4.00344 1.7897 4.36129C1.64147 4.71914 1.60269 5.11291 1.67826 5.4928C1.75382 5.87269 1.94034 6.22164 2.21423 6.49552C2.48811 6.76941 2.83706 6.95593 3.21695 7.03149C3.59684 7.10706 3.99061 7.06828 4.34846 6.92005C4.70631 6.77182 5.01217 6.52081 5.22736 6.19876C5.44255 5.8767 5.55741 5.49807 5.55741 5.11073C5.55741 4.59134 5.35108 4.09321 4.98381 3.72594C4.61654 3.35867 4.11841 3.15234 3.59902 3.15234ZM14.7898 3.15234C14.4025 3.15234 14.0238 3.2672 13.7018 3.48239C13.3797 3.69758 13.1287 4.00344 12.9805 4.36129C12.8323 4.71914 12.7935 5.11291 12.8691 5.4928C12.9446 5.87269 13.1311 6.22164 13.405 6.49552C13.6789 6.76941 14.0279 6.95593 14.4078 7.03149C14.7876 7.10706 15.1814 7.06828 15.5393 6.92005C15.8971 6.77182 16.203 6.52081 16.4182 6.19876C16.6333 5.8767 16.7482 5.49807 16.7482 5.11073C16.7482 4.85355 16.6975 4.59889 16.5991 4.36129C16.5007 4.12369 16.3565 3.9078 16.1746 3.72594C15.9928 3.54409 15.7769 3.39984 15.5393 3.30142C15.3017 3.203 15.047 3.15234 14.7898 3.15234Z" fill="#B3B7BB"/>
</svg>
