<svg width="817" height="48" viewBox="0 0 817 48" fill="none" xmlns="http://www.w3.org/2000/svg">
<rect width="135" height="2" fill="#E0E0E0"/>
<path d="M27.9395 30V21.136L26.0995 21.568V20L28.8035 18.8H30.0675V30H27.9395ZM33.0711 30.112C32.6978 30.112 32.3884 29.9947 32.1431 29.76C31.9084 29.5253 31.7911 29.2427 31.7911 28.912C31.7911 28.5707 31.9084 28.2827 32.1431 28.048C32.3884 27.8133 32.6978 27.696 33.0711 27.696C33.4444 27.696 33.7484 27.8133 33.9831 28.048C34.2284 28.2827 34.3511 28.5707 34.3511 28.912C34.3511 29.2427 34.2284 29.5253 33.9831 29.76C33.7484 29.9947 33.4444 30.112 33.0711 30.112ZM41.4161 30V18.8H45.9121C47.0748 18.8 47.9601 19.072 48.5681 19.616C49.1868 20.1493 49.4961 20.8373 49.4961 21.68C49.4961 22.384 49.3041 22.9493 48.9201 23.376C48.5468 23.792 48.0881 24.0747 47.5441 24.224C48.1841 24.352 48.7121 24.672 49.1281 25.184C49.5441 25.6853 49.7521 26.272 49.7521 26.944C49.7521 27.8293 49.4321 28.56 48.7921 29.136C48.1521 29.712 47.2455 30 46.0721 30H41.4161ZM43.4641 23.504H45.6081C46.1841 23.504 46.6268 23.3707 46.9361 23.104C47.2455 22.8373 47.4001 22.4587 47.4001 21.968C47.4001 21.4987 47.2455 21.1307 46.9361 20.864C46.6375 20.5867 46.1841 20.448 45.5761 20.448H43.4641V23.504ZM43.4641 28.336H45.7521C46.3601 28.336 46.8295 28.1973 47.1601 27.92C47.5015 27.632 47.6721 27.232 47.6721 26.72C47.6721 26.1973 47.4961 25.7867 47.1441 25.488C46.7921 25.1893 46.3175 25.04 45.7201 25.04H43.4641V28.336ZM54.1979 30.192C53.5152 30.192 52.9552 30.0853 52.5179 29.872C52.0805 29.648 51.7552 29.3547 51.5419 28.992C51.3285 28.6293 51.2219 28.2293 51.2219 27.792C51.2219 27.056 51.5099 26.4587 52.0859 26C52.6619 25.5413 53.5259 25.312 54.6779 25.312H56.6939V25.12C56.6939 24.576 56.5392 24.176 56.2299 23.92C55.9205 23.664 55.5365 23.536 55.0779 23.536C54.6619 23.536 54.2992 23.6373 53.9899 23.84C53.6805 24.032 53.4885 24.32 53.4139 24.704H51.4139C51.4672 24.128 51.6592 23.6267 51.9899 23.2C52.3312 22.7733 52.7685 22.448 53.3019 22.224C53.8352 21.9893 54.4325 21.872 55.0939 21.872C56.2245 21.872 57.1152 22.1547 57.7659 22.72C58.4165 23.2853 58.7419 24.0853 58.7419 25.12V30H56.9979L56.8059 28.72C56.5712 29.1467 56.2405 29.4987 55.8139 29.776C55.3979 30.0533 54.8592 30.192 54.1979 30.192ZM54.6619 28.592C55.2485 28.592 55.7019 28.4 56.0219 28.016C56.3525 27.632 56.5605 27.1573 56.6459 26.592H54.9019C54.3579 26.592 53.9685 26.6933 53.7339 26.896C53.4992 27.088 53.3819 27.328 53.3819 27.616C53.3819 27.9253 53.4992 28.1653 53.7339 28.336C53.9685 28.5067 54.2779 28.592 54.6619 28.592ZM63.9763 30.192C63.2723 30.192 62.6536 30.08 62.1203 29.856C61.5869 29.6213 61.1603 29.3013 60.8403 28.896C60.5203 28.4907 60.3283 28.0213 60.2643 27.488H62.3283C62.3923 27.7973 62.5629 28.064 62.8403 28.288C63.1283 28.5013 63.4963 28.608 63.9443 28.608C64.3923 28.608 64.7176 28.5173 64.9203 28.336C65.1336 28.1547 65.2403 27.9467 65.2403 27.712C65.2403 27.3707 65.0909 27.1413 64.7923 27.024C64.4936 26.896 64.0776 26.7733 63.5443 26.656C63.2029 26.5813 62.8563 26.4907 62.5043 26.384C62.1523 26.2773 61.8269 26.144 61.5283 25.984C61.2403 25.8133 61.0056 25.6 60.8243 25.344C60.6429 25.0773 60.5523 24.752 60.5523 24.368C60.5523 23.664 60.8296 23.072 61.3843 22.592C61.9496 22.112 62.7389 21.872 63.7523 21.872C64.6909 21.872 65.4376 22.0907 65.9923 22.528C66.5576 22.9653 66.8936 23.568 67.0003 24.336H65.0643C64.9469 23.7493 64.5043 23.456 63.7363 23.456C63.3523 23.456 63.0536 23.5307 62.8403 23.68C62.6376 23.8293 62.5363 24.016 62.5363 24.24C62.5363 24.4747 62.6909 24.6613 63.0003 24.8C63.3096 24.9387 63.7203 25.0667 64.2323 25.184C64.7869 25.312 65.2936 25.456 65.7523 25.616C66.2216 25.7653 66.5949 25.9947 66.8723 26.304C67.1496 26.6027 67.2883 27.0347 67.2883 27.6C67.2989 28.0907 67.1709 28.5333 66.9043 28.928C66.6376 29.3227 66.2536 29.632 65.7523 29.856C65.2509 30.08 64.6589 30.192 63.9763 30.192ZM70.2065 20.832C69.8332 20.832 69.5238 20.72 69.2785 20.496C69.0438 20.272 68.9265 19.9893 68.9265 19.648C68.9265 19.3067 69.0438 19.0293 69.2785 18.816C69.5238 18.592 69.8332 18.48 70.2065 18.48C70.5798 18.48 70.8838 18.592 71.1185 18.816C71.3638 19.0293 71.4865 19.3067 71.4865 19.648C71.4865 19.9893 71.3638 20.272 71.1185 20.496C70.8838 20.72 70.5798 20.832 70.2065 20.832ZM69.1825 30V22.064H71.2305V30H69.1825ZM77.2561 30.192C76.4455 30.192 75.7308 30.016 75.1121 29.664C74.4935 29.312 74.0028 28.8213 73.6401 28.192C73.2881 27.5627 73.1121 26.8427 73.1121 26.032C73.1121 25.2213 73.2881 24.5013 73.6401 23.872C74.0028 23.2427 74.4935 22.752 75.1121 22.4C75.7308 22.048 76.4455 21.872 77.2561 21.872C78.2695 21.872 79.1228 22.1387 79.8161 22.672C80.5095 23.1947 80.9521 23.92 81.1441 24.848H78.9841C78.8775 24.464 78.6641 24.1653 78.3441 23.952C78.0348 23.728 77.6668 23.616 77.2401 23.616C76.6748 23.616 76.1948 23.8293 75.8001 24.256C75.4055 24.6827 75.2081 25.2747 75.2081 26.032C75.2081 26.7893 75.4055 27.3813 75.8001 27.808C76.1948 28.2347 76.6748 28.448 77.2401 28.448C77.6668 28.448 78.0348 28.3413 78.3441 28.128C78.6641 27.9147 78.8775 27.6107 78.9841 27.216H81.1441C80.9521 28.112 80.5095 28.832 79.8161 29.376C79.1228 29.92 78.2695 30.192 77.2561 30.192ZM86.8224 30V18.8H88.8704V30H86.8224ZM90.9931 30V22.064H92.8011L92.9611 23.408C93.2065 22.9387 93.5585 22.5653 94.0171 22.288C94.4865 22.0107 95.0358 21.872 95.6651 21.872C96.6465 21.872 97.4091 22.1813 97.9531 22.8C98.4971 23.4187 98.7691 24.3253 98.7691 25.52V30H96.7211V25.712C96.7211 25.0293 96.5825 24.5067 96.3051 24.144C96.0278 23.7813 95.5958 23.6 95.0091 23.6C94.4331 23.6 93.9585 23.8027 93.5851 24.208C93.2225 24.6133 93.0411 25.1787 93.0411 25.904V30H90.9931ZM101.096 30V23.776H100.008V22.064H101.096V21.136C101.096 20.176 101.336 19.4933 101.816 19.088C102.306 18.6827 102.968 18.48 103.799 18.48H104.68V20.224H104.12C103.768 20.224 103.517 20.2933 103.368 20.432C103.218 20.5707 103.144 20.8053 103.144 21.136V22.064H104.856V23.776H103.144V30H101.096ZM109.973 30.192C109.205 30.192 108.512 30.016 107.893 29.664C107.285 29.312 106.8 28.8267 106.437 28.208C106.085 27.5787 105.909 26.8533 105.909 26.032C105.909 25.2107 106.09 24.4907 106.453 23.872C106.816 23.2427 107.301 22.752 107.909 22.4C108.528 22.048 109.221 21.872 109.989 21.872C110.746 21.872 111.429 22.048 112.037 22.4C112.656 22.752 113.141 23.2427 113.493 23.872C113.856 24.4907 114.037 25.2107 114.037 26.032C114.037 26.8533 113.856 27.5787 113.493 28.208C113.141 28.8267 112.656 29.312 112.037 29.664C111.418 30.016 110.73 30.192 109.973 30.192ZM109.973 28.416C110.506 28.416 110.97 28.2187 111.365 27.824C111.76 27.4187 111.957 26.8213 111.957 26.032C111.957 25.2427 111.76 24.6507 111.365 24.256C110.97 23.8507 110.512 23.648 109.989 23.648C109.445 23.648 108.976 23.8507 108.581 24.256C108.197 24.6507 108.005 25.2427 108.005 26.032C108.005 26.8213 108.197 27.4187 108.581 27.824C108.976 28.2187 109.44 28.416 109.973 28.416ZM116.748 30.112C116.375 30.112 116.065 29.9947 115.82 29.76C115.585 29.5253 115.468 29.2427 115.468 28.912C115.468 28.5707 115.585 28.2827 115.82 28.048C116.065 27.8133 116.375 27.696 116.748 27.696C117.121 27.696 117.425 27.8133 117.66 28.048C117.905 28.2827 118.028 28.5707 118.028 28.912C118.028 29.2427 117.905 29.5253 117.66 29.76C117.425 29.9947 117.121 30.112 116.748 30.112Z" fill="#8E8EA9"/>
<rect x="145" width="110" height="2" fill="#E0E0E0"/>
<path d="M167.983 30V28.512C168.665 27.9467 169.327 27.3867 169.967 26.832C170.617 26.2773 171.193 25.728 171.695 25.184C172.207 24.64 172.612 24.112 172.911 23.6C173.22 23.0773 173.375 22.5707 173.375 22.08C173.375 21.6213 173.247 21.216 172.991 20.864C172.745 20.512 172.335 20.336 171.759 20.336C171.172 20.336 170.729 20.528 170.431 20.912C170.132 21.296 169.983 21.76 169.983 22.304H167.999C168.02 21.4827 168.201 20.8 168.543 20.256C168.884 19.7013 169.337 19.2907 169.903 19.024C170.468 18.7467 171.103 18.608 171.807 18.608C172.948 18.608 173.833 18.9227 174.463 19.552C175.103 20.1707 175.423 20.976 175.423 21.968C175.423 22.5867 175.279 23.1893 174.991 23.776C174.713 24.3627 174.345 24.928 173.887 25.472C173.428 26.016 172.932 26.528 172.399 27.008C171.865 27.4773 171.348 27.9147 170.847 28.32H175.695V30H167.983ZM178.227 30.112C177.854 30.112 177.545 29.9947 177.299 29.76C177.065 29.5253 176.947 29.2427 176.947 28.912C176.947 28.5707 177.065 28.2827 177.299 28.048C177.545 27.8133 177.854 27.696 178.227 27.696C178.601 27.696 178.905 27.8133 179.139 28.048C179.385 28.2827 179.507 28.5707 179.507 28.912C179.507 29.2427 179.385 29.5253 179.139 29.76C178.905 29.9947 178.601 30.112 178.227 30.112ZM186.572 30V18.8H190.716C191.612 18.8 192.354 18.9493 192.94 19.248C193.527 19.5467 193.964 19.9573 194.252 20.48C194.54 21.0027 194.684 21.5893 194.684 22.24C194.684 22.8587 194.546 23.4293 194.268 23.952C193.991 24.464 193.559 24.88 192.972 25.2C192.386 25.5093 191.634 25.664 190.716 25.664H188.62V30H186.572ZM188.62 24H190.588C191.303 24 191.815 23.8453 192.124 23.536C192.444 23.216 192.604 22.784 192.604 22.24C192.604 21.6853 192.444 21.2533 192.124 20.944C191.815 20.624 191.303 20.464 190.588 20.464H188.62V24ZM196.243 30V22.064H198.067L198.259 23.552C198.547 23.04 198.936 22.6347 199.427 22.336C199.928 22.0267 200.515 21.872 201.187 21.872V24.032H200.611C200.163 24.032 199.763 24.1013 199.411 24.24C199.059 24.3787 198.782 24.6187 198.579 24.96C198.387 25.3013 198.291 25.776 198.291 26.384V30H196.243ZM203.691 20.832C203.318 20.832 203.008 20.72 202.763 20.496C202.528 20.272 202.411 19.9893 202.411 19.648C202.411 19.3067 202.528 19.0293 202.763 18.816C203.008 18.592 203.318 18.48 203.691 18.48C204.064 18.48 204.368 18.592 204.603 18.816C204.848 19.0293 204.971 19.3067 204.971 19.648C204.971 19.9893 204.848 20.272 204.603 20.496C204.368 20.72 204.064 20.832 203.691 20.832ZM202.667 30V22.064H204.715V30H202.667ZM210.741 30.192C209.93 30.192 209.215 30.016 208.597 29.664C207.978 29.312 207.487 28.8213 207.125 28.192C206.773 27.5627 206.597 26.8427 206.597 26.032C206.597 25.2213 206.773 24.5013 207.125 23.872C207.487 23.2427 207.978 22.752 208.597 22.4C209.215 22.048 209.93 21.872 210.741 21.872C211.754 21.872 212.607 22.1387 213.301 22.672C213.994 23.1947 214.437 23.92 214.628 24.848H212.469C212.362 24.464 212.149 24.1653 211.829 23.952C211.519 23.728 211.151 23.616 210.725 23.616C210.159 23.616 209.679 23.8293 209.285 24.256C208.89 24.6827 208.693 25.2747 208.693 26.032C208.693 26.7893 208.89 27.3813 209.285 27.808C209.679 28.2347 210.159 28.448 210.725 28.448C211.151 28.448 211.519 28.3413 211.829 28.128C212.149 27.9147 212.362 27.6107 212.469 27.216H214.628C214.437 28.112 213.994 28.832 213.301 29.376C212.607 29.92 211.754 30.192 210.741 30.192ZM217.55 20.832C217.177 20.832 216.868 20.72 216.622 20.496C216.388 20.272 216.27 19.9893 216.27 19.648C216.27 19.3067 216.388 19.0293 216.622 18.816C216.868 18.592 217.177 18.48 217.55 18.48C217.924 18.48 218.228 18.592 218.462 18.816C218.708 19.0293 218.83 19.3067 218.83 19.648C218.83 19.9893 218.708 20.272 218.462 20.496C218.228 20.72 217.924 20.832 217.55 20.832ZM216.526 30V22.064H218.574V30H216.526ZM220.712 30V22.064H222.52L222.68 23.408C222.925 22.9387 223.277 22.5653 223.736 22.288C224.205 22.0107 224.755 21.872 225.384 21.872C226.365 21.872 227.128 22.1813 227.672 22.8C228.216 23.4187 228.488 24.3253 228.488 25.52V30H226.44V25.712C226.44 25.0293 226.301 24.5067 226.024 24.144C225.747 23.7813 225.315 23.6 224.728 23.6C224.152 23.6 223.677 23.8027 223.304 24.208C222.941 24.6133 222.76 25.1787 222.76 25.904V30H220.712ZM233.806 27.632C233.422 27.632 233.065 27.5893 232.734 27.504L232.142 28.096C232.324 28.192 232.569 28.272 232.878 28.336C233.188 28.4 233.689 28.464 234.382 28.528C235.438 28.624 236.206 28.8747 236.686 29.28C237.166 29.6853 237.406 30.2453 237.406 30.96C237.406 31.4293 237.278 31.872 237.022 32.288C236.766 32.7147 236.372 33.056 235.838 33.312C235.305 33.5787 234.622 33.712 233.79 33.712C232.66 33.712 231.748 33.4987 231.054 33.072C230.361 32.656 230.014 32.0267 230.014 31.184C230.014 30.4693 230.361 29.8507 231.054 29.328C230.841 29.232 230.654 29.1307 230.494 29.024C230.345 28.9173 230.212 28.8053 230.094 28.688V28.32L231.486 26.848C230.868 26.304 230.558 25.6053 230.558 24.752C230.558 24.2187 230.686 23.7333 230.942 23.296C231.209 22.8587 231.582 22.512 232.062 22.256C232.542 22 233.124 21.872 233.806 21.872C234.254 21.872 234.67 21.936 235.054 22.064H238.062V23.312L236.702 23.408C236.916 23.8133 237.022 24.2613 237.022 24.752C237.022 25.2853 236.894 25.7707 236.638 26.208C236.382 26.6453 236.009 26.992 235.518 27.248C235.038 27.504 234.468 27.632 233.806 27.632ZM233.806 26.064C234.222 26.064 234.564 25.952 234.83 25.728C235.108 25.504 235.246 25.184 235.246 24.768C235.246 24.352 235.108 24.032 234.83 23.808C234.564 23.584 234.222 23.472 233.806 23.472C233.369 23.472 233.017 23.584 232.75 23.808C232.484 24.032 232.35 24.352 232.35 24.768C232.35 25.184 232.484 25.504 232.75 25.728C233.017 25.952 233.369 26.064 233.806 26.064ZM231.886 30.976C231.886 31.3707 232.068 31.664 232.43 31.856C232.804 32.0587 233.257 32.16 233.79 32.16C234.302 32.16 234.718 32.0533 235.038 31.84C235.358 31.6373 235.518 31.36 235.518 31.008C235.518 30.72 235.412 30.48 235.198 30.288C234.996 30.096 234.585 29.9787 233.966 29.936C233.529 29.904 233.124 29.856 232.75 29.792C232.441 29.9627 232.217 30.1493 232.078 30.352C231.95 30.5547 231.886 30.7627 231.886 30.976Z" fill="#8E8EA9"/>
<rect x="265" width="130" height="2" fill="#E0E0E0"/>
<path d="M291.169 30.192C290.433 30.192 289.766 30.064 289.169 29.808C288.571 29.5413 288.091 29.136 287.729 28.592C287.366 28.048 287.174 27.3653 287.153 26.544H289.169C289.179 27.088 289.355 27.5467 289.697 27.92C290.049 28.2827 290.539 28.464 291.169 28.464C291.766 28.464 292.225 28.2987 292.545 27.968C292.865 27.6373 293.025 27.2213 293.025 26.72C293.025 26.1333 292.811 25.6907 292.385 25.392C291.969 25.0827 291.43 24.928 290.769 24.928H289.937V23.248H290.785C291.329 23.248 291.782 23.12 292.145 22.864C292.507 22.608 292.689 22.2293 292.689 21.728C292.689 21.312 292.55 20.9813 292.273 20.736C292.006 20.48 291.633 20.352 291.153 20.352C290.63 20.352 290.219 20.5067 289.921 20.816C289.633 21.1253 289.473 21.504 289.441 21.952H287.441C287.483 20.9173 287.841 20.1013 288.513 19.504C289.195 18.9067 290.075 18.608 291.153 18.608C291.921 18.608 292.566 18.7467 293.089 19.024C293.622 19.2907 294.022 19.648 294.289 20.096C294.566 20.544 294.705 21.04 294.705 21.584C294.705 22.2133 294.529 22.7467 294.177 23.184C293.835 23.6107 293.409 23.8987 292.897 24.048C293.526 24.176 294.038 24.4853 294.433 24.976C294.827 25.456 295.025 26.064 295.025 26.8C295.025 27.4187 294.875 27.984 294.577 28.496C294.278 29.008 293.841 29.4187 293.265 29.728C292.699 30.0373 292.001 30.192 291.169 30.192ZM297.868 30.112C297.495 30.112 297.185 29.9947 296.94 29.76C296.705 29.5253 296.588 29.2427 296.588 28.912C296.588 28.5707 296.705 28.2827 296.94 28.048C297.185 27.8133 297.495 27.696 297.868 27.696C298.241 27.696 298.545 27.8133 298.78 28.048C299.025 28.2827 299.148 28.5707 299.148 28.912C299.148 29.2427 299.025 29.5253 298.78 29.76C298.545 29.9947 298.241 30.112 297.868 30.112ZM306.213 30V18.8H308.261V30H306.213ZM310.384 30V22.064H312.192L312.352 23.408C312.597 22.9387 312.949 22.5653 313.408 22.288C313.877 22.0107 314.426 21.872 315.056 21.872C316.037 21.872 316.8 22.1813 317.344 22.8C317.888 23.4187 318.16 24.3253 318.16 25.52V30H316.112V25.712C316.112 25.0293 315.973 24.5067 315.696 24.144C315.418 23.7813 314.986 23.6 314.4 23.6C313.824 23.6 313.349 23.8027 312.976 24.208C312.613 24.6133 312.432 25.1787 312.432 25.904V30H310.384ZM322.184 30L319.272 22.064H321.416L323.432 28.064L325.448 22.064H327.592L324.664 30H322.184ZM332.349 30.192C331.549 30.192 330.84 30.0213 330.221 29.68C329.602 29.3387 329.117 28.8587 328.765 28.24C328.413 27.6213 328.237 26.9067 328.237 26.096C328.237 25.2747 328.408 24.544 328.749 23.904C329.101 23.264 329.581 22.768 330.189 22.416C330.808 22.0533 331.533 21.872 332.365 21.872C333.144 21.872 333.832 22.0427 334.429 22.384C335.026 22.7253 335.49 23.1947 335.821 23.792C336.162 24.3787 336.333 25.0347 336.333 25.76C336.333 25.8773 336.328 26 336.317 26.128C336.317 26.256 336.312 26.3893 336.301 26.528H330.269C330.312 27.1467 330.525 27.632 330.909 27.984C331.304 28.336 331.778 28.512 332.333 28.512C332.749 28.512 333.096 28.4213 333.373 28.24C333.661 28.048 333.874 27.8027 334.013 27.504H336.093C335.944 28.0053 335.693 28.464 335.341 28.88C335 29.2853 334.573 29.6053 334.061 29.84C333.56 30.0747 332.989 30.192 332.349 30.192ZM332.365 23.536C331.864 23.536 331.421 23.68 331.037 23.968C330.653 24.2453 330.408 24.672 330.301 25.248H334.253C334.221 24.7253 334.029 24.3093 333.677 24C333.325 23.6907 332.888 23.536 332.365 23.536ZM338.056 30V22.064H339.864L340.024 23.408C340.269 22.9387 340.621 22.5653 341.08 22.288C341.549 22.0107 342.098 21.872 342.728 21.872C343.709 21.872 344.472 22.1813 345.016 22.8C345.56 23.4187 345.832 24.3253 345.832 25.52V30H343.784V25.712C343.784 25.0293 343.645 24.5067 343.368 24.144C343.09 23.7813 342.658 23.6 342.072 23.6C341.496 23.6 341.021 23.8027 340.648 24.208C340.285 24.6133 340.104 25.1787 340.104 25.904V30H338.056ZM351.326 30C350.494 30 349.827 29.7973 349.326 29.392C348.825 28.9867 348.574 28.2667 348.574 27.232V23.776H347.214V22.064H348.574L348.814 19.936H350.622V22.064H352.766V23.776H350.622V27.248C350.622 27.632 350.702 27.8987 350.862 28.048C351.033 28.1867 351.321 28.256 351.726 28.256H352.718V30H351.326ZM358.129 30.192C357.361 30.192 356.668 30.016 356.049 29.664C355.441 29.312 354.956 28.8267 354.593 28.208C354.241 27.5787 354.065 26.8533 354.065 26.032C354.065 25.2107 354.247 24.4907 354.609 23.872C354.972 23.2427 355.457 22.752 356.065 22.4C356.684 22.048 357.377 21.872 358.145 21.872C358.903 21.872 359.585 22.048 360.193 22.4C360.812 22.752 361.297 23.2427 361.649 23.872C362.012 24.4907 362.193 25.2107 362.193 26.032C362.193 26.8533 362.012 27.5787 361.649 28.208C361.297 28.8267 360.812 29.312 360.193 29.664C359.575 30.016 358.887 30.192 358.129 30.192ZM358.129 28.416C358.663 28.416 359.127 28.2187 359.521 27.824C359.916 27.4187 360.113 26.8213 360.113 26.032C360.113 25.2427 359.916 24.6507 359.521 24.256C359.127 23.8507 358.668 23.648 358.145 23.648C357.601 23.648 357.132 23.8507 356.737 24.256C356.353 24.6507 356.161 25.2427 356.161 26.032C356.161 26.8213 356.353 27.4187 356.737 27.824C357.132 28.2187 357.596 28.416 358.129 28.416ZM364.024 30V22.064H365.848L366.04 23.552C366.328 23.04 366.718 22.6347 367.208 22.336C367.71 22.0267 368.296 21.872 368.968 21.872V24.032H368.392C367.944 24.032 367.544 24.1013 367.192 24.24C366.84 24.3787 366.563 24.6187 366.36 24.96C366.168 25.3013 366.072 25.776 366.072 26.384V30H364.024ZM371.36 33.52L373.2 29.472H372.72L369.632 22.064H371.856L374.08 27.648L376.4 22.064H378.576L373.536 33.52H371.36Z" fill="#8E8EA9"/>
<rect x="405" width="134" height="2" fill="#FF1818"/>
<path d="M431.804 30V27.92H426.284V26.288L431.532 18.8H433.852V26.144H435.324V27.92H433.852V30H431.804ZM428.476 26.144H431.932V21.056L428.476 26.144ZM437.766 30.112C437.393 30.112 437.084 29.9947 436.838 29.76C436.604 29.5253 436.486 29.2427 436.486 28.912C436.486 28.5707 436.604 28.2827 436.838 28.048C437.084 27.8133 437.393 27.696 437.766 27.696C438.14 27.696 438.444 27.8133 438.678 28.048C438.924 28.2827 439.046 28.5707 439.046 28.912C439.046 29.2427 438.924 29.5253 438.678 29.76C438.444 29.9947 438.14 30.112 437.766 30.112ZM446.111 30V18.8H449.935C451.247 18.8 452.325 19.0347 453.167 19.504C454.021 19.9627 454.65 20.6133 455.055 21.456C455.471 22.288 455.679 23.2693 455.679 24.4C455.679 25.5307 455.471 26.5173 455.055 27.36C454.65 28.192 454.021 28.8427 453.167 29.312C452.325 29.7707 451.247 30 449.935 30H446.111ZM448.159 28.24H449.839C450.778 28.24 451.519 28.0907 452.063 27.792C452.607 27.4827 452.997 27.0453 453.231 26.48C453.466 25.904 453.583 25.2107 453.583 24.4C453.583 23.6 453.466 22.912 453.231 22.336C452.997 21.76 452.607 21.3173 452.063 21.008C451.519 20.6987 450.778 20.544 449.839 20.544H448.159V28.24ZM458.542 20.832C458.169 20.832 457.86 20.72 457.614 20.496C457.38 20.272 457.262 19.9893 457.262 19.648C457.262 19.3067 457.38 19.0293 457.614 18.816C457.86 18.592 458.169 18.48 458.542 18.48C458.916 18.48 459.22 18.592 459.454 18.816C459.7 19.0293 459.822 19.3067 459.822 19.648C459.822 19.9893 459.7 20.272 459.454 20.496C459.22 20.72 458.916 20.832 458.542 20.832ZM457.518 30V22.064H459.566V30H457.518ZM464.984 30.192C464.28 30.192 463.661 30.08 463.128 29.856C462.595 29.6213 462.168 29.3013 461.848 28.896C461.528 28.4907 461.336 28.0213 461.272 27.488H463.336C463.4 27.7973 463.571 28.064 463.848 28.288C464.136 28.5013 464.504 28.608 464.952 28.608C465.4 28.608 465.725 28.5173 465.928 28.336C466.141 28.1547 466.248 27.9467 466.248 27.712C466.248 27.3707 466.099 27.1413 465.8 27.024C465.501 26.896 465.085 26.7733 464.552 26.656C464.211 26.5813 463.864 26.4907 463.512 26.384C463.16 26.2773 462.835 26.144 462.536 25.984C462.248 25.8133 462.013 25.6 461.832 25.344C461.651 25.0773 461.56 24.752 461.56 24.368C461.56 23.664 461.837 23.072 462.392 22.592C462.957 22.112 463.747 21.872 464.76 21.872C465.699 21.872 466.445 22.0907 467 22.528C467.565 22.9653 467.901 23.568 468.008 24.336H466.072C465.955 23.7493 465.512 23.456 464.744 23.456C464.36 23.456 464.061 23.5307 463.848 23.68C463.645 23.8293 463.544 24.016 463.544 24.24C463.544 24.4747 463.699 24.6613 464.008 24.8C464.317 24.9387 464.728 25.0667 465.24 25.184C465.795 25.312 466.301 25.456 466.76 25.616C467.229 25.7653 467.603 25.9947 467.88 26.304C468.157 26.6027 468.296 27.0347 468.296 27.6C468.307 28.0907 468.179 28.5333 467.912 28.928C467.645 29.3227 467.261 29.632 466.76 29.856C466.259 30.08 465.667 30.192 464.984 30.192ZM473.998 30.192C473.188 30.192 472.473 30.016 471.854 29.664C471.236 29.312 470.745 28.8213 470.382 28.192C470.03 27.5627 469.854 26.8427 469.854 26.032C469.854 25.2213 470.03 24.5013 470.382 23.872C470.745 23.2427 471.236 22.752 471.854 22.4C472.473 22.048 473.188 21.872 473.998 21.872C475.012 21.872 475.865 22.1387 476.558 22.672C477.252 23.1947 477.694 23.92 477.886 24.848H475.726C475.62 24.464 475.406 24.1653 475.086 23.952C474.777 23.728 474.409 23.616 473.982 23.616C473.417 23.616 472.937 23.8293 472.542 24.256C472.148 24.6827 471.95 25.2747 471.95 26.032C471.95 26.7893 472.148 27.3813 472.542 27.808C472.937 28.2347 473.417 28.448 473.982 28.448C474.409 28.448 474.777 28.3413 475.086 28.128C475.406 27.9147 475.62 27.6107 475.726 27.216H477.886C477.694 28.112 477.252 28.832 476.558 29.376C475.865 29.92 475.012 30.192 473.998 30.192ZM483.512 30.192C482.744 30.192 482.051 30.016 481.432 29.664C480.824 29.312 480.339 28.8267 479.976 28.208C479.624 27.5787 479.448 26.8533 479.448 26.032C479.448 25.2107 479.629 24.4907 479.992 23.872C480.355 23.2427 480.84 22.752 481.448 22.4C482.067 22.048 482.76 21.872 483.528 21.872C484.285 21.872 484.968 22.048 485.576 22.4C486.195 22.752 486.68 23.2427 487.032 23.872C487.395 24.4907 487.576 25.2107 487.576 26.032C487.576 26.8533 487.395 27.5787 487.032 28.208C486.68 28.8267 486.195 29.312 485.576 29.664C484.957 30.016 484.269 30.192 483.512 30.192ZM483.512 28.416C484.045 28.416 484.509 28.2187 484.904 27.824C485.299 27.4187 485.496 26.8213 485.496 26.032C485.496 25.2427 485.299 24.6507 484.904 24.256C484.509 23.8507 484.051 23.648 483.528 23.648C482.984 23.648 482.515 23.8507 482.12 24.256C481.736 24.6507 481.544 25.2427 481.544 26.032C481.544 26.8213 481.736 27.4187 482.12 27.824C482.515 28.2187 482.979 28.416 483.512 28.416ZM492.383 30.192C491.391 30.192 490.623 29.8827 490.079 29.264C489.546 28.6453 489.279 27.7387 489.279 26.544V22.064H491.311V26.352C491.311 27.0347 491.45 27.5573 491.727 27.92C492.005 28.2827 492.442 28.464 493.039 28.464C493.605 28.464 494.069 28.2613 494.431 27.856C494.805 27.4507 494.991 26.8853 494.991 26.16V22.064H497.039V30H495.231L495.071 28.656C494.826 29.1253 494.469 29.4987 493.999 29.776C493.541 30.0533 493.002 30.192 492.383 30.192ZM499.142 30V22.064H500.95L501.11 23.408C501.355 22.9387 501.707 22.5653 502.166 22.288C502.635 22.0107 503.184 21.872 503.814 21.872C504.795 21.872 505.558 22.1813 506.102 22.8C506.646 23.4187 506.918 24.3253 506.918 25.52V30H504.87V25.712C504.87 25.0293 504.731 24.5067 504.454 24.144C504.176 23.7813 503.744 23.6 503.158 23.6C502.582 23.6 502.107 23.8027 501.734 24.208C501.371 24.6133 501.19 25.1787 501.19 25.904V30H499.142ZM512.412 30C511.58 30 510.913 29.7973 510.412 29.392C509.911 28.9867 509.66 28.2667 509.66 27.232V23.776H508.3V22.064H509.66L509.9 19.936H511.708V22.064H513.852V23.776H511.708V27.248C511.708 27.632 511.788 27.8987 511.948 28.048C512.119 28.1867 512.407 28.256 512.812 28.256H513.804V30H512.412ZM518.89 30.192C518.186 30.192 517.568 30.08 517.034 29.856C516.501 29.6213 516.074 29.3013 515.754 28.896C515.434 28.4907 515.242 28.0213 515.178 27.488H517.242C517.306 27.7973 517.477 28.064 517.754 28.288C518.042 28.5013 518.41 28.608 518.858 28.608C519.306 28.608 519.632 28.5173 519.834 28.336C520.048 28.1547 520.154 27.9467 520.154 27.712C520.154 27.3707 520.005 27.1413 519.706 27.024C519.408 26.896 518.992 26.7733 518.458 26.656C518.117 26.5813 517.77 26.4907 517.418 26.384C517.066 26.2773 516.741 26.144 516.442 25.984C516.154 25.8133 515.92 25.6 515.738 25.344C515.557 25.0773 515.466 24.752 515.466 24.368C515.466 23.664 515.744 23.072 516.298 22.592C516.864 22.112 517.653 21.872 518.666 21.872C519.605 21.872 520.352 22.0907 520.906 22.528C521.472 22.9653 521.808 23.568 521.914 24.336H519.978C519.861 23.7493 519.418 23.456 518.65 23.456C518.266 23.456 517.968 23.5307 517.754 23.68C517.552 23.8293 517.45 24.016 517.45 24.24C517.45 24.4747 517.605 24.6613 517.914 24.8C518.224 24.9387 518.634 25.0667 519.146 25.184C519.701 25.312 520.208 25.456 520.666 25.616C521.136 25.7653 521.509 25.9947 521.786 26.304C522.064 26.6027 522.202 27.0347 522.202 27.6C522.213 28.0907 522.085 28.5333 521.818 28.928C521.552 29.3227 521.168 29.632 520.666 29.856C520.165 30.08 519.573 30.192 518.89 30.192Z" fill="#FF1818"/>
<rect x="549" width="134" height="2" fill="#E0E0E0"/>
<path d="M575.013 30.192C574.192 30.192 573.482 30.048 572.885 29.76C572.298 29.472 571.834 29.0773 571.493 28.576C571.162 28.064 570.97 27.488 570.917 26.848H572.917C573.013 27.3067 573.248 27.6907 573.621 28C573.994 28.2987 574.458 28.448 575.013 28.448C575.61 28.448 576.096 28.2293 576.469 27.792C576.853 27.3547 577.045 26.8107 577.045 26.16C577.045 25.488 576.853 24.9547 576.469 24.56C576.096 24.1653 575.621 23.968 575.045 23.968C574.565 23.968 574.149 24.0853 573.797 24.32C573.445 24.5547 573.194 24.848 573.045 25.2H571.077L572.037 18.8H578.245V20.592H573.573L573.061 23.184C573.296 22.928 573.616 22.72 574.021 22.56C574.426 22.3893 574.88 22.304 575.381 22.304C576.181 22.304 576.848 22.4853 577.381 22.848C577.914 23.2 578.32 23.6693 578.597 24.256C578.874 24.832 579.013 25.4613 579.013 26.144C579.013 26.9227 578.842 27.616 578.501 28.224C578.17 28.832 577.701 29.312 577.093 29.664C576.496 30.016 575.802 30.192 575.013 30.192ZM581.751 30.112C581.377 30.112 581.068 29.9947 580.823 29.76C580.588 29.5253 580.471 29.2427 580.471 28.912C580.471 28.5707 580.588 28.2827 580.823 28.048C581.068 27.8133 581.377 27.696 581.751 27.696C582.124 27.696 582.428 27.8133 582.663 28.048C582.908 28.2827 583.031 28.5707 583.031 28.912C583.031 29.2427 582.908 29.5253 582.663 29.76C582.428 29.9947 582.124 30.112 581.751 30.112ZM593.344 30L589.248 18.8H591.44L594.608 27.904L597.792 18.8H599.952L595.856 30H593.344ZM602.956 30.192C602.273 30.192 601.713 30.0853 601.276 29.872C600.838 29.648 600.513 29.3547 600.3 28.992C600.086 28.6293 599.98 28.2293 599.98 27.792C599.98 27.056 600.268 26.4587 600.844 26C601.42 25.5413 602.284 25.312 603.436 25.312H605.452V25.12C605.452 24.576 605.297 24.176 604.988 23.92C604.678 23.664 604.294 23.536 603.836 23.536C603.42 23.536 603.057 23.6373 602.748 23.84C602.438 24.032 602.246 24.32 602.172 24.704H600.172C600.225 24.128 600.417 23.6267 600.748 23.2C601.089 22.7733 601.526 22.448 602.06 22.224C602.593 21.9893 603.19 21.872 603.852 21.872C604.982 21.872 605.873 22.1547 606.524 22.72C607.174 23.2853 607.5 24.0853 607.5 25.12V30H605.756L605.564 28.72C605.329 29.1467 604.998 29.4987 604.572 29.776C604.156 30.0533 603.617 30.192 602.956 30.192ZM603.42 28.592C604.006 28.592 604.46 28.4 604.78 28.016C605.11 27.632 605.318 27.1573 605.404 26.592H603.66C603.116 26.592 602.726 26.6933 602.492 26.896C602.257 27.088 602.14 27.328 602.14 27.616C602.14 27.9253 602.257 28.1653 602.492 28.336C602.726 28.5067 603.036 28.592 603.42 28.592ZM609.454 30V22.064H611.278L611.47 23.552C611.758 23.04 612.147 22.6347 612.638 22.336C613.139 22.0267 613.726 21.872 614.398 21.872V24.032H613.822C613.374 24.032 612.974 24.1013 612.622 24.24C612.27 24.3787 611.993 24.6187 611.79 24.96C611.598 25.3013 611.502 25.776 611.502 26.384V30H609.454ZM616.902 20.832C616.528 20.832 616.219 20.72 615.974 20.496C615.739 20.272 615.622 19.9893 615.622 19.648C615.622 19.3067 615.739 19.0293 615.974 18.816C616.219 18.592 616.528 18.48 616.902 18.48C617.275 18.48 617.579 18.592 617.814 18.816C618.059 19.0293 618.182 19.3067 618.182 19.648C618.182 19.9893 618.059 20.272 617.814 20.496C617.579 20.72 617.275 20.832 616.902 20.832ZM615.878 30V22.064H617.926V30H615.878ZM622.799 30.192C622.117 30.192 621.557 30.0853 621.119 29.872C620.682 29.648 620.357 29.3547 620.143 28.992C619.93 28.6293 619.823 28.2293 619.823 27.792C619.823 27.056 620.111 26.4587 620.687 26C621.263 25.5413 622.127 25.312 623.279 25.312H625.295V25.12C625.295 24.576 625.141 24.176 624.831 23.92C624.522 23.664 624.138 23.536 623.679 23.536C623.263 23.536 622.901 23.6373 622.591 23.84C622.282 24.032 622.09 24.32 622.015 24.704H620.015C620.069 24.128 620.261 23.6267 620.591 23.2C620.933 22.7733 621.37 22.448 621.903 22.224C622.437 21.9893 623.034 21.872 623.695 21.872C624.826 21.872 625.717 22.1547 626.367 22.72C627.018 23.2853 627.343 24.0853 627.343 25.12V30H625.599L625.407 28.72C625.173 29.1467 624.842 29.4987 624.415 29.776C623.999 30.0533 623.461 30.192 622.799 30.192ZM623.263 28.592C623.85 28.592 624.303 28.4 624.623 28.016C624.954 27.632 625.162 27.1573 625.247 26.592H623.503C622.959 26.592 622.57 26.6933 622.335 26.896C622.101 27.088 621.983 27.328 621.983 27.616C621.983 27.9253 622.101 28.1653 622.335 28.336C622.57 28.5067 622.879 28.592 623.263 28.592ZM632.724 30C631.892 30 631.226 29.7973 630.724 29.392C630.223 28.9867 629.972 28.2667 629.972 27.232V23.776H628.612V22.064H629.972L630.212 19.936H632.02V22.064H634.164V23.776H632.02V27.248C632.02 27.632 632.1 27.8987 632.26 28.048C632.431 28.1867 632.719 28.256 633.124 28.256H634.116V30H632.724ZM637.027 20.832C636.653 20.832 636.344 20.72 636.099 20.496C635.864 20.272 635.747 19.9893 635.747 19.648C635.747 19.3067 635.864 19.0293 636.099 18.816C636.344 18.592 636.653 18.48 637.027 18.48C637.4 18.48 637.704 18.592 637.939 18.816C638.184 19.0293 638.307 19.3067 638.307 19.648C638.307 19.9893 638.184 20.272 637.939 20.496C637.704 20.72 637.4 20.832 637.027 20.832ZM636.003 30V22.064H638.051V30H636.003ZM643.996 30.192C643.228 30.192 642.535 30.016 641.916 29.664C641.308 29.312 640.823 28.8267 640.46 28.208C640.108 27.5787 639.932 26.8533 639.932 26.032C639.932 25.2107 640.114 24.4907 640.476 23.872C640.839 23.2427 641.324 22.752 641.932 22.4C642.551 22.048 643.244 21.872 644.012 21.872C644.77 21.872 645.452 22.048 646.06 22.4C646.679 22.752 647.164 23.2427 647.516 23.872C647.879 24.4907 648.06 25.2107 648.06 26.032C648.06 26.8533 647.879 27.5787 647.516 28.208C647.164 28.8267 646.679 29.312 646.06 29.664C645.442 30.016 644.754 30.192 643.996 30.192ZM643.996 28.416C644.53 28.416 644.994 28.2187 645.388 27.824C645.783 27.4187 645.98 26.8213 645.98 26.032C645.98 25.2427 645.783 24.6507 645.388 24.256C644.994 23.8507 644.535 23.648 644.012 23.648C643.468 23.648 642.999 23.8507 642.604 24.256C642.22 24.6507 642.028 25.2427 642.028 26.032C642.028 26.8213 642.22 27.4187 642.604 27.824C642.999 28.2187 643.463 28.416 643.996 28.416ZM649.892 30V22.064H651.7L651.86 23.408C652.105 22.9387 652.457 22.5653 652.916 22.288C653.385 22.0107 653.934 21.872 654.564 21.872C655.545 21.872 656.308 22.1813 656.852 22.8C657.396 23.4187 657.668 24.3253 657.668 25.52V30H655.62V25.712C655.62 25.0293 655.481 24.5067 655.204 24.144C654.926 23.7813 654.494 23.6 653.908 23.6C653.332 23.6 652.857 23.8027 652.484 24.208C652.121 24.6133 651.94 25.1787 651.94 25.904V30H649.892ZM662.906 30.192C662.202 30.192 661.583 30.08 661.05 29.856C660.517 29.6213 660.09 29.3013 659.77 28.896C659.45 28.4907 659.258 28.0213 659.194 27.488H661.258C661.322 27.7973 661.493 28.064 661.77 28.288C662.058 28.5013 662.426 28.608 662.874 28.608C663.322 28.608 663.647 28.5173 663.85 28.336C664.063 28.1547 664.17 27.9467 664.17 27.712C664.17 27.3707 664.021 27.1413 663.722 27.024C663.423 26.896 663.007 26.7733 662.474 26.656C662.133 26.5813 661.786 26.4907 661.434 26.384C661.082 26.2773 660.757 26.144 660.458 25.984C660.17 25.8133 659.935 25.6 659.754 25.344C659.573 25.0773 659.482 24.752 659.482 24.368C659.482 23.664 659.759 23.072 660.314 22.592C660.879 22.112 661.669 21.872 662.682 21.872C663.621 21.872 664.367 22.0907 664.922 22.528C665.487 22.9653 665.823 23.568 665.93 24.336H663.994C663.877 23.7493 663.434 23.456 662.666 23.456C662.282 23.456 661.983 23.5307 661.77 23.68C661.567 23.8293 661.466 24.016 661.466 24.24C661.466 24.4747 661.621 24.6613 661.93 24.8C662.239 24.9387 662.65 25.0667 663.162 25.184C663.717 25.312 664.223 25.456 664.682 25.616C665.151 25.7653 665.525 25.9947 665.802 26.304C666.079 26.6027 666.218 27.0347 666.218 27.6C666.229 28.0907 666.101 28.5333 665.834 28.928C665.567 29.3227 665.183 29.632 664.682 29.856C664.181 30.08 663.589 30.192 662.906 30.192Z" fill="#8E8EA9"/>
<rect x="693" width="124" height="2" fill="#E0E0E0"/>
<path d="M719.76 30.192C718.917 30.192 718.208 30.0373 717.632 29.728C717.056 29.4187 716.592 29.0027 716.24 28.48C715.888 27.9573 715.632 27.376 715.472 26.736C715.322 26.096 715.248 25.44 715.248 24.768C715.248 23.52 715.424 22.4373 715.776 21.52C716.128 20.592 716.634 19.8773 717.296 19.376C717.957 18.864 718.757 18.608 719.696 18.608C720.464 18.608 721.114 18.7627 721.648 19.072C722.192 19.3707 722.613 19.7653 722.912 20.256C723.21 20.7467 723.386 21.2747 723.44 21.84H721.536C721.44 21.3493 721.232 20.9707 720.912 20.704C720.592 20.4373 720.181 20.304 719.68 20.304C718.965 20.304 718.389 20.6347 717.952 21.296C717.514 21.9467 717.28 22.944 717.248 24.288C717.504 23.8507 717.888 23.488 718.4 23.2C718.912 22.912 719.482 22.768 720.112 22.768C720.73 22.768 721.312 22.9173 721.856 23.216C722.4 23.5147 722.837 23.936 723.168 24.48C723.509 25.024 723.68 25.664 723.68 26.4C723.68 27.072 723.514 27.696 723.184 28.272C722.864 28.848 722.405 29.312 721.808 29.664C721.221 30.016 720.538 30.192 719.76 30.192ZM719.648 28.432C720.245 28.432 720.736 28.2507 721.12 27.888C721.514 27.5147 721.712 27.0453 721.712 26.48C721.712 25.8827 721.514 25.4027 721.12 25.04C720.725 24.6773 720.224 24.496 719.616 24.496C719.221 24.496 718.864 24.5867 718.544 24.768C718.234 24.9387 717.989 25.1733 717.808 25.472C717.626 25.76 717.536 26.0853 717.536 26.448C717.536 27.024 717.733 27.4987 718.128 27.872C718.533 28.2453 719.04 28.432 719.648 28.432ZM725.977 30.112C725.604 30.112 725.295 29.9947 725.049 29.76C724.815 29.5253 724.697 29.2427 724.697 28.912C724.697 28.5707 724.815 28.2827 725.049 28.048C725.295 27.8133 725.604 27.696 725.977 27.696C726.351 27.696 726.655 27.8133 726.889 28.048C727.135 28.2827 727.257 28.5707 727.257 28.912C727.257 29.2427 727.135 29.5253 726.889 29.76C726.655 29.9947 726.351 30.112 725.977 30.112ZM738.146 30.192C737.325 30.192 736.6 30.0533 735.97 29.776C735.341 29.488 734.845 29.0827 734.482 28.56C734.12 28.0267 733.933 27.3813 733.922 26.624H736.082C736.104 27.1467 736.29 27.5893 736.642 27.952C737.005 28.304 737.501 28.48 738.13 28.48C738.674 28.48 739.106 28.352 739.426 28.096C739.746 27.8293 739.906 27.4773 739.906 27.04C739.906 26.5813 739.762 26.224 739.474 25.968C739.197 25.712 738.824 25.504 738.354 25.344C737.885 25.184 737.384 25.0133 736.85 24.832C735.986 24.5333 735.325 24.1493 734.866 23.68C734.418 23.2107 734.194 22.5867 734.194 21.808C734.184 21.1467 734.338 20.5813 734.658 20.112C734.989 19.632 735.437 19.264 736.002 19.008C736.568 18.7413 737.218 18.608 737.954 18.608C738.701 18.608 739.357 18.7413 739.922 19.008C740.498 19.2747 740.946 19.648 741.266 20.128C741.597 20.608 741.773 21.1787 741.794 21.84H739.602C739.592 21.4453 739.437 21.0987 739.138 20.8C738.85 20.4907 738.445 20.336 737.922 20.336C737.474 20.3253 737.096 20.4373 736.786 20.672C736.488 20.896 736.338 21.2267 736.338 21.664C736.338 22.0373 736.456 22.336 736.69 22.56C736.925 22.7733 737.245 22.9547 737.65 23.104C738.056 23.2533 738.52 23.4133 739.042 23.584C739.597 23.776 740.104 24 740.562 24.256C741.021 24.512 741.389 24.8533 741.666 25.28C741.944 25.696 742.082 26.2347 742.082 26.896C742.082 27.4827 741.933 28.0267 741.634 28.528C741.336 29.0293 740.893 29.4347 740.306 29.744C739.72 30.0427 739 30.192 738.146 30.192ZM743.821 30V18.48H745.869V23.28C746.136 22.8427 746.493 22.5013 746.941 22.256C747.4 22 747.923 21.872 748.509 21.872C749.491 21.872 750.248 22.1813 750.781 22.8C751.325 23.4187 751.597 24.3253 751.597 25.52V30H749.565V25.712C749.565 25.0293 749.427 24.5067 749.149 24.144C748.883 23.7813 748.456 23.6 747.869 23.6C747.293 23.6 746.813 23.8027 746.429 24.208C746.056 24.6133 745.869 25.1787 745.869 25.904V30H743.821ZM754.66 20.832C754.286 20.832 753.977 20.72 753.732 20.496C753.497 20.272 753.38 19.9893 753.38 19.648C753.38 19.3067 753.497 19.0293 753.732 18.816C753.977 18.592 754.286 18.48 754.66 18.48C755.033 18.48 755.337 18.592 755.572 18.816C755.817 19.0293 755.94 19.3067 755.94 19.648C755.94 19.9893 755.817 20.272 755.572 20.496C755.337 20.72 755.033 20.832 754.66 20.832ZM753.636 30V22.064H755.684V30H753.636ZM757.821 33.52V22.064H759.645L759.869 23.2C760.125 22.848 760.461 22.5387 760.877 22.272C761.304 22.0053 761.853 21.872 762.525 21.872C763.272 21.872 763.939 22.0533 764.525 22.416C765.112 22.7787 765.576 23.2747 765.917 23.904C766.259 24.5333 766.429 25.248 766.429 26.048C766.429 26.848 766.259 27.5627 765.917 28.192C765.576 28.8107 765.112 29.3013 764.525 29.664C763.939 30.016 763.272 30.192 762.525 30.192C761.928 30.192 761.405 30.08 760.957 29.856C760.509 29.632 760.147 29.3173 759.869 28.912V33.52H757.821ZM762.093 28.4C762.744 28.4 763.283 28.1813 763.709 27.744C764.136 27.3067 764.349 26.7413 764.349 26.048C764.349 25.3547 764.136 24.784 763.709 24.336C763.283 23.888 762.744 23.664 762.093 23.664C761.432 23.664 760.888 23.888 760.461 24.336C760.045 24.7733 759.837 25.3387 759.837 26.032C759.837 26.7253 760.045 27.296 760.461 27.744C760.888 28.1813 761.432 28.4 762.093 28.4ZM768.259 33.52V22.064H770.083L770.307 23.2C770.563 22.848 770.899 22.5387 771.315 22.272C771.741 22.0053 772.291 21.872 772.963 21.872C773.709 21.872 774.376 22.0533 774.963 22.416C775.549 22.7787 776.013 23.2747 776.355 23.904C776.696 24.5333 776.867 25.248 776.867 26.048C776.867 26.848 776.696 27.5627 776.355 28.192C776.013 28.8107 775.549 29.3013 774.963 29.664C774.376 30.016 773.709 30.192 772.963 30.192C772.365 30.192 771.843 30.08 771.395 29.856C770.947 29.632 770.584 29.3173 770.307 28.912V33.52H768.259ZM772.531 28.4C773.181 28.4 773.72 28.1813 774.147 27.744C774.573 27.3067 774.787 26.7413 774.787 26.048C774.787 25.3547 774.573 24.784 774.147 24.336C773.72 23.888 773.181 23.664 772.531 23.664C771.869 23.664 771.325 23.888 770.899 24.336C770.483 24.7733 770.275 25.3387 770.275 26.032C770.275 26.7253 770.483 27.296 770.899 27.744C771.325 28.1813 771.869 28.4 772.531 28.4ZM779.8 20.832C779.427 20.832 779.118 20.72 778.872 20.496C778.638 20.272 778.52 19.9893 778.52 19.648C778.52 19.3067 778.638 19.0293 778.872 18.816C779.118 18.592 779.427 18.48 779.8 18.48C780.174 18.48 780.478 18.592 780.712 18.816C780.958 19.0293 781.08 19.3067 781.08 19.648C781.08 19.9893 780.958 20.272 780.712 20.496C780.478 20.72 780.174 20.832 779.8 20.832ZM778.776 30V22.064H780.824V30H778.776ZM782.962 30V22.064H784.77L784.93 23.408C785.175 22.9387 785.527 22.5653 785.986 22.288C786.455 22.0107 787.005 21.872 787.634 21.872C788.615 21.872 789.378 22.1813 789.922 22.8C790.466 23.4187 790.738 24.3253 790.738 25.52V30H788.69V25.712C788.69 25.0293 788.551 24.5067 788.274 24.144C787.997 23.7813 787.565 23.6 786.978 23.6C786.402 23.6 785.927 23.8027 785.554 24.208C785.191 24.6133 785.01 25.1787 785.01 25.904V30H782.962ZM796.056 27.632C795.672 27.632 795.315 27.5893 794.984 27.504L794.392 28.096C794.574 28.192 794.819 28.272 795.128 28.336C795.438 28.4 795.939 28.464 796.632 28.528C797.688 28.624 798.456 28.8747 798.936 29.28C799.416 29.6853 799.656 30.2453 799.656 30.96C799.656 31.4293 799.528 31.872 799.272 32.288C799.016 32.7147 798.622 33.056 798.088 33.312C797.555 33.5787 796.872 33.712 796.04 33.712C794.91 33.712 793.998 33.4987 793.304 33.072C792.611 32.656 792.264 32.0267 792.264 31.184C792.264 30.4693 792.611 29.8507 793.304 29.328C793.091 29.232 792.904 29.1307 792.744 29.024C792.595 28.9173 792.462 28.8053 792.344 28.688V28.32L793.736 26.848C793.118 26.304 792.808 25.6053 792.808 24.752C792.808 24.2187 792.936 23.7333 793.192 23.296C793.459 22.8587 793.832 22.512 794.312 22.256C794.792 22 795.374 21.872 796.056 21.872C796.504 21.872 796.92 21.936 797.304 22.064H800.312V23.312L798.952 23.408C799.166 23.8133 799.272 24.2613 799.272 24.752C799.272 25.2853 799.144 25.7707 798.888 26.208C798.632 26.6453 798.259 26.992 797.768 27.248C797.288 27.504 796.718 27.632 796.056 27.632ZM796.056 26.064C796.472 26.064 796.814 25.952 797.08 25.728C797.358 25.504 797.496 25.184 797.496 24.768C797.496 24.352 797.358 24.032 797.08 23.808C796.814 23.584 796.472 23.472 796.056 23.472C795.619 23.472 795.267 23.584 795 23.808C794.734 24.032 794.6 24.352 794.6 24.768C794.6 25.184 794.734 25.504 795 25.728C795.267 25.952 795.619 26.064 796.056 26.064ZM794.136 30.976C794.136 31.3707 794.318 31.664 794.68 31.856C795.054 32.0587 795.507 32.16 796.04 32.16C796.552 32.16 796.968 32.0533 797.288 31.84C797.608 31.6373 797.768 31.36 797.768 31.008C797.768 30.72 797.662 30.48 797.448 30.288C797.246 30.096 796.835 29.9787 796.216 29.936C795.779 29.904 795.374 29.856 795 29.792C794.691 29.9627 794.467 30.1493 794.328 30.352C794.2 30.5547 794.136 30.7627 794.136 30.976Z" fill="#8E8EA9"/>
</svg>
