<svg width="76" height="36" viewBox="0 0 76 36" fill="none" xmlns="http://www.w3.org/2000/svg">
<rect x="0.5" width="75" height="36" rx="10" fill="#4F4141"/>
<rect x="1" y="0.5" width="74" height="35" rx="9.5" stroke="black" stroke-opacity="0.1"/>
<path d="M18.822 23L22.406 13.2H24.422L28.006 23H26.102L25.318 20.732H21.496L20.698 23H18.822ZM21.986 19.332H24.828L23.4 15.258L21.986 19.332ZM28.9464 26.08V16.056H30.5424L30.7384 17.05C30.9624 16.742 31.2564 16.4713 31.6204 16.238C31.9937 16.0047 32.4744 15.888 33.0624 15.888C33.7157 15.888 34.2991 16.0467 34.8124 16.364C35.3257 16.6813 35.7317 17.1153 36.0304 17.666C36.3291 18.2167 36.4784 18.842 36.4784 19.542C36.4784 20.242 36.3291 20.8673 36.0304 21.418C35.7317 21.9593 35.3257 22.3887 34.8124 22.706C34.2991 23.014 33.7157 23.168 33.0624 23.168C32.5397 23.168 32.0824 23.07 31.6904 22.874C31.2984 22.678 30.9811 22.4027 30.7384 22.048V26.08H28.9464ZM32.6844 21.6C33.2537 21.6 33.7251 21.4087 34.0984 21.026C34.4717 20.6433 34.6584 20.1487 34.6584 19.542C34.6584 18.9353 34.4717 18.436 34.0984 18.044C33.7251 17.652 33.2537 17.456 32.6844 17.456C32.1057 17.456 31.6297 17.652 31.2564 18.044C30.8924 18.4267 30.7104 18.9213 30.7104 19.528C30.7104 20.1347 30.8924 20.634 31.2564 21.026C31.6297 21.4087 32.1057 21.6 32.6844 21.6ZM37.7992 26.08V16.056H39.3952L39.5912 17.05C39.8152 16.742 40.1092 16.4713 40.4732 16.238C40.8466 16.0047 41.3272 15.888 41.9152 15.888C42.5686 15.888 43.1519 16.0467 43.6652 16.364C44.1786 16.6813 44.5846 17.1153 44.8832 17.666C45.1819 18.2167 45.3312 18.842 45.3312 19.542C45.3312 20.242 45.1819 20.8673 44.8832 21.418C44.5846 21.9593 44.1786 22.3887 43.6652 22.706C43.1519 23.014 42.5686 23.168 41.9152 23.168C41.3926 23.168 40.9352 23.07 40.5432 22.874C40.1512 22.678 39.8339 22.4027 39.5912 22.048V26.08H37.7992ZM41.5372 21.6C42.1066 21.6 42.5779 21.4087 42.9512 21.026C43.3246 20.6433 43.5112 20.1487 43.5112 19.542C43.5112 18.9353 43.3246 18.436 42.9512 18.044C42.5779 17.652 42.1066 17.456 41.5372 17.456C40.9586 17.456 40.4826 17.652 40.1092 18.044C39.7452 18.4267 39.5632 18.9213 39.5632 19.528C39.5632 20.1347 39.7452 20.634 40.1092 21.026C40.4826 21.4087 40.9586 21.6 41.5372 21.6ZM46.652 23V12.92H48.444V23H46.652ZM50.8631 26.08L52.4731 22.538H52.0531L49.3511 16.056H51.2971L53.2431 20.942L55.2731 16.056H57.1771L52.7671 26.08H50.8631Z" fill="white"/>
</svg>
