<svg width="19" height="18" viewBox="0 0 19 18" fill="none" xmlns="http://www.w3.org/2000/svg">
<path d="M5.39296 5.10808L11.6156 5.10808C11.8613 5.10773 12.102 5.17695 12.3099 5.30774C12.5179 5.43853 12.6846 5.62553 12.7906 5.84711C12.9148 6.11002 12.9627 6.40252 12.9287 6.69128C12.8947 6.98005 12.7803 7.25346 12.5985 7.48037L9.48718 11.2494C9.36508 11.3903 9.21412 11.5033 9.04454 11.5807C8.87495 11.6582 8.6907 11.6982 8.50427 11.6982C8.31784 11.6982 8.13359 11.6582 7.96401 11.5807C7.79442 11.5033 7.64346 11.3903 7.52136 11.2494L4.41004 7.48037C4.22824 7.25346 4.11383 6.98005 4.07986 6.69128C4.04589 6.40252 4.09372 6.11002 4.2179 5.84711C4.32398 5.62553 4.49064 5.43853 4.6986 5.30774C4.90655 5.17695 5.14729 5.10773 5.39296 5.10808Z" fill="white"/>
</svg>
