<svg width="91" height="19" viewBox="0 0 91 19" fill="none" xmlns="http://www.w3.org/2000/svg">
<path d="M12.974 15.776H6.162L5.07 19H0.416L7.02 0.747999H12.168L18.772 19H14.066L12.974 15.776ZM11.83 12.344L9.568 5.662L7.332 12.344H11.83ZM25.5139 15.36H33.3659V19H20.4699V15.62L28.2699 4.388H20.4699V0.747999H33.3659V4.128L25.5139 15.36ZM47.6322 15.776H40.8202L39.7282 19H35.0742L41.6782 0.747999H46.8262L53.4302 19H48.7242L47.6322 15.776ZM46.4882 12.344L44.2262 5.662L41.9902 12.344H46.4882ZM71.7681 19H67.3221L59.8861 7.742V19H55.4401V0.747999H59.8861L67.3221 12.058V0.747999H71.7681V19ZM90.6429 0.747999L84.3249 12.968V19H79.8789V12.968L73.5609 0.747999H78.6049L82.1409 8.392L85.6509 0.747999H90.6429Z" fill="#290C0C"/>
</svg>
