<svg width="24" height="24" viewBox="0 0 24 24" fill="none" xmlns="http://www.w3.org/2000/svg">
<g clip-path="url(#clip0_1079_2706)">
<path d="M3.28341 10.9404C3.00251 11.2216 2.84473 11.6029 2.84473 12.0004C2.84473 12.3979 3.00251 12.7791 3.28341 13.0604L8.93941 18.7184C9.07874 18.8577 9.24415 18.9682 9.4262 19.0436C9.60824 19.119 9.80336 19.1579 10.0004 19.1579C10.1975 19.1579 10.3926 19.119 10.5746 19.0436C10.7567 18.9682 10.9221 18.8577 11.0614 18.7184C11.2007 18.579 11.3113 18.4136 11.3867 18.2316C11.4621 18.0495 11.5009 17.8544 11.5009 17.6574C11.5009 17.4603 11.4621 17.2652 11.3867 17.0832C11.3113 16.9011 11.2007 16.7357 11.0614 16.5964L7.96541 13.5004H19.5004C19.8982 13.5004 20.2798 13.3423 20.5611 13.061C20.8424 12.7797 21.0004 12.3982 21.0004 12.0004C21.0004 11.6026 20.8424 11.221 20.5611 10.9397C20.2798 10.6584 19.8982 10.5004 19.5004 10.5004H7.96541L11.0614 7.40438C11.3427 7.12298 11.5006 6.74138 11.5005 6.34352C11.5004 5.94567 11.3423 5.56414 11.0609 5.28288C10.7795 5.00161 10.3979 4.84366 10.0001 4.84375C9.60219 4.84384 9.22067 5.00198 8.93941 5.28338L3.28341 10.9404Z" fill="#D65D5B"/>
</g>
<defs>
<clipPath id="clip0_1079_2706">
<rect width="24" height="24" fill="white"/>
</clipPath>
</defs>
</svg>
