<svg width="281" height="174" viewBox="0 0 281 174" fill="none" xmlns="http://www.w3.org/2000/svg">
<g filter="url(#filter0_d_1428_1456)">
<rect x="12" y="6" width="256.672" height="149.929" rx="24.4449" fill="url(#paint0_linear_1428_1456)"/>
<mask id="mask0_1428_1456" style="mask-type:alpha" maskUnits="userSpaceOnUse" x="12" y="6" width="257" height="151">
<rect x="12" y="6.07227" width="256.672" height="149.929" rx="24.4449" fill="#ED713C"/>
</mask>
<g mask="url(#mask0_1428_1456)">
<ellipse opacity="0.1" cx="31.9634" cy="179.56" rx="130.78" ry="92.0758" fill="#242736"/>
<ellipse opacity="0.08" cx="248.708" cy="-17.6292" rx="130.78" ry="92.0758" fill="#242736"/>
</g>
<path d="M220.936 28.7939H230.85V46.6082H220.936V28.7939Z" fill="#FF5F00"/>
<path d="M214.233 55.5739V53.6855C214.233 52.9615 213.792 52.4895 213.036 52.4895C212.659 52.4895 212.25 52.6154 211.966 53.0246C211.746 52.6783 211.431 52.4895 210.959 52.4895C210.644 52.4895 210.33 52.5839 210.078 52.9301V52.5525H209.417V55.5739H210.078V53.9058C210.078 53.3708 210.361 53.1189 210.802 53.1189C211.242 53.1189 211.463 53.4022 211.463 53.9058V55.5739H212.124V53.9058C212.124 53.3708 212.438 53.1189 212.848 53.1189C213.288 53.1189 213.509 53.4022 213.509 53.9058V55.5739H214.233ZM224.021 52.5525H222.951V51.6398H222.29V52.5525H221.692V53.1503H222.29V54.5353C222.29 55.2278 222.573 55.6368 223.328 55.6368C223.612 55.6368 223.926 55.5425 224.147 55.4166L223.958 54.85C223.769 54.9759 223.549 55.0074 223.391 55.0074C223.077 55.0074 222.951 54.8186 222.951 54.5038V53.1503H224.021V52.5525ZM229.623 52.4894C229.246 52.4894 228.994 52.6783 228.836 52.9301V52.5525H228.175V55.5739H228.836V53.8744C228.836 53.3708 229.057 53.0875 229.466 53.0875C229.592 53.0875 229.749 53.1191 229.875 53.1505L230.064 52.5211C229.938 52.4895 229.749 52.4895 229.623 52.4895V52.4894ZM221.157 52.8042C220.842 52.5839 220.401 52.4895 219.929 52.4895C219.174 52.4895 218.67 52.8672 218.67 53.4652C218.67 53.9688 219.048 54.252 219.709 54.3465L220.024 54.378C220.37 54.4408 220.559 54.5353 220.559 54.6927C220.559 54.913 220.307 55.0704 219.866 55.0704C219.426 55.0704 219.079 54.913 218.859 54.7557L218.544 55.2592C218.891 55.511 219.363 55.6368 219.835 55.6368C220.716 55.6368 221.22 55.2278 221.22 54.6612C221.22 54.1261 220.811 53.8428 220.181 53.7485L219.866 53.7169C219.583 53.6854 219.363 53.6226 219.363 53.4338C219.363 53.2134 219.583 53.0875 219.929 53.0875C220.307 53.0875 220.685 53.2448 220.873 53.3393L221.157 52.8042ZM238.719 52.4895C238.341 52.4895 238.09 52.6783 237.932 52.9301V52.5525H237.271V55.5739H237.932V53.8744C237.932 53.3708 238.153 53.0875 238.562 53.0875C238.688 53.0875 238.845 53.1191 238.971 53.1505L239.16 52.5211C239.034 52.4895 238.845 52.4895 238.719 52.4895ZM230.284 54.0632C230.284 54.9759 230.914 55.6368 231.889 55.6368C232.33 55.6368 232.645 55.5425 232.959 55.2907L232.645 54.7557C232.393 54.9445 232.141 55.0388 231.858 55.0388C231.323 55.0388 230.945 54.6612 230.945 54.0632C230.945 53.4967 231.323 53.1189 231.858 53.0875C232.141 53.0875 232.393 53.1819 232.645 53.3708L232.959 52.8358C232.645 52.5839 232.33 52.4895 231.889 52.4895C230.914 52.4895 230.284 53.1505 230.284 54.0632ZM236.39 54.0632V52.5525H235.729V52.9301C235.509 52.6469 235.194 52.4895 234.785 52.4895C233.935 52.4895 233.274 53.1505 233.274 54.0632C233.274 54.9759 233.935 55.6368 234.785 55.6368C235.226 55.6368 235.54 55.4796 235.729 55.1963V55.5739H236.39V54.0632ZM233.967 54.0632C233.967 53.5281 234.313 53.0875 234.879 53.0875C235.414 53.0875 235.792 53.4967 235.792 54.0632C235.792 54.5983 235.414 55.0388 234.879 55.0388C234.313 55.0073 233.967 54.5983 233.967 54.0632ZM226.067 52.4895C225.185 52.4895 224.556 53.1189 224.556 54.0632C224.556 55.0074 225.185 55.6368 226.098 55.6368C226.539 55.6368 226.979 55.511 227.326 55.2278L227.011 54.7557C226.759 54.9445 226.444 55.0704 226.13 55.0704C225.721 55.0704 225.311 54.8816 225.217 54.3463H227.452V54.0947C227.483 53.1189 226.917 52.4895 226.067 52.4895H226.067ZM226.067 53.056C226.476 53.056 226.759 53.3079 226.822 53.78H225.248C225.311 53.3708 225.595 53.056 226.067 53.056ZM242.465 54.0632V51.3564H241.804V52.9301C241.583 52.6469 241.269 52.4895 240.859 52.4895C240.01 52.4895 239.349 53.1505 239.349 54.0632C239.349 54.9759 240.01 55.6368 240.859 55.6368C241.3 55.6368 241.615 55.4796 241.804 55.1963V55.5739H242.465V54.0632ZM240.041 54.0632C240.041 53.5281 240.387 53.0875 240.954 53.0875C241.489 53.0875 241.867 53.4967 241.867 54.0632C241.867 54.5983 241.489 55.0388 240.954 55.0388C240.387 55.0073 240.041 54.5983 240.041 54.0632ZM217.946 54.0632V52.5525H217.285V52.9301C217.065 52.6469 216.75 52.4895 216.341 52.4895C215.491 52.4895 214.83 53.1505 214.83 54.0632C214.83 54.9759 215.491 55.6368 216.341 55.6368C216.782 55.6368 217.097 55.4796 217.285 55.1963V55.5739H217.946V54.0632ZM215.491 54.0632C215.491 53.5281 215.838 53.0875 216.404 53.0875C216.939 53.0875 217.317 53.4967 217.317 54.0632C217.317 54.5983 216.939 55.0388 216.404 55.0388C215.838 55.0073 215.491 54.5983 215.491 54.0632Z" fill="#F6F6F6"/>
<path d="M221.566 37.7017C221.566 34.0823 223.265 30.8719 225.877 28.7945C223.958 27.2838 221.534 26.3711 218.89 26.3711C212.627 26.3711 207.56 31.4383 207.56 37.7017C207.56 43.965 212.627 49.0323 218.89 49.0323C221.534 49.0323 223.957 48.1196 225.877 46.6088C223.265 44.563 221.566 41.3212 221.566 37.7017Z" fill="#EB001B"/>
<path d="M244.226 37.7007C244.226 43.964 239.159 49.0314 232.896 49.0314C230.252 49.0314 227.829 48.1187 225.909 46.6078C228.552 44.5306 230.221 41.3202 230.221 37.7007C230.221 34.0813 228.521 30.8709 225.909 28.7936C227.828 27.2828 230.252 26.3701 232.896 26.3701C239.159 26.3701 244.227 31.4689 244.227 37.7007H244.226Z" fill="#F79E1B"/>
</g>
<defs>
<filter id="filter0_d_1428_1456" x="0.141424" y="0.0707121" width="280.389" height="173.718" filterUnits="userSpaceOnUse" color-interpolation-filters="sRGB">
<feFlood flood-opacity="0" result="BackgroundImageFix"/>
<feColorMatrix in="SourceAlpha" type="matrix" values="0 0 0 0 0 0 0 0 0 0 0 0 0 0 0 0 0 0 127 0" result="hardAlpha"/>
<feOffset dy="5.92929"/>
<feGaussianBlur stdDeviation="5.92929"/>
<feComposite in2="hardAlpha" operator="out"/>
<feColorMatrix type="matrix" values="0 0 0 0 0 0 0 0 0 0 0 0 0 0 0 0 0 0 0.16 0"/>
<feBlend mode="normal" in2="BackgroundImageFix" result="effect1_dropShadow_1428_1456"/>
<feBlend mode="normal" in="SourceGraphic" in2="effect1_dropShadow_1428_1456" result="shape"/>
</filter>
<linearGradient id="paint0_linear_1428_1456" x1="141.221" y1="-18.8566" x2="146.691" y2="174.699" gradientUnits="userSpaceOnUse">
<stop stop-color="#9C2CF3"/>
<stop offset="1" stop-color="#3A49F9"/>
</linearGradient>
</defs>
</svg>
