<svg width="126" height="127" viewBox="0 0 126 127" fill="none" xmlns="http://www.w3.org/2000/svg">
<circle cx="63" cy="63.4766" r="62.9805" fill="#F7DFDE"/>
<path d="M82.2259 74.7466H47.7523L41.1228 48.2285H88.8554L82.2259 74.7466Z" fill="#D65D5B"/>
<path d="M34.4932 40.2734H39.1338L41.1227 48.2289M41.1227 48.2289L47.7522 74.747H82.2258L88.8553 48.2289H41.1227Z" stroke="#D65D5B" stroke-width="5.30362" stroke-linecap="round" stroke-linejoin="round"/>
<path d="M47.7521 88.0062C49.949 88.0062 51.7298 86.2253 51.7298 84.0285C51.7298 81.8317 49.949 80.0508 47.7521 80.0508C45.5553 80.0508 43.7744 81.8317 43.7744 84.0285C43.7744 86.2253 45.5553 88.0062 47.7521 88.0062Z" stroke="#D65D5B" stroke-width="5.30362" stroke-linecap="round" stroke-linejoin="round"/>
<path d="M82.2258 88.0062C84.4226 88.0062 86.2035 86.2253 86.2035 84.0285C86.2035 81.8317 84.4226 80.0508 82.2258 80.0508C80.0289 80.0508 78.248 81.8317 78.248 84.0285C78.248 86.2253 80.0289 88.0062 82.2258 88.0062Z" stroke="#D65D5B" stroke-width="5.30362" stroke-linecap="round" stroke-linejoin="round"/>
</svg>
