<svg width="19" height="19" viewBox="0 0 19 19" fill="none" xmlns="http://www.w3.org/2000/svg">
<g id="Frame">
<path id="Vector" d="M9.81113 2.60352C8.37247 2.60352 6.96611 3.03013 5.7699 3.82941C4.5737 4.62869 3.64137 5.76473 3.09081 7.09389C2.54026 8.42304 2.39621 9.8856 2.67688 11.2966C2.95755 12.7076 3.65033 14.0038 4.66762 15.021C5.68491 16.0383 6.98102 16.7311 8.39204 17.0118C9.80306 17.2925 11.2656 17.1484 12.5948 16.5979C13.9239 16.0473 15.06 15.115 15.8593 13.9188C16.6585 12.7226 17.0852 11.3162 17.0852 9.87753C17.0831 7.94897 16.3161 6.09998 14.9524 4.73628C13.5887 3.37257 11.7397 2.60555 9.81113 2.60352ZM13.0047 8.59479L9.08793 12.5116C9.03596 12.5636 8.97425 12.6049 8.90632 12.633C8.8384 12.6612 8.76558 12.6757 8.69205 12.6757C8.61852 12.6757 8.54571 12.6612 8.47778 12.633C8.40985 12.6049 8.34814 12.5636 8.29618 12.5116L6.61756 10.8329C6.51256 10.728 6.45358 10.5856 6.45358 10.4371C6.45358 10.2886 6.51256 10.1462 6.61756 10.0412C6.72255 9.93621 6.86495 9.87722 7.01343 9.87722C7.16191 9.87722 7.30431 9.93621 7.40931 10.0412L8.69205 11.3246L12.213 7.80304C12.2649 7.75105 12.3267 7.70981 12.3946 7.68168C12.4625 7.65354 12.5353 7.63906 12.6088 7.63906C12.6824 7.63906 12.7552 7.65354 12.8231 7.68168C12.891 7.70981 12.9527 7.75105 13.0047 7.80304C13.0567 7.85503 13.0979 7.91674 13.1261 7.98467C13.1542 8.05259 13.1687 8.12539 13.1687 8.19891C13.1687 8.27244 13.1542 8.34524 13.1261 8.41316C13.0979 8.48108 13.0567 8.5428 13.0047 8.59479Z" fill="#01AB31"/>
</g>
</svg>
