<svg width="13" height="14" viewBox="0 0 13 14" fill="none" xmlns="http://www.w3.org/2000/svg">
<g id="Delete">
<path id="Delete_2" fill-rule="evenodd" clip-rule="evenodd" d="M12.101 2.27012C12.3733 2.27012 12.6 2.49621 12.6 2.78391V3.04991C12.6 3.33061 12.3733 3.5637 12.101 3.5637H0.499697C0.226702 3.5637 0 3.33061 0 3.04991V2.78391C0 2.49621 0.226702 2.27012 0.499697 2.27012H2.5407C2.9553 2.27012 3.31611 1.97542 3.40938 1.55962L3.51626 1.08223C3.68238 0.431934 4.22905 3.8147e-05 4.85469 3.8147e-05H7.74531C8.36415 3.8147e-05 8.91694 0.431934 9.07693 1.04793L9.1913 1.55892C9.28389 1.97542 9.64471 2.27012 10.06 2.27012H12.101ZM11.0641 11.9938C11.2772 10.0079 11.6502 5.28995 11.6502 5.24235C11.6639 5.09815 11.6169 4.96165 11.5236 4.85175C11.4235 4.74885 11.2969 4.68795 11.1574 4.68795H1.44797C1.30773 4.68795 1.1743 4.74885 1.08171 4.85175C0.987761 4.96165 0.941468 5.09815 0.948276 5.24235C0.949527 5.25109 0.962913 5.41728 0.985293 5.69512C1.08472 6.92939 1.36163 10.3671 1.54056 11.9938C1.66719 13.1922 2.4535 13.9454 3.59245 13.9727C4.47135 13.993 5.37679 14 6.30266 14C7.17475 14 8.06045 13.993 8.96658 13.9727C10.145 13.9524 10.9307 13.2125 11.0641 11.9938Z" fill="#D11A2A"/>
</g>
</svg>
