<svg width="70" height="22" viewBox="0 0 70 22" fill="none" xmlns="http://www.w3.org/2000/svg">
<rect x="0.162598" y="0.79248" width="68.8993" height="20.5407" rx="10.2704" fill="#D11A2A" fill-opacity="0.2"/>
<path fill-rule="evenodd" clip-rule="evenodd" d="M18.7295 7.41921C18.9392 7.41921 19.1139 7.59339 19.1139 7.81502V8.01994C19.1139 8.23618 18.9392 8.41575 18.7295 8.41575H9.79218C9.58187 8.41575 9.40723 8.23618 9.40723 8.01994V7.81502C9.40723 7.59339 9.58187 7.41921 9.79218 7.41921H11.3645C11.6839 7.41921 11.9619 7.19218 12.0337 6.87187L12.1161 6.5041C12.244 6.00313 12.6652 5.67041 13.1471 5.67041H15.374C15.8507 5.67041 16.2766 6.00313 16.3998 6.47767L16.4879 6.87133C16.5593 7.19218 16.8372 7.41921 17.1571 7.41921H18.7295ZM17.9309 14.91C18.095 13.3801 18.3824 9.74555 18.3824 9.70888C18.3929 9.5978 18.3567 9.49264 18.2849 9.40798C18.2078 9.32871 18.1102 9.28179 18.0027 9.28179H10.5229C10.4149 9.28179 10.3121 9.32871 10.2407 9.40798C10.1684 9.49264 10.1327 9.5978 10.1379 9.70888C10.1389 9.71562 10.1492 9.84365 10.1665 10.0577C10.243 11.0085 10.4564 13.6568 10.5942 14.91C10.6918 15.8332 11.2975 16.4134 12.1749 16.4345C12.852 16.4501 13.5495 16.4555 14.2628 16.4555C14.9346 16.4555 15.6169 16.4501 16.315 16.4345C17.2228 16.4188 17.8281 15.8488 17.9309 14.91Z" fill="#D11A2A"/>
<path d="M27.5831 14.563V7.01336H30.0314C30.9158 7.01336 31.642 7.16794 32.21 7.47712C32.7852 7.7863 33.2094 8.22489 33.4826 8.79291C33.763 9.35374 33.9033 10.0224 33.9033 10.799C33.9033 11.5683 33.763 12.237 33.4826 12.805C33.2094 13.3658 32.7852 13.8008 32.21 14.11C31.642 14.412 30.9158 14.563 30.0314 14.563H27.5831ZM28.7264 13.5923H29.9882C30.6713 13.5923 31.2105 13.4809 31.606 13.258C32.0087 13.0351 32.2963 12.7151 32.4688 12.2981C32.6486 11.8811 32.7385 11.3814 32.7385 10.799C32.7385 10.2166 32.6486 9.71325 32.4688 9.28903C32.2963 8.86481 32.0087 8.54126 31.606 8.31836C31.2105 8.08828 30.6713 7.97324 29.9882 7.97324H28.7264V13.5923ZM37.4098 14.6924C36.8849 14.6924 36.4175 14.5774 36.0077 14.3473C35.6051 14.11 35.2887 13.7829 35.0586 13.3658C34.8285 12.9488 34.7135 12.4635 34.7135 11.9098C34.7135 11.349 34.8249 10.8565 35.0478 10.4323C35.2779 10.008 35.5943 9.6773 35.9969 9.44002C36.4068 9.20275 36.8813 9.08411 37.4206 9.08411C37.9454 9.08411 38.402 9.20275 38.7903 9.44002C39.1786 9.67011 39.4805 9.97928 39.6962 10.3676C39.9119 10.7558 40.0198 11.1836 40.0198 11.651C40.0198 11.7229 40.0162 11.802 40.009 11.8883C40.009 11.9674 40.0054 12.0572 39.9982 12.1579H35.8351C35.8711 12.6756 36.0401 13.071 36.3421 13.3443C36.6512 13.6103 37.0071 13.7433 37.4098 13.7433C37.7333 13.7433 38.003 13.6714 38.2187 13.5276C38.4416 13.3766 38.6069 13.1753 38.7148 12.9236H39.858C39.7142 13.4269 39.4266 13.8476 38.9952 14.1855C38.571 14.5234 38.0425 14.6924 37.4098 14.6924ZM37.4098 10.0224C37.0287 10.0224 36.6908 10.1375 36.396 10.3676C36.1012 10.5904 35.9214 10.9284 35.8567 11.3814H38.8766C38.855 10.9643 38.7076 10.6336 38.4344 10.3891C38.1612 10.1447 37.8196 10.0224 37.4098 10.0224ZM40.9903 14.563V6.79765H42.1335V14.563H40.9903ZM45.8677 14.6924C45.3429 14.6924 44.8755 14.5774 44.4657 14.3473C44.063 14.11 43.7466 13.7829 43.5166 13.3658C43.2865 12.9488 43.1714 12.4635 43.1714 11.9098C43.1714 11.349 43.2829 10.8565 43.5058 10.4323C43.7359 10.008 44.0522 9.6773 44.4549 9.44002C44.8647 9.20275 45.3393 9.08411 45.8785 9.08411C46.4034 9.08411 46.86 9.20275 47.2482 9.44002C47.6365 9.67011 47.9385 9.97928 48.1542 10.3676C48.3699 10.7558 48.4777 11.1836 48.4777 11.651C48.4777 11.7229 48.4741 11.802 48.467 11.8883C48.467 11.9674 48.4634 12.0572 48.4562 12.1579H44.2931C44.329 12.6756 44.498 13.071 44.8 13.3443C45.1092 13.6103 45.4651 13.7433 45.8677 13.7433C46.1913 13.7433 46.4609 13.6714 46.6766 13.5276C46.8995 13.3766 47.0649 13.1753 47.1727 12.9236H48.316C48.1722 13.4269 47.8846 13.8476 47.4532 14.1855C47.0289 14.5234 46.5005 14.6924 45.8677 14.6924ZM45.8677 10.0224C45.4867 10.0224 45.1487 10.1375 44.8539 10.3676C44.5591 10.5904 44.3794 10.9284 44.3147 11.3814H47.3345C47.3129 10.9643 47.1655 10.6336 46.8923 10.3891C46.6191 10.1447 46.2776 10.0224 45.8677 10.0224ZM51.5546 14.563C51.0298 14.563 50.6127 14.4372 50.3036 14.1855C49.9944 13.9267 49.8398 13.4701 49.8398 12.8158V10.1734H48.9231V9.21354H49.8398L49.98 7.8546H50.983V9.21354H52.493V10.1734H50.983V12.8158C50.983 13.1106 51.0441 13.3155 51.1664 13.4305C51.2958 13.5384 51.5151 13.5923 51.8243 13.5923H52.439V14.563H51.5546ZM55.8213 14.6924C55.2964 14.6924 54.829 14.5774 54.4192 14.3473C54.0166 14.11 53.7002 13.7829 53.4701 13.3658C53.24 12.9488 53.125 12.4635 53.125 11.9098C53.125 11.349 53.2364 10.8565 53.4593 10.4323C53.6894 10.008 54.0058 9.6773 54.4084 9.44002C54.8183 9.20275 55.2928 9.08411 55.8321 9.08411C56.3569 9.08411 56.8135 9.20275 57.2018 9.44002C57.59 9.67011 57.892 9.97928 58.1077 10.3676C58.3234 10.7558 58.4313 11.1836 58.4313 11.651C58.4313 11.7229 58.4277 11.802 58.4205 11.8883C58.4205 11.9674 58.4169 12.0572 58.4097 12.1579H54.2466C54.2826 12.6756 54.4516 13.071 54.7535 13.3443C55.0627 13.6103 55.4186 13.7433 55.8213 13.7433C56.1448 13.7433 56.4145 13.6714 56.6302 13.5276C56.8531 13.3766 57.0184 13.1753 57.1263 12.9236H58.2695C58.1257 13.4269 57.8381 13.8476 57.4067 14.1855C56.9825 14.5234 56.454 14.6924 55.8213 14.6924ZM55.8213 10.0224C55.4402 10.0224 55.1023 10.1375 54.8075 10.3676C54.5127 10.5904 54.3329 10.9284 54.2682 11.3814H57.2881C57.2665 10.9643 57.1191 10.6336 56.8459 10.3891C56.5726 10.1447 56.2311 10.0224 55.8213 10.0224Z" fill="#D11A2A"/>
</svg>
