<svg width="63" height="22" viewBox="0 0 63 22" fill="none" xmlns="http://www.w3.org/2000/svg">
<rect x="0.244629" y="0.518555" width="61.978" height="20.5407" rx="10.2704" fill="#4F4141" fill-opacity="0.2"/>
<path fill-rule="evenodd" clip-rule="evenodd" d="M13.3098 15.5992L18.5744 8.79108C18.8606 8.42395 18.9623 7.99949 18.8669 7.5673C18.7843 7.1744 18.5427 6.80082 18.1802 6.51742L17.2964 5.81535C16.5271 5.20345 15.5734 5.26786 15.0266 5.96993L14.4353 6.73705C14.359 6.83302 14.378 6.97473 14.4734 7.05202C14.4734 7.05202 15.9676 8.25004 15.9994 8.27581C16.1011 8.37242 16.1774 8.50124 16.1965 8.65582C16.2283 8.95855 16.0184 9.24195 15.7069 9.2806C15.5607 9.29992 15.4208 9.25484 15.319 9.1711L13.7486 7.92155C13.6723 7.86423 13.5578 7.87646 13.4942 7.95376L9.76197 12.7845C9.52035 13.0872 9.4377 13.4801 9.52035 13.8601L9.99722 15.9277C10.0227 16.0372 10.118 16.1145 10.2325 16.1145L12.3307 16.0887C12.7122 16.0823 13.0682 15.9084 13.3098 15.5992ZM16.248 14.9554H19.6694C20.0032 14.9554 20.2747 15.2304 20.2747 15.5686C20.2747 15.9074 20.0032 16.1817 19.6694 16.1817H16.248C15.9142 16.1817 15.6427 15.9074 15.6427 15.5686C15.6427 15.2304 15.9142 14.9554 16.248 14.9554Z" fill="#4F4141"/>
<path d="M28.7438 14.2891V6.73943H31.192C32.0764 6.73943 32.8026 6.89402 33.3706 7.20319C33.9458 7.51237 34.37 7.95097 34.6433 8.51899C34.9237 9.07982 35.0639 9.7485 35.0639 10.525C35.0639 11.2944 34.9237 11.9631 34.6433 12.5311C34.37 13.0919 33.9458 13.5269 33.3706 13.8361C32.8026 14.1381 32.0764 14.2891 31.192 14.2891H28.7438ZM29.887 13.3184H31.1489C31.8319 13.3184 32.3712 13.2069 32.7667 12.9841C33.1693 12.7612 33.4569 12.4412 33.6295 12.0242C33.8092 11.6071 33.8991 11.1074 33.8991 10.525C33.8991 9.94263 33.8092 9.43932 33.6295 9.01511C33.4569 8.59089 33.1693 8.26733 32.7667 8.04444C32.3712 7.81436 31.8319 7.69931 31.1489 7.69931H29.887V13.3184ZM36.0683 14.2891V8.93961H37.0929L37.1899 9.95342C37.3769 9.6011 37.6357 9.32428 37.9665 9.12296C38.3044 8.91444 38.7106 8.81019 39.1852 8.81019V10.0073H38.8724C38.556 10.0073 38.272 10.0613 38.0204 10.1691C37.7759 10.2698 37.5782 10.4459 37.4272 10.6976C37.2834 10.9421 37.2115 11.2836 37.2115 11.7222V14.2891H36.0683ZM41.7616 14.4185C41.3086 14.4185 40.9347 14.343 40.6399 14.192C40.3451 14.041 40.1258 13.8433 39.982 13.5988C39.8382 13.3472 39.7663 13.0739 39.7663 12.7791C39.7663 12.2614 39.9676 11.8516 40.3703 11.5496C40.7729 11.2476 41.3481 11.0966 42.0959 11.0966H43.498V10.9996C43.498 10.5826 43.383 10.2698 43.1529 10.0613C42.93 9.85276 42.6388 9.7485 42.2793 9.7485C41.9629 9.7485 41.6861 9.82759 41.4488 9.98577C41.2187 10.1368 41.0785 10.3633 41.0282 10.6652H39.885C39.9209 10.277 40.0503 9.94623 40.2732 9.673C40.5033 9.39259 40.7909 9.18048 41.136 9.03668C41.4884 8.88568 41.873 8.81019 42.2901 8.81019C43.0378 8.81019 43.6166 9.00792 44.0265 9.40337C44.4363 9.79164 44.6412 10.3237 44.6412 10.9996V14.2891H43.649L43.5519 13.3723C43.4009 13.6671 43.1816 13.9152 42.894 14.1165C42.6064 14.3178 42.2289 14.4185 41.7616 14.4185ZM41.9881 13.491C42.2972 13.491 42.5561 13.4191 42.7646 13.2753C42.9803 13.1243 43.1457 12.9265 43.2607 12.6821C43.383 12.4376 43.4584 12.168 43.4872 11.8732H42.2146C41.7616 11.8732 41.438 11.9523 41.2439 12.1105C41.0569 12.2686 40.9635 12.4664 40.9635 12.7036C40.9635 12.9481 41.0534 13.1422 41.2331 13.286C41.42 13.4227 41.6717 13.491 41.9881 13.491ZM46.0281 14.2891V9.89949H45.2624V8.93961H46.0281V8.16308C46.0281 7.58068 46.1719 7.16365 46.4595 6.91199C46.7543 6.65315 47.1678 6.52373 47.6998 6.52373H48.2607V7.49439H47.8724C47.6207 7.49439 47.441 7.54832 47.3331 7.65617C47.2253 7.75683 47.1714 7.9294 47.1714 8.17386V8.93961H48.4009V9.89949H47.1714V14.2891H46.0281ZM51.5146 14.2891C50.9897 14.2891 50.5727 14.1632 50.2635 13.9116C49.9543 13.6527 49.7997 13.1962 49.7997 12.5419V9.89949H48.883V8.93961H49.7997L49.94 7.58068H50.943V8.93961H52.4529V9.89949H50.943V12.5419C50.943 12.8367 51.0041 13.0416 51.1263 13.1566C51.2557 13.2645 51.475 13.3184 51.7842 13.3184H52.399V14.2891H51.5146Z" fill="#4F4141"/>
</svg>
