<svg width="58" height="22" viewBox="0 0 58 22" fill="none" xmlns="http://www.w3.org/2000/svg">
<rect x="0.325684" y="0.555664" width="56.9775" height="20.5407" rx="10.2704" fill="#FFD66B" fill-opacity="0.2"/>
<path fill-rule="evenodd" clip-rule="evenodd" d="M13.3909 15.6363L18.6555 8.82819C18.9416 8.46106 19.0434 8.0366 18.948 7.60441C18.8653 7.21151 18.6237 6.83793 18.2613 6.55452L17.3775 5.85246C16.6082 5.24056 15.6544 5.30497 15.1076 6.00704L14.5163 6.77416C14.44 6.87013 14.4591 7.01183 14.5545 7.08913C14.5545 7.08913 16.0486 8.28715 16.0804 8.31291C16.1822 8.40953 16.2585 8.53835 16.2775 8.69293C16.3093 8.99566 16.0995 9.27906 15.7879 9.31771C15.6417 9.33703 15.5018 9.29195 15.4001 9.20821L13.8296 7.95866C13.7533 7.90134 13.6389 7.91357 13.5753 7.99087L9.84302 12.8216C9.60141 13.1243 9.51875 13.5172 9.60141 13.8973L10.0783 15.9648C10.1037 16.0743 10.1991 16.1516 10.3135 16.1516L12.4117 16.1258C12.7932 16.1194 13.1493 15.9455 13.3909 15.6363ZM16.3286 14.9925H19.7499C20.0837 14.9925 20.3552 15.2676 20.3552 15.6057C20.3552 15.9445 20.0837 16.2189 19.7499 16.2189H16.3286C15.9948 16.2189 15.7233 15.9445 15.7233 15.6057C15.7233 15.2676 15.9948 14.9925 16.3286 14.9925Z" fill="#FFD66B"/>
<path d="M28.8248 14.3262V6.77654H33.6242V7.70407H29.9681V10.0552H33.3007V10.9612H29.9681V13.3986H33.6242V14.3262H28.8248ZM37.1649 14.4556C36.6472 14.4556 36.1906 14.3334 35.7952 14.0889C35.3997 13.8444 35.0905 13.5101 34.8677 13.0859C34.6448 12.6617 34.5333 12.1799 34.5333 11.6407C34.5333 11.1014 34.6448 10.6233 34.8677 10.2062C35.0905 9.78201 35.3997 9.45127 35.7952 9.21399C36.1978 8.96953 36.658 8.8473 37.1757 8.8473C37.5999 8.8473 37.9702 8.92998 38.2866 9.09536C38.6101 9.26073 38.8618 9.49441 39.0415 9.79639V6.56084H40.1847V14.3262H39.1602L39.0415 13.4957C38.869 13.7474 38.6317 13.9703 38.3297 14.1644C38.0277 14.3585 37.6394 14.4556 37.1649 14.4556ZM37.3698 13.4634C37.8587 13.4634 38.2578 13.2944 38.567 12.9565C38.8833 12.6185 39.0415 12.1835 39.0415 11.6514C39.0415 11.1122 38.8833 10.6772 38.567 10.3464C38.2578 10.0085 37.8587 9.83953 37.3698 9.83953C36.8809 9.83953 36.4782 10.0085 36.1619 10.3464C35.8455 10.6772 35.6873 11.1122 35.6873 11.6514C35.6873 12.0038 35.7592 12.3165 35.903 12.5898C36.0468 12.863 36.2446 13.0787 36.4962 13.2369C36.7551 13.3879 37.0463 13.4634 37.3698 13.4634ZM42.0576 7.96291C41.8419 7.96291 41.6621 7.8982 41.5183 7.76878C41.3817 7.63217 41.3134 7.4632 41.3134 7.26187C41.3134 7.06055 41.3817 6.89518 41.5183 6.76576C41.6621 6.62914 41.8419 6.56084 42.0576 6.56084C42.2733 6.56084 42.4494 6.62914 42.5861 6.76576C42.7299 6.89518 42.8018 7.06055 42.8018 7.26187C42.8018 7.4632 42.7299 7.63217 42.5861 7.76878C42.4494 7.8982 42.2733 7.96291 42.0576 7.96291ZM41.486 14.3262V8.97672H42.6292V14.3262H41.486ZM46.166 14.3262C45.6411 14.3262 45.2241 14.2003 44.9149 13.9487C44.6057 13.6898 44.4511 13.2333 44.4511 12.579V9.9366H43.5344V8.97672H44.4511L44.5913 7.61779H45.5944V8.97672H47.1043V9.9366H45.5944V12.579C45.5944 12.8738 45.6555 13.0787 45.7777 13.1937C45.9071 13.3016 46.1264 13.3555 46.4356 13.3555H47.0504V14.3262H46.166Z" fill="#FFC327"/>
</svg>
