<svg width="175" height="146" viewBox="0 0 175 146" fill="none" xmlns="http://www.w3.org/2000/svg">
<g clip-path="url(#clip0_54_1690)">
<path d="M82.5771 43.3831H93.4228C94.9141 43.3831 96.1343 42.1629 96.1343 40.6717V27.1144H100.445C102.859 27.1144 104.079 24.1861 102.371 22.4779L89.9251 10.0324C88.8676 8.97489 87.1594 8.97489 86.1019 10.0324L73.6564 22.4779C71.9482 24.1861 73.1412 27.1144 75.5544 27.1144H79.8656V40.6717C79.8656 42.1629 81.0858 43.3831 82.5771 43.3831ZM71.7313 48.806H104.269C105.76 48.806 106.98 50.0261 106.98 51.5174C106.98 53.0087 105.76 54.2289 104.269 54.2289H71.7313C70.24 54.2289 69.0198 53.0087 69.0198 51.5174C69.0198 50.0261 70.24 48.806 71.7313 48.806Z" fill="#4318FF"/>
</g>
<path d="M47.8394 96.0278C47.018 96.0278 46.2767 95.8678 45.6154 95.5478C44.954 95.2171 44.426 94.7211 44.0314 94.0598C43.6474 93.3985 43.4554 92.5611 43.4554 91.5478V84.6358H45.5034V91.5638C45.5034 92.4385 45.7114 93.0891 46.1274 93.5158C46.554 93.9425 47.1407 94.1558 47.8874 94.1558C48.6234 94.1558 49.2047 93.9425 49.6314 93.5158C50.058 93.0891 50.2714 92.4385 50.2714 91.5638V84.6358H52.3194V91.5478C52.3194 92.5611 52.1167 93.3985 51.7114 94.0598C51.306 94.7211 50.762 95.2171 50.0794 95.5478C49.4074 95.8678 48.6607 96.0278 47.8394 96.0278ZM54.042 99.3558V87.8998H55.866L56.09 89.0358C56.346 88.6838 56.682 88.3745 57.098 88.1078C57.5246 87.8411 58.074 87.7078 58.746 87.7078C59.4926 87.7078 60.1593 87.8891 60.746 88.2518C61.3326 88.6145 61.7966 89.1105 62.138 89.7398C62.4793 90.3691 62.65 91.0838 62.65 91.8838C62.65 92.6838 62.4793 93.3985 62.138 94.0278C61.7966 94.6465 61.3326 95.1371 60.746 95.4998C60.1593 95.8518 59.4926 96.0278 58.746 96.0278C58.1486 96.0278 57.626 95.9158 57.178 95.6918C56.73 95.4678 56.3673 95.1531 56.09 94.7478V99.3558H54.042ZM58.314 94.2358C58.9646 94.2358 59.5033 94.0171 59.93 93.5798C60.3566 93.1425 60.57 92.5771 60.57 91.8838C60.57 91.1905 60.3566 90.6198 59.93 90.1718C59.5033 89.7238 58.9646 89.4998 58.314 89.4998C57.6526 89.4998 57.1086 89.7238 56.682 90.1718C56.266 90.6091 56.058 91.1745 56.058 91.8678C56.058 92.5611 56.266 93.1318 56.682 93.5798C57.1086 94.0171 57.6526 94.2358 58.314 94.2358ZM64.1595 95.8358V84.3158H66.2075V95.8358H64.1595ZM71.7881 96.0278C71.0201 96.0278 70.3268 95.8518 69.7081 95.4998C69.1001 95.1478 68.6148 94.6625 68.2521 94.0438C67.9001 93.4145 67.7241 92.6891 67.7241 91.8678C67.7241 91.0465 67.9054 90.3265 68.2681 89.7078C68.6308 89.0785 69.1161 88.5878 69.7241 88.2358C70.3428 87.8838 71.0361 87.7078 71.8041 87.7078C72.5614 87.7078 73.2441 87.8838 73.8521 88.2358C74.4708 88.5878 74.9561 89.0785 75.3081 89.7078C75.6708 90.3265 75.8521 91.0465 75.8521 91.8678C75.8521 92.6891 75.6708 93.4145 75.3081 94.0438C74.9561 94.6625 74.4708 95.1478 73.8521 95.4998C73.2334 95.8518 72.5454 96.0278 71.7881 96.0278ZM71.7881 94.2518C72.3214 94.2518 72.7854 94.0545 73.1801 93.6598C73.5748 93.2545 73.7721 92.6571 73.7721 91.8678C73.7721 91.0785 73.5748 90.4865 73.1801 90.0918C72.7854 89.6865 72.3268 89.4838 71.8041 89.4838C71.2601 89.4838 70.7908 89.6865 70.3961 90.0918C70.0121 90.4865 69.8201 91.0785 69.8201 91.8678C69.8201 92.6571 70.0121 93.2545 70.3961 93.6598C70.7908 94.0545 71.2548 94.2518 71.7881 94.2518ZM80.0992 96.0278C79.4166 96.0278 78.8566 95.9211 78.4192 95.7078C77.9819 95.4838 77.6566 95.1905 77.4432 94.8278C77.2299 94.4651 77.1232 94.0651 77.1232 93.6278C77.1232 92.8918 77.4112 92.2945 77.9872 91.8358C78.5632 91.3771 79.4272 91.1478 80.5792 91.1478H82.5952V90.9558C82.5952 90.4118 82.4406 90.0118 82.1312 89.7558C81.8219 89.4998 81.4379 89.3718 80.9792 89.3718C80.5632 89.3718 80.2006 89.4731 79.8912 89.6758C79.5819 89.8678 79.3899 90.1558 79.3152 90.5398H77.3152C77.3686 89.9638 77.5606 89.4625 77.8912 89.0358C78.2326 88.6091 78.6699 88.2838 79.2032 88.0598C79.7366 87.8251 80.3339 87.7078 80.9952 87.7078C82.1259 87.7078 83.0166 87.9905 83.6672 88.5558C84.3179 89.1211 84.6432 89.9211 84.6432 90.9558V95.8358H82.8992L82.7072 94.5558C82.4726 94.9825 82.1419 95.3345 81.7152 95.6118C81.2992 95.8891 80.7606 96.0278 80.0992 96.0278ZM80.5632 94.4278C81.1499 94.4278 81.6032 94.2358 81.9232 93.8518C82.2539 93.4678 82.4619 92.9931 82.5472 92.4278H80.8032C80.2592 92.4278 79.8699 92.5291 79.6352 92.7318C79.4006 92.9238 79.2832 93.1638 79.2832 93.4518C79.2832 93.7611 79.4006 94.0011 79.6352 94.1718C79.8699 94.3425 80.1792 94.4278 80.5632 94.4278ZM89.9256 96.0278C89.1789 96.0278 88.5123 95.8465 87.9256 95.4838C87.3389 95.1211 86.8749 94.6251 86.5336 93.9958C86.1923 93.3665 86.0216 92.6518 86.0216 91.8518C86.0216 91.0518 86.1923 90.3425 86.5336 89.7238C86.8749 89.0945 87.3389 88.6038 87.9256 88.2518C88.5123 87.8891 89.1789 87.7078 89.9256 87.7078C90.5229 87.7078 91.0456 87.8198 91.4936 88.0438C91.9416 88.2678 92.3043 88.5825 92.5816 88.9878V84.3158H94.6296V95.8358H92.8056L92.5816 94.6998C92.3256 95.0518 91.9843 95.3611 91.5576 95.6278C91.1416 95.8945 90.5976 96.0278 89.9256 96.0278ZM90.3576 94.2358C91.0189 94.2358 91.5576 94.0171 91.9736 93.5798C92.4003 93.1318 92.6136 92.5611 92.6136 91.8678C92.6136 91.1745 92.4003 90.6091 91.9736 90.1718C91.5576 89.7238 91.0189 89.4998 90.3576 89.4998C89.7069 89.4998 89.1683 89.7185 88.7416 90.1558C88.3149 90.5931 88.1016 91.1585 88.1016 91.8518C88.1016 92.5451 88.3149 93.1158 88.7416 93.5638C89.1683 94.0118 89.7069 94.2358 90.3576 94.2358ZM99.9356 95.8358V84.6358H107.168V86.2838H101.984V89.4198H106.176V91.0358H101.984V95.8358H99.9356ZM109.484 86.6678C109.111 86.6678 108.801 86.5558 108.556 86.3318C108.321 86.1078 108.204 85.8251 108.204 85.4838C108.204 85.1425 108.321 84.8651 108.556 84.6518C108.801 84.4278 109.111 84.3158 109.484 84.3158C109.857 84.3158 110.161 84.4278 110.396 84.6518C110.641 84.8651 110.764 85.1425 110.764 85.4838C110.764 85.8251 110.641 86.1078 110.396 86.3318C110.161 86.5558 109.857 86.6678 109.484 86.6678ZM108.46 95.8358V87.8998H110.508V95.8358H108.46ZM112.326 95.8358V84.3158H114.374V95.8358H112.326ZM120.002 96.0278C119.202 96.0278 118.493 95.8571 117.874 95.5158C117.256 95.1745 116.77 94.6945 116.418 94.0758C116.066 93.4571 115.89 92.7425 115.89 91.9318C115.89 91.1105 116.061 90.3798 116.402 89.7398C116.754 89.0998 117.234 88.6038 117.842 88.2518C118.461 87.8891 119.186 87.7078 120.018 87.7078C120.797 87.7078 121.485 87.8785 122.082 88.2198C122.68 88.5611 123.144 89.0305 123.474 89.6278C123.816 90.2145 123.986 90.8705 123.986 91.5958C123.986 91.7131 123.981 91.8358 123.97 91.9638C123.97 92.0918 123.965 92.2251 123.954 92.3638H117.922C117.965 92.9825 118.178 93.4678 118.562 93.8198C118.957 94.1718 119.432 94.3478 119.986 94.3478C120.402 94.3478 120.749 94.2571 121.026 94.0758C121.314 93.8838 121.528 93.6385 121.666 93.3398H123.746C123.597 93.8411 123.346 94.2998 122.994 94.7158C122.653 95.1211 122.226 95.4411 121.714 95.6758C121.213 95.9105 120.642 96.0278 120.002 96.0278ZM120.018 89.3718C119.517 89.3718 119.074 89.5158 118.69 89.8038C118.306 90.0811 118.061 90.5078 117.954 91.0838H121.906C121.874 90.5611 121.682 90.1451 121.33 89.8358C120.978 89.5265 120.541 89.3718 120.018 89.3718ZM128.669 96.0278C127.965 96.0278 127.346 95.9158 126.813 95.6918C126.28 95.4571 125.853 95.1371 125.533 94.7318C125.213 94.3265 125.021 93.8571 124.957 93.3238H127.021C127.085 93.6331 127.256 93.8998 127.533 94.1238C127.821 94.3371 128.189 94.4438 128.637 94.4438C129.085 94.4438 129.41 94.3531 129.613 94.1718C129.826 93.9905 129.933 93.7825 129.933 93.5478C129.933 93.2065 129.784 92.9771 129.485 92.8598C129.186 92.7318 128.77 92.6091 128.237 92.4918C127.896 92.4171 127.549 92.3265 127.197 92.2198C126.845 92.1131 126.52 91.9798 126.221 91.8198C125.933 91.6491 125.698 91.4358 125.517 91.1798C125.336 90.9131 125.245 90.5878 125.245 90.2038C125.245 89.4998 125.522 88.9078 126.077 88.4278C126.642 87.9478 127.432 87.7078 128.445 87.7078C129.384 87.7078 130.13 87.9265 130.685 88.3638C131.25 88.8011 131.586 89.4038 131.693 90.1718H129.757C129.64 89.5851 129.197 89.2918 128.429 89.2918C128.045 89.2918 127.746 89.3665 127.533 89.5158C127.33 89.6651 127.229 89.8518 127.229 90.0758C127.229 90.3105 127.384 90.4971 127.693 90.6358C128.002 90.7745 128.413 90.9025 128.925 91.0198C129.48 91.1478 129.986 91.2918 130.445 91.4518C130.914 91.6011 131.288 91.8305 131.565 92.1398C131.842 92.4385 131.981 92.8705 131.981 93.4358C131.992 93.9265 131.864 94.3691 131.597 94.7638C131.33 95.1585 130.946 95.4678 130.445 95.6918C129.944 95.9158 129.352 96.0278 128.669 96.0278Z" fill="#4318FF"/>
<path d="M18.309 120.537V112.137H21.249C21.905 112.137 22.449 112.249 22.881 112.473C23.313 112.689 23.633 112.989 23.841 113.373C24.057 113.749 24.165 114.177 24.165 114.657C24.165 115.113 24.061 115.533 23.853 115.917C23.653 116.293 23.337 116.593 22.905 116.817C22.473 117.041 21.921 117.153 21.249 117.153H19.581V120.537H18.309ZM19.581 116.109H21.189C21.789 116.109 22.217 115.981 22.473 115.725C22.737 115.461 22.869 115.105 22.869 114.657C22.869 114.193 22.737 113.833 22.473 113.577C22.217 113.313 21.789 113.181 21.189 113.181H19.581V116.109ZM25.1823 120.537V112.137H26.4543L30.6663 118.461V112.137H31.9383V120.537H30.6663L26.4543 114.213V120.537H25.1823ZM37.0513 120.681C36.2593 120.681 35.5673 120.501 34.9753 120.141C34.3833 119.781 33.9233 119.277 33.5953 118.629C33.2673 117.981 33.1033 117.225 33.1033 116.361C33.1033 115.505 33.2713 114.749 33.6073 114.093C33.9433 113.437 34.4193 112.925 35.0353 112.557C35.6593 112.181 36.3953 111.993 37.2433 111.993C38.2033 111.993 39.0033 112.225 39.6433 112.689C40.2833 113.153 40.6993 113.793 40.8913 114.609H39.4513C39.3233 114.161 39.0713 113.809 38.6953 113.553C38.3193 113.297 37.8353 113.169 37.2433 113.169C36.3633 113.169 35.6713 113.453 35.1673 114.021C34.6633 114.589 34.4113 115.373 34.4113 116.373C34.4113 117.373 34.6593 118.153 35.1553 118.713C35.6513 119.273 36.3113 119.553 37.1353 119.553C37.9673 119.553 38.5913 119.317 39.0073 118.845C39.4313 118.373 39.6793 117.745 39.7513 116.961H37.4713V115.977H41.0353V120.537H39.8713L39.7633 119.301C39.4833 119.741 39.1313 120.081 38.7073 120.321C38.2833 120.561 37.7313 120.681 37.0513 120.681ZM41.583 121.953L42.279 119.121H43.539L42.435 121.953H41.583ZM49.3597 120.681C48.5757 120.681 47.9517 120.461 47.4877 120.021C47.0317 119.581 46.8037 118.961 46.8037 118.161H48.0757C48.0757 118.561 48.1717 118.893 48.3637 119.157C48.5637 119.421 48.8877 119.553 49.3357 119.553C49.7757 119.553 50.0877 119.429 50.2717 119.181C50.4557 118.925 50.5477 118.601 50.5477 118.209V112.137H51.8197V118.209C51.8197 119.001 51.5997 119.613 51.1597 120.045C50.7197 120.469 50.1197 120.681 49.3597 120.681ZM53.2792 120.537V112.137H56.2192C56.8752 112.137 57.4192 112.249 57.8512 112.473C58.2832 112.689 58.6032 112.989 58.8112 113.373C59.0272 113.749 59.1352 114.177 59.1352 114.657C59.1352 115.113 59.0312 115.533 58.8232 115.917C58.6232 116.293 58.3072 116.593 57.8752 116.817C57.4432 117.041 56.8912 117.153 56.2192 117.153H54.5512V120.537H53.2792ZM54.5512 116.109H56.1592C56.7592 116.109 57.1872 115.981 57.4432 115.725C57.7072 115.461 57.8392 115.105 57.8392 114.657C57.8392 114.193 57.7072 113.833 57.4432 113.577C57.1872 113.313 56.7592 113.181 56.1592 113.181H54.5512V116.109ZM63.8005 120.681C63.0085 120.681 62.3165 120.501 61.7245 120.141C61.1325 119.781 60.6725 119.277 60.3445 118.629C60.0165 117.981 59.8525 117.225 59.8525 116.361C59.8525 115.505 60.0205 114.749 60.3565 114.093C60.6925 113.437 61.1685 112.925 61.7845 112.557C62.4085 112.181 63.1445 111.993 63.9925 111.993C64.9525 111.993 65.7525 112.225 66.3925 112.689C67.0325 113.153 67.4485 113.793 67.6405 114.609H66.2005C66.0725 114.161 65.8205 113.809 65.4445 113.553C65.0685 113.297 64.5845 113.169 63.9925 113.169C63.1125 113.169 62.4205 113.453 61.9165 114.021C61.4125 114.589 61.1605 115.373 61.1605 116.373C61.1605 117.373 61.4085 118.153 61.9045 118.713C62.4005 119.273 63.0605 119.553 63.8845 119.553C64.7165 119.553 65.3405 119.317 65.7565 118.845C66.1805 118.373 66.4285 117.745 66.5005 116.961H64.2205V115.977H67.7845V120.537H66.6205L66.5125 119.301C66.2325 119.741 65.8805 120.081 65.4565 120.321C65.0325 120.561 64.4805 120.681 63.8005 120.681ZM73.8397 120.681C73.3357 120.681 72.9197 120.597 72.5917 120.429C72.2637 120.261 72.0197 120.041 71.8597 119.769C71.6997 119.489 71.6197 119.185 71.6197 118.857C71.6197 118.281 71.8437 117.825 72.2917 117.489C72.7397 117.153 73.3797 116.985 74.2117 116.985H75.7717V116.877C75.7717 116.413 75.6437 116.065 75.3877 115.833C75.1397 115.601 74.8157 115.485 74.4157 115.485C74.0637 115.485 73.7557 115.573 73.4917 115.749C73.2357 115.917 73.0797 116.169 73.0237 116.505H71.7517C71.7917 116.073 71.9357 115.705 72.1837 115.401C72.4397 115.089 72.7597 114.853 73.1437 114.693C73.5357 114.525 73.9637 114.441 74.4277 114.441C75.2597 114.441 75.9037 114.661 76.3597 115.101C76.8157 115.533 77.0437 116.125 77.0437 116.877V120.537H75.9397L75.8317 119.517C75.6637 119.845 75.4197 120.121 75.0997 120.345C74.7797 120.569 74.3597 120.681 73.8397 120.681ZM74.0917 119.649C74.4357 119.649 74.7237 119.569 74.9557 119.409C75.1957 119.241 75.3797 119.021 75.5077 118.749C75.6437 118.477 75.7277 118.177 75.7597 117.849H74.3437C73.8397 117.849 73.4797 117.937 73.2637 118.113C73.0557 118.289 72.9517 118.509 72.9517 118.773C72.9517 119.045 73.0517 119.261 73.2517 119.421C73.4597 119.573 73.7397 119.649 74.0917 119.649ZM78.2868 120.537V114.585H79.4148L79.5108 115.629C79.6948 115.261 79.9628 114.973 80.3148 114.765C80.6748 114.549 81.0868 114.441 81.5508 114.441C82.2708 114.441 82.8348 114.665 83.2428 115.113C83.6588 115.561 83.8668 116.229 83.8668 117.117V120.537H82.6068V117.249C82.6068 116.097 82.1348 115.521 81.1908 115.521C80.7188 115.521 80.3268 115.689 80.0148 116.025C79.7108 116.361 79.5588 116.841 79.5588 117.465V120.537H78.2868ZM87.8369 120.681C87.2609 120.681 86.7529 120.545 86.3129 120.273C85.8729 120.001 85.5289 119.629 85.2809 119.157C85.0329 118.685 84.9089 118.149 84.9089 117.549C84.9089 116.949 85.0329 116.417 85.2809 115.953C85.5289 115.481 85.8729 115.113 86.3129 114.849C86.7609 114.577 87.2729 114.441 87.8489 114.441C88.3209 114.441 88.7329 114.533 89.0849 114.717C89.4449 114.901 89.7249 115.161 89.9249 115.497V111.897H91.1969V120.537H90.0569L89.9249 119.613C89.7329 119.893 89.4689 120.141 89.1329 120.357C88.7969 120.573 88.3649 120.681 87.8369 120.681ZM88.0649 119.577C88.6089 119.577 89.0529 119.389 89.3969 119.013C89.7489 118.637 89.9249 118.153 89.9249 117.561C89.9249 116.961 89.7489 116.477 89.3969 116.109C89.0529 115.733 88.6089 115.545 88.0649 115.545C87.5209 115.545 87.0729 115.733 86.7209 116.109C86.3689 116.477 86.1929 116.961 86.1929 117.561C86.1929 117.953 86.2729 118.301 86.4329 118.605C86.5929 118.909 86.8129 119.149 87.0929 119.325C87.3809 119.493 87.7049 119.577 88.0649 119.577ZM99.0402 120.681C98.2482 120.681 97.5562 120.501 96.9642 120.141C96.3722 119.781 95.9122 119.277 95.5842 118.629C95.2562 117.981 95.0922 117.225 95.0922 116.361C95.0922 115.505 95.2602 114.749 95.5962 114.093C95.9322 113.437 96.4082 112.925 97.0242 112.557C97.6482 112.181 98.3842 111.993 99.2322 111.993C100.192 111.993 100.992 112.225 101.632 112.689C102.272 113.153 102.688 113.793 102.88 114.609H101.44C101.312 114.161 101.06 113.809 100.684 113.553C100.308 113.297 99.8242 113.169 99.2322 113.169C98.3522 113.169 97.6602 113.453 97.1562 114.021C96.6522 114.589 96.4002 115.373 96.4002 116.373C96.4002 117.373 96.6482 118.153 97.1442 118.713C97.6402 119.273 98.3002 119.553 99.1242 119.553C99.9562 119.553 100.58 119.317 100.996 118.845C101.42 118.373 101.668 117.745 101.74 116.961H99.4602V115.977H103.024V120.537H101.86L101.752 119.301C101.472 119.741 101.12 120.081 100.696 120.321C100.272 120.561 99.7202 120.681 99.0402 120.681ZM104.328 120.537V112.137H105.6V120.537H104.328ZM107.065 120.537V112.137H112.333V113.169H108.337V115.821H111.649V116.841H108.337V120.537H107.065ZM116.376 120.537V115.653H115.524V114.585H116.376V113.721C116.376 113.073 116.536 112.609 116.856 112.329C117.184 112.041 117.644 111.897 118.236 111.897H118.86V112.977H118.428C118.148 112.977 117.948 113.037 117.828 113.157C117.708 113.269 117.648 113.461 117.648 113.733V114.585H121.416V120.537H120.144V115.653H117.648V120.537H116.376ZM120.792 113.589C120.552 113.589 120.352 113.517 120.192 113.373C120.04 113.221 119.964 113.029 119.964 112.797C119.964 112.573 120.04 112.389 120.192 112.245C120.352 112.101 120.552 112.029 120.792 112.029C121.032 112.029 121.228 112.101 121.38 112.245C121.54 112.389 121.62 112.573 121.62 112.797C121.62 113.029 121.54 113.221 121.38 113.373C121.228 113.517 121.032 113.589 120.792 113.589ZM122.867 120.537V111.897H124.139V120.537H122.867ZM128.294 120.681C127.71 120.681 127.19 120.553 126.734 120.297C126.286 120.033 125.934 119.669 125.678 119.205C125.422 118.741 125.294 118.201 125.294 117.585C125.294 116.961 125.418 116.413 125.666 115.941C125.922 115.469 126.274 115.101 126.722 114.837C127.178 114.573 127.706 114.441 128.306 114.441C128.89 114.441 129.398 114.573 129.83 114.837C130.262 115.093 130.598 115.437 130.838 115.869C131.078 116.301 131.198 116.777 131.198 117.297C131.198 117.377 131.194 117.465 131.186 117.561C131.186 117.649 131.182 117.749 131.174 117.861H126.542C126.582 118.437 126.77 118.877 127.106 119.181C127.45 119.477 127.846 119.625 128.294 119.625C128.654 119.625 128.954 119.545 129.194 119.385C129.442 119.217 129.626 118.993 129.746 118.713H131.018C130.858 119.273 130.538 119.741 130.058 120.117C129.586 120.493 128.998 120.681 128.294 120.681ZM128.294 115.485C127.87 115.485 127.494 115.613 127.166 115.869C126.838 116.117 126.638 116.493 126.566 116.997H129.926C129.902 116.533 129.738 116.165 129.434 115.893C129.13 115.621 128.75 115.485 128.294 115.485ZM134.653 120.681C133.901 120.681 133.281 120.497 132.793 120.129C132.305 119.761 132.025 119.273 131.953 118.665H133.237C133.301 118.937 133.453 119.173 133.693 119.373C133.933 119.565 134.249 119.661 134.641 119.661C135.025 119.661 135.305 119.581 135.481 119.421C135.657 119.261 135.745 119.077 135.745 118.869C135.745 118.565 135.621 118.361 135.373 118.257C135.133 118.145 134.797 118.045 134.365 117.957C134.029 117.885 133.693 117.789 133.357 117.669C133.029 117.549 132.753 117.381 132.529 117.165C132.313 116.941 132.205 116.641 132.205 116.265C132.205 115.745 132.405 115.313 132.805 114.969C133.205 114.617 133.765 114.441 134.485 114.441C135.149 114.441 135.685 114.601 136.093 114.921C136.509 115.241 136.753 115.693 136.825 116.277H135.601C135.561 116.021 135.441 115.821 135.241 115.677C135.049 115.533 134.789 115.461 134.461 115.461C134.141 115.461 133.893 115.529 133.717 115.665C133.541 115.793 133.453 115.961 133.453 116.169C133.453 116.377 133.573 116.541 133.813 116.661C134.061 116.781 134.385 116.889 134.785 116.985C135.185 117.073 135.553 117.177 135.889 117.297C136.233 117.409 136.509 117.577 136.717 117.801C136.925 118.025 137.029 118.353 137.029 118.785C137.037 119.329 136.825 119.781 136.393 120.141C135.969 120.501 135.389 120.681 134.653 120.681ZM142.978 120.681C142.474 120.681 142.058 120.597 141.73 120.429C141.402 120.261 141.158 120.041 140.998 119.769C140.838 119.489 140.758 119.185 140.758 118.857C140.758 118.281 140.982 117.825 141.43 117.489C141.878 117.153 142.518 116.985 143.35 116.985H144.91V116.877C144.91 116.413 144.782 116.065 144.526 115.833C144.278 115.601 143.954 115.485 143.554 115.485C143.202 115.485 142.894 115.573 142.63 115.749C142.374 115.917 142.218 116.169 142.162 116.505H140.89C140.93 116.073 141.074 115.705 141.322 115.401C141.578 115.089 141.898 114.853 142.282 114.693C142.674 114.525 143.102 114.441 143.566 114.441C144.398 114.441 145.042 114.661 145.498 115.101C145.954 115.533 146.182 116.125 146.182 116.877V120.537H145.078L144.97 119.517C144.802 119.845 144.558 120.121 144.238 120.345C143.918 120.569 143.498 120.681 142.978 120.681ZM143.23 119.649C143.574 119.649 143.862 119.569 144.094 119.409C144.334 119.241 144.518 119.021 144.646 118.749C144.782 118.477 144.866 118.177 144.898 117.849H143.482C142.978 117.849 142.618 117.937 142.402 118.113C142.194 118.289 142.09 118.509 142.09 118.773C142.09 119.045 142.19 119.261 142.39 119.421C142.598 119.573 142.878 119.649 143.23 119.649ZM147.425 120.537V114.585H148.565L148.673 115.713C148.881 115.321 149.169 115.013 149.537 114.789C149.913 114.557 150.365 114.441 150.893 114.441V115.773H150.545C150.193 115.773 149.877 115.833 149.597 115.953C149.325 116.065 149.105 116.261 148.937 116.541C148.777 116.813 148.697 117.193 148.697 117.681V120.537H147.425ZM154.363 120.681C153.779 120.681 153.259 120.553 152.803 120.297C152.355 120.033 152.003 119.669 151.747 119.205C151.491 118.741 151.363 118.201 151.363 117.585C151.363 116.961 151.487 116.413 151.735 115.941C151.991 115.469 152.343 115.101 152.791 114.837C153.247 114.573 153.775 114.441 154.375 114.441C154.959 114.441 155.467 114.573 155.899 114.837C156.331 115.093 156.667 115.437 156.907 115.869C157.147 116.301 157.267 116.777 157.267 117.297C157.267 117.377 157.263 117.465 157.255 117.561C157.255 117.649 157.251 117.749 157.243 117.861H152.611C152.651 118.437 152.839 118.877 153.175 119.181C153.519 119.477 153.915 119.625 154.363 119.625C154.723 119.625 155.023 119.545 155.263 119.385C155.511 119.217 155.695 118.993 155.815 118.713H157.087C156.927 119.273 156.607 119.741 156.127 120.117C155.655 120.493 155.067 120.681 154.363 120.681ZM154.363 115.485C153.939 115.485 153.563 115.613 153.235 115.869C152.907 116.117 152.707 116.493 152.635 116.997H155.995C155.971 116.533 155.807 116.165 155.503 115.893C155.199 115.621 154.819 115.485 154.363 115.485ZM69.4248 140.681C68.9208 140.681 68.5048 140.597 68.1768 140.429C67.8488 140.261 67.6048 140.041 67.4448 139.769C67.2848 139.489 67.2048 139.185 67.2048 138.857C67.2048 138.281 67.4288 137.825 67.8768 137.489C68.3248 137.153 68.9648 136.985 69.7968 136.985H71.3568V136.877C71.3568 136.413 71.2288 136.065 70.9728 135.833C70.7248 135.601 70.4008 135.485 70.0008 135.485C69.6488 135.485 69.3408 135.573 69.0768 135.749C68.8208 135.917 68.6648 136.169 68.6088 136.505H67.3368C67.3768 136.073 67.5208 135.705 67.7688 135.401C68.0248 135.089 68.3448 134.853 68.7288 134.693C69.1208 134.525 69.5488 134.441 70.0128 134.441C70.8448 134.441 71.4888 134.661 71.9448 135.101C72.4008 135.533 72.6288 136.125 72.6288 136.877V140.537H71.5248L71.4168 139.517C71.2488 139.845 71.0048 140.121 70.6848 140.345C70.3648 140.569 69.9448 140.681 69.4248 140.681ZM69.6768 139.649C70.0208 139.649 70.3088 139.569 70.5408 139.409C70.7808 139.241 70.9648 139.021 71.0928 138.749C71.2288 138.477 71.3128 138.177 71.3448 137.849H69.9288C69.4248 137.849 69.0648 137.937 68.8488 138.113C68.6408 138.289 68.5368 138.509 68.5368 138.773C68.5368 139.045 68.6368 139.261 68.8368 139.421C69.0448 139.573 69.3248 139.649 69.6768 139.649ZM73.8719 140.537V131.897H75.1439V140.537H73.8719ZM76.5147 140.537V131.897H77.7867V140.537H76.5147ZM81.9415 140.681C81.3735 140.681 80.8615 140.553 80.4055 140.297C79.9575 140.033 79.6015 139.669 79.3375 139.205C79.0735 138.733 78.9415 138.185 78.9415 137.561C78.9415 136.937 79.0735 136.393 79.3375 135.929C79.6095 135.457 79.9735 135.093 80.4295 134.837C80.8855 134.573 81.3935 134.441 81.9535 134.441C82.5215 134.441 83.0295 134.573 83.4775 134.837C83.9335 135.093 84.2935 135.457 84.5575 135.929C84.8295 136.393 84.9655 136.937 84.9655 137.561C84.9655 138.185 84.8295 138.733 84.5575 139.205C84.2935 139.669 83.9335 140.033 83.4775 140.297C83.0215 140.553 82.5095 140.681 81.9415 140.681ZM81.9415 139.589C82.2455 139.589 82.5255 139.513 82.7815 139.361C83.0455 139.209 83.2575 138.985 83.4175 138.689C83.5775 138.385 83.6575 138.009 83.6575 137.561C83.6575 137.113 83.5775 136.741 83.4175 136.445C83.2655 136.141 83.0575 135.913 82.7935 135.761C82.5375 135.609 82.2575 135.533 81.9535 135.533C81.6495 135.533 81.3655 135.609 81.1015 135.761C80.8455 135.913 80.6375 136.141 80.4775 136.445C80.3175 136.741 80.2375 137.113 80.2375 137.561C80.2375 138.009 80.3175 138.385 80.4775 138.689C80.6375 138.985 80.8455 139.209 81.1015 139.361C81.3575 139.513 81.6375 139.589 81.9415 139.589ZM87.0665 140.537L85.3145 134.585H86.5865L87.7385 139.073L89.0345 134.585H90.4505L91.7465 139.073L92.8985 134.585H94.1705L92.4185 140.537H91.1105L89.7425 135.857L88.3745 140.537H87.0665ZM97.5396 140.681C96.9556 140.681 96.4356 140.553 95.9796 140.297C95.5316 140.033 95.1796 139.669 94.9236 139.205C94.6676 138.741 94.5396 138.201 94.5396 137.585C94.5396 136.961 94.6636 136.413 94.9116 135.941C95.1676 135.469 95.5196 135.101 95.9676 134.837C96.4236 134.573 96.9516 134.441 97.5516 134.441C98.1356 134.441 98.6436 134.573 99.0756 134.837C99.5076 135.093 99.8436 135.437 100.084 135.869C100.324 136.301 100.444 136.777 100.444 137.297C100.444 137.377 100.44 137.465 100.432 137.561C100.432 137.649 100.428 137.749 100.42 137.861H95.7876C95.8276 138.437 96.0156 138.877 96.3516 139.181C96.6956 139.477 97.0916 139.625 97.5396 139.625C97.8996 139.625 98.1996 139.545 98.4396 139.385C98.6876 139.217 98.8716 138.993 98.9916 138.713H100.264C100.104 139.273 99.7836 139.741 99.3036 140.117C98.8316 140.493 98.2436 140.681 97.5396 140.681ZM97.5396 135.485C97.1156 135.485 96.7396 135.613 96.4116 135.869C96.0836 136.117 95.8836 136.493 95.8116 136.997H99.1716C99.1476 136.533 98.9836 136.165 98.6796 135.893C98.3756 135.621 97.9956 135.485 97.5396 135.485ZM104.235 140.681C103.659 140.681 103.151 140.545 102.711 140.273C102.271 140.001 101.927 139.629 101.679 139.157C101.431 138.685 101.307 138.149 101.307 137.549C101.307 136.949 101.431 136.417 101.679 135.953C101.927 135.481 102.271 135.113 102.711 134.849C103.159 134.577 103.671 134.441 104.247 134.441C104.719 134.441 105.131 134.533 105.483 134.717C105.843 134.901 106.123 135.161 106.323 135.497V131.897H107.595V140.537H106.455L106.323 139.613C106.131 139.893 105.867 140.141 105.531 140.357C105.195 140.573 104.763 140.681 104.235 140.681ZM104.463 139.577C105.007 139.577 105.451 139.389 105.795 139.013C106.147 138.637 106.323 138.153 106.323 137.561C106.323 136.961 106.147 136.477 105.795 136.109C105.451 135.733 105.007 135.545 104.463 135.545C103.919 135.545 103.471 135.733 103.119 136.109C102.767 136.477 102.591 136.961 102.591 137.561C102.591 137.953 102.671 138.301 102.831 138.605C102.991 138.909 103.211 139.149 103.491 139.325C103.779 139.493 104.103 139.577 104.463 139.577Z" fill="#8F9BBA"/>
<defs>
<clipPath id="clip0_54_1690">
<rect width="65.0746" height="65.0746" fill="white" transform="translate(55.4626)"/>
</clipPath>
</defs>
</svg>
