<svg width="218" height="222" viewBox="0 0 218 222" fill="none" xmlns="http://www.w3.org/2000/svg">
<rect x="0.5" y="0.5" width="217" height="221" rx="12.5" fill="#FAFCFE" stroke="#E0E5F2" stroke-dasharray="10 10"/>
<g clip-path="url(#clip0_1_1310)">
<path d="M103.577 89.3831H114.423C115.914 89.3831 117.134 88.163 117.134 86.6717V73.1144H121.445C123.859 73.1144 125.079 70.1861 123.371 68.4779L110.925 56.0324C109.868 54.9749 108.159 54.9749 107.102 56.0324L94.6563 68.4779C92.9481 70.1861 94.1412 73.1144 96.5544 73.1144H100.866V86.6717C100.866 88.163 102.086 89.3831 103.577 89.3831ZM92.7312 94.806H125.269C126.76 94.806 127.98 96.0261 127.98 97.5174C127.98 99.0087 126.76 100.229 125.269 100.229H92.7312C91.2399 100.229 90.0198 99.0087 90.0198 97.5174C90.0198 96.0261 91.2399 94.806 92.7312 94.806Z" fill="#4318FF"/>
</g>
<path d="M68.8394 142.028C68.018 142.028 67.2767 141.868 66.6154 141.548C65.954 141.217 65.426 140.721 65.0314 140.06C64.6474 139.398 64.4554 138.561 64.4554 137.548V130.636H66.5034V137.564C66.5034 138.438 66.7114 139.089 67.1274 139.516C67.554 139.942 68.1407 140.156 68.8874 140.156C69.6234 140.156 70.2047 139.942 70.6314 139.516C71.058 139.089 71.2714 138.438 71.2714 137.564V130.636H73.3194V137.548C73.3194 138.561 73.1167 139.398 72.7114 140.06C72.306 140.721 71.762 141.217 71.0794 141.548C70.4074 141.868 69.6607 142.028 68.8394 142.028ZM75.042 145.356V133.9H76.866L77.09 135.036C77.346 134.684 77.682 134.374 78.098 134.108C78.5246 133.841 79.074 133.708 79.746 133.708C80.4926 133.708 81.1593 133.889 81.746 134.252C82.3326 134.614 82.7966 135.11 83.138 135.74C83.4793 136.369 83.65 137.084 83.65 137.884C83.65 138.684 83.4793 139.398 83.138 140.028C82.7966 140.646 82.3326 141.137 81.746 141.5C81.1593 141.852 80.4926 142.028 79.746 142.028C79.1486 142.028 78.626 141.916 78.178 141.692C77.73 141.468 77.3673 141.153 77.09 140.748V145.356H75.042ZM79.314 140.236C79.9646 140.236 80.5033 140.017 80.93 139.58C81.3566 139.142 81.57 138.577 81.57 137.884C81.57 137.19 81.3566 136.62 80.93 136.172C80.5033 135.724 79.9646 135.5 79.314 135.5C78.6526 135.5 78.1086 135.724 77.682 136.172C77.266 136.609 77.058 137.174 77.058 137.868C77.058 138.561 77.266 139.132 77.682 139.58C78.1086 140.017 78.6526 140.236 79.314 140.236ZM85.1595 141.836V130.316H87.2075V141.836H85.1595ZM92.7881 142.028C92.0201 142.028 91.3268 141.852 90.7081 141.5C90.1001 141.148 89.6148 140.662 89.2521 140.044C88.9001 139.414 88.7241 138.689 88.7241 137.868C88.7241 137.046 88.9054 136.326 89.2681 135.708C89.6308 135.078 90.1161 134.588 90.7241 134.236C91.3428 133.884 92.0361 133.708 92.8041 133.708C93.5614 133.708 94.2441 133.884 94.8521 134.236C95.4708 134.588 95.9561 135.078 96.3081 135.708C96.6708 136.326 96.8521 137.046 96.8521 137.868C96.8521 138.689 96.6708 139.414 96.3081 140.044C95.9561 140.662 95.4708 141.148 94.8521 141.5C94.2334 141.852 93.5454 142.028 92.7881 142.028ZM92.7881 140.252C93.3214 140.252 93.7854 140.054 94.1801 139.66C94.5748 139.254 94.7721 138.657 94.7721 137.868C94.7721 137.078 94.5748 136.486 94.1801 136.092C93.7854 135.686 93.3268 135.484 92.8041 135.484C92.2601 135.484 91.7908 135.686 91.3961 136.092C91.0121 136.486 90.8201 137.078 90.8201 137.868C90.8201 138.657 91.0121 139.254 91.3961 139.66C91.7908 140.054 92.2548 140.252 92.7881 140.252ZM101.099 142.028C100.417 142.028 99.8566 141.921 99.4192 141.708C98.9819 141.484 98.6566 141.19 98.4432 140.828C98.2299 140.465 98.1232 140.065 98.1232 139.628C98.1232 138.892 98.4112 138.294 98.9872 137.836C99.5632 137.377 100.427 137.148 101.579 137.148H103.595V136.956C103.595 136.412 103.441 136.012 103.131 135.756C102.822 135.5 102.438 135.372 101.979 135.372C101.563 135.372 101.201 135.473 100.891 135.676C100.582 135.868 100.39 136.156 100.315 136.54H98.3152C98.3686 135.964 98.5606 135.462 98.8912 135.036C99.2326 134.609 99.6699 134.284 100.203 134.06C100.737 133.825 101.334 133.708 101.995 133.708C103.126 133.708 104.017 133.99 104.667 134.556C105.318 135.121 105.643 135.921 105.643 136.956V141.836H103.899L103.707 140.556C103.473 140.982 103.142 141.334 102.715 141.612C102.299 141.889 101.761 142.028 101.099 142.028ZM101.563 140.428C102.15 140.428 102.603 140.236 102.923 139.852C103.254 139.468 103.462 138.993 103.547 138.428H101.803C101.259 138.428 100.87 138.529 100.635 138.732C100.401 138.924 100.283 139.164 100.283 139.452C100.283 139.761 100.401 140.001 100.635 140.172C100.87 140.342 101.179 140.428 101.563 140.428ZM110.926 142.028C110.179 142.028 109.512 141.846 108.926 141.484C108.339 141.121 107.875 140.625 107.534 139.996C107.192 139.366 107.022 138.652 107.022 137.852C107.022 137.052 107.192 136.342 107.534 135.724C107.875 135.094 108.339 134.604 108.926 134.252C109.512 133.889 110.179 133.708 110.926 133.708C111.523 133.708 112.046 133.82 112.494 134.044C112.942 134.268 113.304 134.582 113.582 134.988V130.316H115.63V141.836H113.806L113.582 140.7C113.326 141.052 112.984 141.361 112.558 141.628C112.142 141.894 111.598 142.028 110.926 142.028ZM111.358 140.236C112.019 140.236 112.558 140.017 112.974 139.58C113.4 139.132 113.614 138.561 113.614 137.868C113.614 137.174 113.4 136.609 112.974 136.172C112.558 135.724 112.019 135.5 111.358 135.5C110.707 135.5 110.168 135.718 109.742 136.156C109.315 136.593 109.102 137.158 109.102 137.852C109.102 138.545 109.315 139.116 109.742 139.564C110.168 140.012 110.707 140.236 111.358 140.236ZM120.936 141.836V130.636H128.168V132.284H122.984V135.42H127.176V137.036H122.984V141.836H120.936ZM130.484 132.668C130.111 132.668 129.801 132.556 129.556 132.332C129.321 132.108 129.204 131.825 129.204 131.484C129.204 131.142 129.321 130.865 129.556 130.652C129.801 130.428 130.111 130.316 130.484 130.316C130.857 130.316 131.161 130.428 131.396 130.652C131.641 130.865 131.764 131.142 131.764 131.484C131.764 131.825 131.641 132.108 131.396 132.332C131.161 132.556 130.857 132.668 130.484 132.668ZM129.46 141.836V133.9H131.508V141.836H129.46ZM133.326 141.836V130.316H135.374V141.836H133.326ZM141.002 142.028C140.202 142.028 139.493 141.857 138.874 141.516C138.256 141.174 137.77 140.694 137.418 140.076C137.066 139.457 136.89 138.742 136.89 137.932C136.89 137.11 137.061 136.38 137.402 135.74C137.754 135.1 138.234 134.604 138.842 134.252C139.461 133.889 140.186 133.708 141.018 133.708C141.797 133.708 142.485 133.878 143.082 134.22C143.68 134.561 144.144 135.03 144.474 135.628C144.816 136.214 144.986 136.87 144.986 137.596C144.986 137.713 144.981 137.836 144.97 137.964C144.97 138.092 144.965 138.225 144.954 138.364H138.922C138.965 138.982 139.178 139.468 139.562 139.82C139.957 140.172 140.432 140.348 140.986 140.348C141.402 140.348 141.749 140.257 142.026 140.076C142.314 139.884 142.528 139.638 142.666 139.34H144.746C144.597 139.841 144.346 140.3 143.994 140.716C143.653 141.121 143.226 141.441 142.714 141.676C142.213 141.91 141.642 142.028 141.002 142.028ZM141.018 135.372C140.517 135.372 140.074 135.516 139.69 135.804C139.306 136.081 139.061 136.508 138.954 137.084H142.906C142.874 136.561 142.682 136.145 142.33 135.836C141.978 135.526 141.541 135.372 141.018 135.372ZM149.669 142.028C148.965 142.028 148.346 141.916 147.813 141.692C147.28 141.457 146.853 141.137 146.533 140.732C146.213 140.326 146.021 139.857 145.957 139.324H148.021C148.085 139.633 148.256 139.9 148.533 140.124C148.821 140.337 149.189 140.444 149.637 140.444C150.085 140.444 150.41 140.353 150.613 140.172C150.826 139.99 150.933 139.782 150.933 139.548C150.933 139.206 150.784 138.977 150.485 138.86C150.186 138.732 149.77 138.609 149.237 138.492C148.896 138.417 148.549 138.326 148.197 138.22C147.845 138.113 147.52 137.98 147.221 137.82C146.933 137.649 146.698 137.436 146.517 137.18C146.336 136.913 146.245 136.588 146.245 136.204C146.245 135.5 146.522 134.908 147.077 134.428C147.642 133.948 148.432 133.708 149.445 133.708C150.384 133.708 151.13 133.926 151.685 134.364C152.25 134.801 152.586 135.404 152.693 136.172H150.757C150.64 135.585 150.197 135.292 149.429 135.292C149.045 135.292 148.746 135.366 148.533 135.516C148.33 135.665 148.229 135.852 148.229 136.076C148.229 136.31 148.384 136.497 148.693 136.636C149.002 136.774 149.413 136.902 149.925 137.02C150.48 137.148 150.986 137.292 151.445 137.452C151.914 137.601 152.288 137.83 152.565 138.14C152.842 138.438 152.981 138.87 152.981 139.436C152.992 139.926 152.864 140.369 152.597 140.764C152.33 141.158 151.946 141.468 151.445 141.692C150.944 141.916 150.352 142.028 149.669 142.028Z" fill="#4318FF"/>
<path d="M39.309 166.537V158.137H42.249C42.905 158.137 43.449 158.249 43.881 158.473C44.313 158.689 44.633 158.989 44.841 159.373C45.057 159.749 45.165 160.177 45.165 160.657C45.165 161.113 45.061 161.533 44.853 161.917C44.653 162.293 44.337 162.593 43.905 162.817C43.473 163.041 42.921 163.153 42.249 163.153H40.581V166.537H39.309ZM40.581 162.109H42.189C42.789 162.109 43.217 161.981 43.473 161.725C43.737 161.461 43.869 161.105 43.869 160.657C43.869 160.193 43.737 159.833 43.473 159.577C43.217 159.313 42.789 159.181 42.189 159.181H40.581V162.109ZM46.1823 166.537V158.137H47.4543L51.6663 164.461V158.137H52.9383V166.537H51.6663L47.4543 160.213V166.537H46.1823ZM58.0513 166.681C57.2593 166.681 56.5673 166.501 55.9753 166.141C55.3833 165.781 54.9233 165.277 54.5953 164.629C54.2673 163.981 54.1033 163.225 54.1033 162.361C54.1033 161.505 54.2713 160.749 54.6073 160.093C54.9433 159.437 55.4193 158.925 56.0353 158.557C56.6593 158.181 57.3953 157.993 58.2433 157.993C59.2033 157.993 60.0033 158.225 60.6433 158.689C61.2833 159.153 61.6993 159.793 61.8913 160.609H60.4513C60.3233 160.161 60.0713 159.809 59.6953 159.553C59.3193 159.297 58.8353 159.169 58.2433 159.169C57.3633 159.169 56.6713 159.453 56.1673 160.021C55.6633 160.589 55.4113 161.373 55.4113 162.373C55.4113 163.373 55.6593 164.153 56.1553 164.713C56.6513 165.273 57.3113 165.553 58.1353 165.553C58.9673 165.553 59.5913 165.317 60.0073 164.845C60.4313 164.373 60.6793 163.745 60.7513 162.961H58.4713V161.977H62.0353V166.537H60.8713L60.7633 165.301C60.4833 165.741 60.1313 166.081 59.7073 166.321C59.2833 166.561 58.7313 166.681 58.0513 166.681ZM62.583 167.953L63.279 165.121H64.539L63.435 167.953H62.583ZM70.3597 166.681C69.5757 166.681 68.9517 166.461 68.4877 166.021C68.0317 165.581 67.8037 164.961 67.8037 164.161H69.0757C69.0757 164.561 69.1717 164.893 69.3637 165.157C69.5637 165.421 69.8877 165.553 70.3357 165.553C70.7757 165.553 71.0877 165.429 71.2717 165.181C71.4557 164.925 71.5477 164.601 71.5477 164.209V158.137H72.8197V164.209C72.8197 165.001 72.5997 165.613 72.1597 166.045C71.7197 166.469 71.1197 166.681 70.3597 166.681ZM74.2792 166.537V158.137H77.2192C77.8752 158.137 78.4192 158.249 78.8512 158.473C79.2832 158.689 79.6032 158.989 79.8112 159.373C80.0272 159.749 80.1352 160.177 80.1352 160.657C80.1352 161.113 80.0312 161.533 79.8232 161.917C79.6232 162.293 79.3072 162.593 78.8752 162.817C78.4432 163.041 77.8912 163.153 77.2192 163.153H75.5512V166.537H74.2792ZM75.5512 162.109H77.1592C77.7592 162.109 78.1872 161.981 78.4432 161.725C78.7072 161.461 78.8392 161.105 78.8392 160.657C78.8392 160.193 78.7072 159.833 78.4432 159.577C78.1872 159.313 77.7592 159.181 77.1592 159.181H75.5512V162.109ZM84.8005 166.681C84.0085 166.681 83.3165 166.501 82.7245 166.141C82.1325 165.781 81.6725 165.277 81.3445 164.629C81.0165 163.981 80.8525 163.225 80.8525 162.361C80.8525 161.505 81.0205 160.749 81.3565 160.093C81.6925 159.437 82.1685 158.925 82.7845 158.557C83.4085 158.181 84.1445 157.993 84.9925 157.993C85.9525 157.993 86.7525 158.225 87.3925 158.689C88.0325 159.153 88.4485 159.793 88.6405 160.609H87.2005C87.0725 160.161 86.8205 159.809 86.4445 159.553C86.0685 159.297 85.5845 159.169 84.9925 159.169C84.1125 159.169 83.4205 159.453 82.9165 160.021C82.4125 160.589 82.1605 161.373 82.1605 162.373C82.1605 163.373 82.4085 164.153 82.9045 164.713C83.4005 165.273 84.0605 165.553 84.8845 165.553C85.7165 165.553 86.3405 165.317 86.7565 164.845C87.1805 164.373 87.4285 163.745 87.5005 162.961H85.2205V161.977H88.7845V166.537H87.6205L87.5125 165.301C87.2325 165.741 86.8805 166.081 86.4565 166.321C86.0325 166.561 85.4805 166.681 84.8005 166.681ZM94.8397 166.681C94.3357 166.681 93.9197 166.597 93.5917 166.429C93.2637 166.261 93.0197 166.041 92.8597 165.769C92.6997 165.489 92.6197 165.185 92.6197 164.857C92.6197 164.281 92.8437 163.825 93.2917 163.489C93.7397 163.153 94.3797 162.985 95.2117 162.985H96.7717V162.877C96.7717 162.413 96.6437 162.065 96.3877 161.833C96.1397 161.601 95.8157 161.485 95.4157 161.485C95.0637 161.485 94.7557 161.573 94.4917 161.749C94.2357 161.917 94.0797 162.169 94.0237 162.505H92.7517C92.7917 162.073 92.9357 161.705 93.1837 161.401C93.4397 161.089 93.7597 160.853 94.1437 160.693C94.5357 160.525 94.9637 160.441 95.4277 160.441C96.2597 160.441 96.9037 160.661 97.3597 161.101C97.8157 161.533 98.0437 162.125 98.0437 162.877V166.537H96.9397L96.8317 165.517C96.6637 165.845 96.4197 166.121 96.0997 166.345C95.7797 166.569 95.3597 166.681 94.8397 166.681ZM95.0917 165.649C95.4357 165.649 95.7237 165.569 95.9557 165.409C96.1957 165.241 96.3797 165.021 96.5077 164.749C96.6437 164.477 96.7277 164.177 96.7597 163.849H95.3437C94.8397 163.849 94.4797 163.937 94.2637 164.113C94.0557 164.289 93.9517 164.509 93.9517 164.773C93.9517 165.045 94.0517 165.261 94.2517 165.421C94.4597 165.573 94.7397 165.649 95.0917 165.649ZM99.2868 166.537V160.585H100.415L100.511 161.629C100.695 161.261 100.963 160.973 101.315 160.765C101.675 160.549 102.087 160.441 102.551 160.441C103.271 160.441 103.835 160.665 104.243 161.113C104.659 161.561 104.867 162.229 104.867 163.117V166.537H103.607V163.249C103.607 162.097 103.135 161.521 102.191 161.521C101.719 161.521 101.327 161.689 101.015 162.025C100.711 162.361 100.559 162.841 100.559 163.465V166.537H99.2868ZM108.837 166.681C108.261 166.681 107.753 166.545 107.313 166.273C106.873 166.001 106.529 165.629 106.281 165.157C106.033 164.685 105.909 164.149 105.909 163.549C105.909 162.949 106.033 162.417 106.281 161.953C106.529 161.481 106.873 161.113 107.313 160.849C107.761 160.577 108.273 160.441 108.849 160.441C109.321 160.441 109.733 160.533 110.085 160.717C110.445 160.901 110.725 161.161 110.925 161.497V157.897H112.197V166.537H111.057L110.925 165.613C110.733 165.893 110.469 166.141 110.133 166.357C109.797 166.573 109.365 166.681 108.837 166.681ZM109.065 165.577C109.609 165.577 110.053 165.389 110.397 165.013C110.749 164.637 110.925 164.153 110.925 163.561C110.925 162.961 110.749 162.477 110.397 162.109C110.053 161.733 109.609 161.545 109.065 161.545C108.521 161.545 108.073 161.733 107.721 162.109C107.369 162.477 107.193 162.961 107.193 163.561C107.193 163.953 107.273 164.301 107.433 164.605C107.593 164.909 107.813 165.149 108.093 165.325C108.381 165.493 108.705 165.577 109.065 165.577ZM120.04 166.681C119.248 166.681 118.556 166.501 117.964 166.141C117.372 165.781 116.912 165.277 116.584 164.629C116.256 163.981 116.092 163.225 116.092 162.361C116.092 161.505 116.26 160.749 116.596 160.093C116.932 159.437 117.408 158.925 118.024 158.557C118.648 158.181 119.384 157.993 120.232 157.993C121.192 157.993 121.992 158.225 122.632 158.689C123.272 159.153 123.688 159.793 123.88 160.609H122.44C122.312 160.161 122.06 159.809 121.684 159.553C121.308 159.297 120.824 159.169 120.232 159.169C119.352 159.169 118.66 159.453 118.156 160.021C117.652 160.589 117.4 161.373 117.4 162.373C117.4 163.373 117.648 164.153 118.144 164.713C118.64 165.273 119.3 165.553 120.124 165.553C120.956 165.553 121.58 165.317 121.996 164.845C122.42 164.373 122.668 163.745 122.74 162.961H120.46V161.977H124.024V166.537H122.86L122.752 165.301C122.472 165.741 122.12 166.081 121.696 166.321C121.272 166.561 120.72 166.681 120.04 166.681ZM125.328 166.537V158.137H126.6V166.537H125.328ZM128.065 166.537V158.137H133.333V159.169H129.337V161.821H132.649V162.841H129.337V166.537H128.065ZM137.376 166.537V161.653H136.524V160.585H137.376V159.721C137.376 159.073 137.536 158.609 137.856 158.329C138.184 158.041 138.644 157.897 139.236 157.897H139.86V158.977H139.428C139.148 158.977 138.948 159.037 138.828 159.157C138.708 159.269 138.648 159.461 138.648 159.733V160.585H142.416V166.537H141.144V161.653H138.648V166.537H137.376ZM141.792 159.589C141.552 159.589 141.352 159.517 141.192 159.373C141.04 159.221 140.964 159.029 140.964 158.797C140.964 158.573 141.04 158.389 141.192 158.245C141.352 158.101 141.552 158.029 141.792 158.029C142.032 158.029 142.228 158.101 142.38 158.245C142.54 158.389 142.62 158.573 142.62 158.797C142.62 159.029 142.54 159.221 142.38 159.373C142.228 159.517 142.032 159.589 141.792 159.589ZM143.867 166.537V157.897H145.139V166.537H143.867ZM149.294 166.681C148.71 166.681 148.19 166.553 147.734 166.297C147.286 166.033 146.934 165.669 146.678 165.205C146.422 164.741 146.294 164.201 146.294 163.585C146.294 162.961 146.418 162.413 146.666 161.941C146.922 161.469 147.274 161.101 147.722 160.837C148.178 160.573 148.706 160.441 149.306 160.441C149.89 160.441 150.398 160.573 150.83 160.837C151.262 161.093 151.598 161.437 151.838 161.869C152.078 162.301 152.198 162.777 152.198 163.297C152.198 163.377 152.194 163.465 152.186 163.561C152.186 163.649 152.182 163.749 152.174 163.861H147.542C147.582 164.437 147.77 164.877 148.106 165.181C148.45 165.477 148.846 165.625 149.294 165.625C149.654 165.625 149.954 165.545 150.194 165.385C150.442 165.217 150.626 164.993 150.746 164.713H152.018C151.858 165.273 151.538 165.741 151.058 166.117C150.586 166.493 149.998 166.681 149.294 166.681ZM149.294 161.485C148.87 161.485 148.494 161.613 148.166 161.869C147.838 162.117 147.638 162.493 147.566 162.997H150.926C150.902 162.533 150.738 162.165 150.434 161.893C150.13 161.621 149.75 161.485 149.294 161.485ZM155.653 166.681C154.901 166.681 154.281 166.497 153.793 166.129C153.305 165.761 153.025 165.273 152.953 164.665H154.237C154.301 164.937 154.453 165.173 154.693 165.373C154.933 165.565 155.249 165.661 155.641 165.661C156.025 165.661 156.305 165.581 156.481 165.421C156.657 165.261 156.745 165.077 156.745 164.869C156.745 164.565 156.621 164.361 156.373 164.257C156.133 164.145 155.797 164.045 155.365 163.957C155.029 163.885 154.693 163.789 154.357 163.669C154.029 163.549 153.753 163.381 153.529 163.165C153.313 162.941 153.205 162.641 153.205 162.265C153.205 161.745 153.405 161.313 153.805 160.969C154.205 160.617 154.765 160.441 155.485 160.441C156.149 160.441 156.685 160.601 157.093 160.921C157.509 161.241 157.753 161.693 157.825 162.277H156.601C156.561 162.021 156.441 161.821 156.241 161.677C156.049 161.533 155.789 161.461 155.461 161.461C155.141 161.461 154.893 161.529 154.717 161.665C154.541 161.793 154.453 161.961 154.453 162.169C154.453 162.377 154.573 162.541 154.813 162.661C155.061 162.781 155.385 162.889 155.785 162.985C156.185 163.073 156.553 163.177 156.889 163.297C157.233 163.409 157.509 163.577 157.717 163.801C157.925 164.025 158.029 164.353 158.029 164.785C158.037 165.329 157.825 165.781 157.393 166.141C156.969 166.501 156.389 166.681 155.653 166.681ZM163.978 166.681C163.474 166.681 163.058 166.597 162.73 166.429C162.402 166.261 162.158 166.041 161.998 165.769C161.838 165.489 161.758 165.185 161.758 164.857C161.758 164.281 161.982 163.825 162.43 163.489C162.878 163.153 163.518 162.985 164.35 162.985H165.91V162.877C165.91 162.413 165.782 162.065 165.526 161.833C165.278 161.601 164.954 161.485 164.554 161.485C164.202 161.485 163.894 161.573 163.63 161.749C163.374 161.917 163.218 162.169 163.162 162.505H161.89C161.93 162.073 162.074 161.705 162.322 161.401C162.578 161.089 162.898 160.853 163.282 160.693C163.674 160.525 164.102 160.441 164.566 160.441C165.398 160.441 166.042 160.661 166.498 161.101C166.954 161.533 167.182 162.125 167.182 162.877V166.537H166.078L165.97 165.517C165.802 165.845 165.558 166.121 165.238 166.345C164.918 166.569 164.498 166.681 163.978 166.681ZM164.23 165.649C164.574 165.649 164.862 165.569 165.094 165.409C165.334 165.241 165.518 165.021 165.646 164.749C165.782 164.477 165.866 164.177 165.898 163.849H164.482C163.978 163.849 163.618 163.937 163.402 164.113C163.194 164.289 163.09 164.509 163.09 164.773C163.09 165.045 163.19 165.261 163.39 165.421C163.598 165.573 163.878 165.649 164.23 165.649ZM168.425 166.537V160.585H169.565L169.673 161.713C169.881 161.321 170.169 161.013 170.537 160.789C170.913 160.557 171.365 160.441 171.893 160.441V161.773H171.545C171.193 161.773 170.877 161.833 170.597 161.953C170.325 162.065 170.105 162.261 169.937 162.541C169.777 162.813 169.697 163.193 169.697 163.681V166.537H168.425ZM175.363 166.681C174.779 166.681 174.259 166.553 173.803 166.297C173.355 166.033 173.003 165.669 172.747 165.205C172.491 164.741 172.363 164.201 172.363 163.585C172.363 162.961 172.487 162.413 172.735 161.941C172.991 161.469 173.343 161.101 173.791 160.837C174.247 160.573 174.775 160.441 175.375 160.441C175.959 160.441 176.467 160.573 176.899 160.837C177.331 161.093 177.667 161.437 177.907 161.869C178.147 162.301 178.267 162.777 178.267 163.297C178.267 163.377 178.263 163.465 178.255 163.561C178.255 163.649 178.251 163.749 178.243 163.861H173.611C173.651 164.437 173.839 164.877 174.175 165.181C174.519 165.477 174.915 165.625 175.363 165.625C175.723 165.625 176.023 165.545 176.263 165.385C176.511 165.217 176.695 164.993 176.815 164.713H178.087C177.927 165.273 177.607 165.741 177.127 166.117C176.655 166.493 176.067 166.681 175.363 166.681ZM175.363 161.485C174.939 161.485 174.563 161.613 174.235 161.869C173.907 162.117 173.707 162.493 173.635 162.997H176.995C176.971 162.533 176.807 162.165 176.503 161.893C176.199 161.621 175.819 161.485 175.363 161.485ZM90.4248 186.681C89.9208 186.681 89.5048 186.597 89.1768 186.429C88.8488 186.261 88.6048 186.041 88.4448 185.769C88.2848 185.489 88.2048 185.185 88.2048 184.857C88.2048 184.281 88.4288 183.825 88.8768 183.489C89.3248 183.153 89.9648 182.985 90.7968 182.985H92.3568V182.877C92.3568 182.413 92.2288 182.065 91.9728 181.833C91.7248 181.601 91.4008 181.485 91.0008 181.485C90.6488 181.485 90.3408 181.573 90.0768 181.749C89.8208 181.917 89.6648 182.169 89.6088 182.505H88.3368C88.3768 182.073 88.5208 181.705 88.7688 181.401C89.0248 181.089 89.3448 180.853 89.7288 180.693C90.1208 180.525 90.5488 180.441 91.0128 180.441C91.8448 180.441 92.4888 180.661 92.9448 181.101C93.4008 181.533 93.6288 182.125 93.6288 182.877V186.537H92.5248L92.4168 185.517C92.2488 185.845 92.0048 186.121 91.6848 186.345C91.3648 186.569 90.9448 186.681 90.4248 186.681ZM90.6768 185.649C91.0208 185.649 91.3088 185.569 91.5408 185.409C91.7808 185.241 91.9648 185.021 92.0928 184.749C92.2288 184.477 92.3128 184.177 92.3448 183.849H90.9288C90.4248 183.849 90.0648 183.937 89.8488 184.113C89.6408 184.289 89.5368 184.509 89.5368 184.773C89.5368 185.045 89.6368 185.261 89.8368 185.421C90.0448 185.573 90.3248 185.649 90.6768 185.649ZM94.8719 186.537V177.897H96.1439V186.537H94.8719ZM97.5147 186.537V177.897H98.7867V186.537H97.5147ZM102.942 186.681C102.374 186.681 101.862 186.553 101.406 186.297C100.958 186.033 100.602 185.669 100.338 185.205C100.074 184.733 99.9415 184.185 99.9415 183.561C99.9415 182.937 100.074 182.393 100.338 181.929C100.61 181.457 100.974 181.093 101.43 180.837C101.886 180.573 102.394 180.441 102.954 180.441C103.522 180.441 104.03 180.573 104.478 180.837C104.934 181.093 105.294 181.457 105.558 181.929C105.83 182.393 105.966 182.937 105.966 183.561C105.966 184.185 105.83 184.733 105.558 185.205C105.294 185.669 104.934 186.033 104.478 186.297C104.022 186.553 103.51 186.681 102.942 186.681ZM102.942 185.589C103.246 185.589 103.526 185.513 103.782 185.361C104.046 185.209 104.258 184.985 104.418 184.689C104.578 184.385 104.658 184.009 104.658 183.561C104.658 183.113 104.578 182.741 104.418 182.445C104.266 182.141 104.058 181.913 103.794 181.761C103.538 181.609 103.258 181.533 102.954 181.533C102.65 181.533 102.366 181.609 102.102 181.761C101.846 181.913 101.638 182.141 101.478 182.445C101.318 182.741 101.238 183.113 101.238 183.561C101.238 184.009 101.318 184.385 101.478 184.689C101.638 184.985 101.846 185.209 102.102 185.361C102.358 185.513 102.638 185.589 102.942 185.589ZM108.066 186.537L106.314 180.585H107.586L108.738 185.073L110.034 180.585H111.45L112.746 185.073L113.898 180.585H115.17L113.418 186.537H112.11L110.742 181.857L109.374 186.537H108.066ZM118.54 186.681C117.956 186.681 117.436 186.553 116.98 186.297C116.532 186.033 116.18 185.669 115.924 185.205C115.668 184.741 115.54 184.201 115.54 183.585C115.54 182.961 115.664 182.413 115.912 181.941C116.168 181.469 116.52 181.101 116.968 180.837C117.424 180.573 117.952 180.441 118.552 180.441C119.136 180.441 119.644 180.573 120.076 180.837C120.508 181.093 120.844 181.437 121.084 181.869C121.324 182.301 121.444 182.777 121.444 183.297C121.444 183.377 121.44 183.465 121.432 183.561C121.432 183.649 121.428 183.749 121.42 183.861H116.788C116.828 184.437 117.016 184.877 117.352 185.181C117.696 185.477 118.092 185.625 118.54 185.625C118.9 185.625 119.2 185.545 119.44 185.385C119.688 185.217 119.872 184.993 119.992 184.713H121.264C121.104 185.273 120.784 185.741 120.304 186.117C119.832 186.493 119.244 186.681 118.54 186.681ZM118.54 181.485C118.116 181.485 117.74 181.613 117.412 181.869C117.084 182.117 116.884 182.493 116.812 182.997H120.172C120.148 182.533 119.984 182.165 119.68 181.893C119.376 181.621 118.996 181.485 118.54 181.485ZM125.235 186.681C124.659 186.681 124.151 186.545 123.711 186.273C123.271 186.001 122.927 185.629 122.679 185.157C122.431 184.685 122.307 184.149 122.307 183.549C122.307 182.949 122.431 182.417 122.679 181.953C122.927 181.481 123.271 181.113 123.711 180.849C124.159 180.577 124.671 180.441 125.247 180.441C125.719 180.441 126.131 180.533 126.483 180.717C126.843 180.901 127.123 181.161 127.323 181.497V177.897H128.595V186.537H127.455L127.323 185.613C127.131 185.893 126.867 186.141 126.531 186.357C126.195 186.573 125.763 186.681 125.235 186.681ZM125.463 185.577C126.007 185.577 126.451 185.389 126.795 185.013C127.147 184.637 127.323 184.153 127.323 183.561C127.323 182.961 127.147 182.477 126.795 182.109C126.451 181.733 126.007 181.545 125.463 181.545C124.919 181.545 124.471 181.733 124.119 182.109C123.767 182.477 123.591 182.961 123.591 183.561C123.591 183.953 123.671 184.301 123.831 184.605C123.991 184.909 124.211 185.149 124.491 185.325C124.779 185.493 125.103 185.577 125.463 185.577Z" fill="#8F9BBA"/>
<defs>
<clipPath id="clip0_1_1310">
<rect width="65.0746" height="65.0746" fill="white" transform="translate(76.4626 46)"/>
</clipPath>
</defs>
</svg>
