<svg width="82" height="36" viewBox="0 0 82 36" fill="none" xmlns="http://www.w3.org/2000/svg">
<rect width="82" height="36" rx="10" fill="#4F4141"/>
<rect x="0.5" y="0.5" width="81" height="35" rx="9.5" stroke="black" stroke-opacity="0.1"/>
<path d="M33.952 23V13.2H40.28V14.642H35.744V17.386H39.412V18.8H35.744V23H33.952ZM42.3069 14.978C41.9803 14.978 41.7096 14.88 41.4949 14.684C41.2896 14.488 41.1869 14.2407 41.1869 13.942C41.1869 13.6433 41.2896 13.4007 41.4949 13.214C41.7096 13.018 41.9803 12.92 42.3069 12.92C42.6336 12.92 42.8996 13.018 43.1049 13.214C43.3196 13.4007 43.4269 13.6433 43.4269 13.942C43.4269 14.2407 43.3196 14.488 43.1049 14.684C42.8996 14.88 42.6336 14.978 42.3069 14.978ZM41.4109 23V16.056H43.2029V23H41.4109ZM44.7934 23V12.92H46.5854V23H44.7934ZM51.2304 23C50.5024 23 49.9191 22.8227 49.4804 22.468C49.0417 22.1133 48.8224 21.4833 48.8224 20.578V17.554H47.6324V16.056H48.8224L49.0324 14.194H50.6144V16.056H52.4904V17.554H50.6144V20.592C50.6144 20.928 50.6844 21.1613 50.8244 21.292C50.9737 21.4133 51.2257 21.474 51.5804 21.474H52.4484V23H51.2304ZM56.9452 23.168C56.2452 23.168 55.6246 23.0187 55.0832 22.72C54.5419 22.4213 54.1172 22.0013 53.8092 21.46C53.5012 20.9187 53.3472 20.2933 53.3472 19.584C53.3472 18.8653 53.4966 18.226 53.7952 17.666C54.1032 17.106 54.5232 16.672 55.0552 16.364C55.5966 16.0467 56.2312 15.888 56.9592 15.888C57.6406 15.888 58.2426 16.0373 58.7652 16.336C59.2879 16.6347 59.6939 17.0453 59.9832 17.568C60.2819 18.0813 60.4312 18.6553 60.4312 19.29C60.4312 19.3927 60.4266 19.5 60.4172 19.612C60.4172 19.724 60.4126 19.8407 60.4032 19.962H55.1252C55.1626 20.5033 55.3492 20.928 55.6852 21.236C56.0306 21.544 56.4459 21.698 56.9312 21.698C57.2952 21.698 57.5986 21.6187 57.8412 21.46C58.0932 21.292 58.2799 21.0773 58.4012 20.816H60.2212C60.0906 21.2547 59.8712 21.656 59.5632 22.02C59.2646 22.3747 58.8912 22.6547 58.4432 22.86C58.0046 23.0653 57.5052 23.168 56.9452 23.168ZM56.9592 17.344C56.5206 17.344 56.1332 17.47 55.7972 17.722C55.4612 17.9647 55.2466 18.338 55.1532 18.842H58.6112C58.5832 18.3847 58.4152 18.0207 58.1072 17.75C57.7992 17.4793 57.4166 17.344 56.9592 17.344ZM61.6584 23V16.056H63.2544L63.4224 17.358C63.6744 16.91 64.0151 16.5553 64.4444 16.294C64.8831 16.0233 65.3964 15.888 65.9844 15.888V17.778H65.4804C65.0884 17.778 64.7384 17.8387 64.4304 17.96C64.1224 18.0813 63.8798 18.2913 63.7024 18.59C63.5344 18.8887 63.4504 19.304 63.4504 19.836V23H61.6584Z" fill="white"/>
<path fill-rule="evenodd" clip-rule="evenodd" d="M14 14C14 13.4477 14.4477 13 15 13H25C25.5523 13 26 13.4477 26 14C26 14.5523 25.5523 15 25 15H15C14.4477 15 14 14.5523 14 14ZM16 18C16 17.4477 16.4477 17 17 17H23C23.5523 17 24 17.4477 24 18C24 18.5523 23.5523 19 23 19H17C16.4477 19 16 18.5523 16 18ZM19 21C18.4477 21 18 21.4477 18 22C18 22.5523 18.4477 23 19 23H21C21.5523 23 22 22.5523 22 22C22 21.4477 21.5523 21 21 21H19Z" fill="white"/>
</svg>
