<svg width="102" height="40" viewBox="0 0 102 40" fill="none" xmlns="http://www.w3.org/2000/svg">
<rect x="0.5" y="0.5" width="101" height="39" rx="7.5" stroke="#D0D5DD"/>
<path d="M24.9864 18.375H24.1252V15.6667C24.1252 15.3687 23.8814 15.125 23.5835 15.125H21.4168C21.1189 15.125 20.8752 15.3687 20.8752 15.6667V18.375H20.0139C19.5318 18.375 19.2881 18.96 19.6293 19.3012L22.1156 21.7875C22.3268 21.9987 22.6681 21.9987 22.8793 21.7875L25.3656 19.3012C25.7068 18.96 25.4685 18.375 24.9864 18.375ZM18.7085 23.7917C18.7085 24.0896 18.9522 24.3333 19.2502 24.3333H25.7502C26.0481 24.3333 26.2918 24.0896 26.2918 23.7917C26.2918 23.4937 26.0481 23.25 25.7502 23.25H19.2502C18.9522 23.25 18.7085 23.4937 18.7085 23.7917Z" fill="black"/>
<path d="M39.8487 14.8182V25H38.0043V14.8182H39.8487ZM43.5662 20.5256V25H41.7665V17.3636H43.4867V18.6612H43.5762C43.7518 18.2337 44.0319 17.8939 44.4164 17.642C44.8042 17.3902 45.2831 17.2642 45.8532 17.2642C46.3801 17.2642 46.8392 17.3769 47.2303 17.6023C47.6247 17.8277 47.9296 18.1541 48.1451 18.5817C48.3638 19.0092 48.4715 19.5279 48.4682 20.1378V25H46.6685V20.4162C46.6685 19.9058 46.5359 19.5064 46.2708 19.218C46.0089 18.9297 45.646 18.7855 45.182 18.7855C44.8671 18.7855 44.5871 18.8551 44.3418 18.9943C44.0998 19.1302 43.9093 19.3274 43.7701 19.5859C43.6342 19.8445 43.5662 20.1577 43.5662 20.5256ZM56.8453 17.3636L54.1259 25H52.1373L49.4178 17.3636H51.3368L53.0918 23.0362H53.1713L54.9313 17.3636H56.8453ZM61.1619 25.1491C60.4162 25.1491 59.7699 24.9851 59.223 24.657C58.6761 24.3288 58.2519 23.8698 57.9503 23.2798C57.652 22.6899 57.5028 22.0005 57.5028 21.2116C57.5028 20.4228 57.652 19.7318 57.9503 19.1385C58.2519 18.5452 58.6761 18.0845 59.223 17.7564C59.7699 17.4283 60.4162 17.2642 61.1619 17.2642C61.9077 17.2642 62.554 17.4283 63.1009 17.7564C63.6477 18.0845 64.0703 18.5452 64.3686 19.1385C64.6702 19.7318 64.821 20.4228 64.821 21.2116C64.821 22.0005 64.6702 22.6899 64.3686 23.2798C64.0703 23.8698 63.6477 24.3288 63.1009 24.657C62.554 24.9851 61.9077 25.1491 61.1619 25.1491ZM61.1719 23.7074C61.5762 23.7074 61.9143 23.5964 62.1861 23.3743C62.4579 23.1489 62.66 22.8473 62.7926 22.4695C62.9285 22.0916 62.9964 21.6707 62.9964 21.2067C62.9964 20.7393 62.9285 20.3168 62.7926 19.9389C62.66 19.5578 62.4579 19.2545 62.1861 19.0291C61.9143 18.8037 61.5762 18.6911 61.1719 18.6911C60.7576 18.6911 60.4129 18.8037 60.1378 19.0291C59.866 19.2545 59.6622 19.5578 59.5263 19.9389C59.3937 20.3168 59.3274 20.7393 59.3274 21.2067C59.3274 21.6707 59.3937 22.0916 59.5263 22.4695C59.6622 22.8473 59.866 23.1489 60.1378 23.3743C60.4129 23.5964 60.7576 23.7074 61.1719 23.7074ZM66.3485 25V17.3636H68.1483V25H66.3485ZM67.2534 16.2798C66.9683 16.2798 66.7231 16.1854 66.5176 15.9964C66.3121 15.8042 66.2093 15.5739 66.2093 15.3054C66.2093 15.0336 66.3121 14.8033 66.5176 14.6143C66.7231 14.4221 66.9683 14.326 67.2534 14.326C67.5417 14.326 67.787 14.4221 67.9892 14.6143C68.1947 14.8033 68.2974 15.0336 68.2974 15.3054C68.2974 15.5739 68.1947 15.8042 67.9892 15.9964C67.787 16.1854 67.5417 16.2798 67.2534 16.2798ZM73.3299 25.1491C72.5676 25.1491 71.913 24.9818 71.3661 24.647C70.8226 24.3123 70.4033 23.8499 70.1083 23.2599C69.8166 22.6667 69.6708 21.9839 69.6708 21.2116C69.6708 20.4361 69.82 19.7517 70.1183 19.1584C70.4165 18.5618 70.8375 18.0978 71.381 17.7663C71.9279 17.4316 72.5742 17.2642 73.32 17.2642C73.9397 17.2642 74.4883 17.3786 74.9656 17.6072C75.4461 17.8326 75.829 18.1525 76.114 18.5668C76.399 18.9777 76.5614 19.4583 76.6012 20.0085H74.881C74.8114 19.6406 74.6457 19.334 74.3839 19.0888C74.1254 18.8402 73.779 18.7159 73.3448 18.7159C72.9769 18.7159 72.6538 18.8153 72.3754 19.0142C72.0969 19.2098 71.8799 19.4915 71.7241 19.8594C71.5716 20.2273 71.4954 20.6681 71.4954 21.1818C71.4954 21.7022 71.5716 22.1496 71.7241 22.5241C71.8765 22.8954 72.0903 23.1821 72.3654 23.3842C72.6438 23.5831 72.9703 23.6825 73.3448 23.6825C73.61 23.6825 73.8469 23.6328 74.0558 23.5334C74.2679 23.4306 74.4452 23.2831 74.5877 23.0909C74.7302 22.8987 74.828 22.665 74.881 22.3899H76.6012C76.5581 22.9302 76.399 23.4091 76.1239 23.8267C75.8488 24.241 75.4743 24.5658 75.0004 24.8011C74.5264 25.0331 73.9696 25.1491 73.3299 25.1491ZM81.4597 25.1491C80.6941 25.1491 80.0328 24.9901 79.476 24.6719C78.9225 24.3504 78.4966 23.8963 78.1983 23.3097C77.9 22.7197 77.7509 22.0253 77.7509 21.2266C77.7509 20.4411 77.9 19.7517 78.1983 19.1584C78.4999 18.5618 78.9209 18.0978 79.4611 17.7663C80.0014 17.4316 80.6361 17.2642 81.3652 17.2642C81.8359 17.2642 82.28 17.3404 82.6976 17.4929C83.1185 17.642 83.4898 17.8741 83.8113 18.1889C84.1361 18.5038 84.3913 18.9048 84.5769 19.392C84.7625 19.8759 84.8553 20.4527 84.8553 21.1222V21.674H78.5961V20.4609H83.1301C83.1268 20.1162 83.0523 19.8097 82.9064 19.5412C82.7606 19.2694 82.5568 19.0556 82.2949 18.8999C82.0364 18.7441 81.7348 18.6662 81.3901 18.6662C81.0222 18.6662 80.699 18.7557 80.4206 18.9347C80.1422 19.1103 79.9251 19.3423 79.7694 19.6307C79.6169 19.9157 79.539 20.2289 79.5357 20.5703V21.6293C79.5357 22.0734 79.6169 22.4545 79.7793 22.7727C79.9417 23.0876 80.1687 23.3295 80.4604 23.4986C80.7521 23.6643 81.0935 23.7472 81.4846 23.7472C81.7464 23.7472 81.9834 23.7107 82.1955 23.6378C82.4076 23.5616 82.5916 23.4505 82.7473 23.3047C82.9031 23.1589 83.0208 22.9782 83.1003 22.7628L84.7807 22.9517C84.6747 23.3958 84.4725 23.7836 84.1742 24.1151C83.8792 24.4432 83.5014 24.6984 83.0407 24.8807C82.58 25.0597 82.053 25.1491 81.4597 25.1491Z" fill="#667085"/>
</svg>
