<svg width="66" height="66" viewBox="0 0 66 66" fill="none" xmlns="http://www.w3.org/2000/svg">
<circle cx="33" cy="33" r="33" fill="#F7DFDE"/>
<path d="M33 38.4163C33.5746 38.4163 34.1257 38.1881 34.5321 37.7817C34.9384 37.3754 35.1667 36.8243 35.1667 36.2497C35.1667 35.675 34.9384 35.1239 34.5321 34.7176C34.1257 34.3113 33.5746 34.083 33 34.083C32.4254 34.083 31.8743 34.3113 31.4679 34.7176C31.0616 35.1239 30.8333 35.675 30.8333 36.2497C30.8333 36.8243 31.0616 37.3754 31.4679 37.7817C31.8743 38.1881 32.4254 38.4163 33 38.4163ZM39.5 28.6663C40.0746 28.6663 40.6257 28.8946 41.0321 29.3009C41.4384 29.7073 41.6667 30.2584 41.6667 30.833V41.6663C41.6667 42.241 41.4384 42.7921 41.0321 43.1984C40.6257 43.6047 40.0746 43.833 39.5 43.833H26.5C25.9254 43.833 25.3743 43.6047 24.9679 43.1984C24.5616 42.7921 24.3333 42.241 24.3333 41.6663V30.833C24.3333 30.2584 24.5616 29.7073 24.9679 29.3009C25.3743 28.8946 25.9254 28.6663 26.5 28.6663H27.5833V26.4997C27.5833 25.0631 28.154 23.6853 29.1698 22.6695C30.1857 21.6537 31.5634 21.083 33 21.083C33.7113 21.083 34.4157 21.2231 35.0729 21.4953C35.7301 21.7675 36.3272 22.1665 36.8302 22.6695C37.3332 23.1725 37.7321 23.7696 38.0044 24.4268C38.2766 25.084 38.4167 25.7883 38.4167 26.4997V28.6663H39.5ZM33 23.2497C32.1381 23.2497 31.3114 23.5921 30.7019 24.2016C30.0924 24.8111 29.75 25.6377 29.75 26.4997V28.6663H36.25V26.4997C36.25 25.6377 35.9076 24.8111 35.2981 24.2016C34.6886 23.5921 33.862 23.2497 33 23.2497Z" fill="#D65D5B"/>
</svg>
