<svg width="34" height="39" viewBox="0 0 34 39" fill="none" xmlns="http://www.w3.org/2000/svg">
<path d="M28.8526 23.6387H26.5871C26.4324 23.6387 26.2874 23.7064 26.1907 23.8256C25.9651 24.0996 25.7234 24.3638 25.4689 24.6152C24.4276 25.6575 23.1942 26.4881 21.8369 27.0612C20.4307 27.6551 18.9193 27.9598 17.3929 27.9571C15.8492 27.9571 14.3539 27.6542 12.9488 27.0612C11.5915 26.4881 10.3582 25.6575 9.3169 24.6152C8.27378 23.5764 7.44202 22.3452 6.86768 20.9897C6.27149 19.5846 5.97179 18.0925 5.97179 16.5489C5.97179 15.0052 6.27472 13.5131 6.86768 12.1081C7.44132 10.7513 8.26632 9.52993 9.3169 8.48257C10.3675 7.43521 11.5889 6.6102 12.9488 6.03657C14.3539 5.4436 15.8492 5.14067 17.3929 5.14067C18.9365 5.14067 20.4318 5.44038 21.8369 6.03657C23.1969 6.6102 24.4183 7.43521 25.4689 8.48257C25.7234 8.73716 25.9619 9.00142 26.1907 9.27212C26.2874 9.39136 26.4357 9.45903 26.5871 9.45903H28.8526C29.0557 9.45903 29.1814 9.23345 29.0686 9.06265C26.5968 5.22124 22.272 2.67856 17.3574 2.69146C9.63595 2.71079 3.44522 8.97886 3.52257 16.6907C3.59991 24.28 9.78097 30.4063 17.3929 30.4063C22.2945 30.4063 26.6 27.8668 29.0686 24.0351C29.1781 23.8643 29.0557 23.6387 28.8526 23.6387ZM31.7176 16.3458L27.1446 12.7365C26.9738 12.6011 26.7257 12.7236 26.7257 12.9395V15.3887H16.6066C16.4648 15.3887 16.3487 15.5047 16.3487 15.6465V17.4512C16.3487 17.593 16.4648 17.709 16.6066 17.709H26.7257V20.1583C26.7257 20.3742 26.9771 20.4966 27.1446 20.3613L31.7176 16.7519C31.7484 16.7278 31.7733 16.697 31.7905 16.6618C31.8076 16.6266 31.8165 16.588 31.8165 16.5489C31.8165 16.5097 31.8076 16.4711 31.7905 16.436C31.7733 16.4008 31.7484 16.37 31.7176 16.3458Z" fill="#D65D5B"/>
</svg>
