<svg width="38" height="30" viewBox="0 0 38 30" fill="none" xmlns="http://www.w3.org/2000/svg">
<g id="mastercard_logo">
<path id="Vector" d="M13.936 2.79395H23.8503V20.6082H13.936V2.79395Z" fill="#FF5F00"/>
<g id="Group">
<path id="Vector_2" d="M7.2326 29.5739V27.6855C7.2326 26.9615 6.79188 26.4895 6.03644 26.4895C5.6588 26.4895 5.24961 26.6154 4.96631 27.0246C4.74609 26.6783 4.43138 26.4895 3.95926 26.4895C3.64441 26.4895 3.32985 26.5839 3.07794 26.9301V26.5525H2.41699V29.5739H3.07794V27.9058C3.07794 27.3708 3.36125 27.1189 3.80198 27.1189C4.24242 27.1189 4.46292 27.4022 4.46292 27.9058V29.5739H5.12387V27.9058C5.12387 27.3708 5.43843 27.1189 5.84762 27.1189C6.28835 27.1189 6.50857 27.4022 6.50857 27.9058V29.5739H7.2326ZM17.0208 26.5525H15.9508V25.6398H15.2899V26.5525H14.6919V27.1503H15.2897V28.5353C15.2897 29.2278 15.573 29.6368 16.3285 29.6368C16.6118 29.6368 16.9263 29.5425 17.1468 29.4166L16.9579 28.85C16.7691 28.9759 16.5488 29.0074 16.3914 29.0074C16.0767 29.0074 15.9508 28.8186 15.9508 28.5038V27.1503H17.0208V26.5525ZM22.6233 26.4894C22.2456 26.4894 21.9939 26.6783 21.8364 26.9301V26.5525H21.1755V29.5739H21.8364V27.8744C21.8364 27.3708 22.0567 27.0875 22.4658 27.0875C22.5917 27.0875 22.7491 27.1191 22.875 27.1505L23.0639 26.5211C22.938 26.4895 22.7491 26.4895 22.6233 26.4895V26.4894ZM14.1568 26.8042C13.842 26.5839 13.4014 26.4895 12.9292 26.4895C12.174 26.4895 11.6704 26.8672 11.6704 27.4652C11.6704 27.9688 12.0481 28.252 12.709 28.3465L13.0237 28.378C13.37 28.4408 13.5588 28.5353 13.5588 28.6927C13.5588 28.913 13.307 29.0704 12.8663 29.0704C12.4257 29.0704 12.0795 28.913 11.8591 28.7557L11.5444 29.2592C11.8906 29.511 12.3628 29.6368 12.8348 29.6368C13.7161 29.6368 14.2197 29.2278 14.2197 28.6612C14.2197 28.1261 13.8106 27.8428 13.181 27.7485L12.8663 27.7169C12.583 27.6854 12.3628 27.6226 12.3628 27.4338C12.3628 27.2134 12.583 27.0875 12.9292 27.0875C13.307 27.0875 13.6847 27.2448 13.8735 27.3393L14.1568 26.8042ZM31.7193 26.4895C31.3415 26.4895 31.0897 26.6783 30.9323 26.9301V26.5525H30.2714V29.5739H30.9323V27.8744C30.9323 27.3708 31.1527 27.0875 31.5617 27.0875C31.6877 27.0875 31.8452 27.1191 31.971 27.1505L32.1599 26.5211C32.034 26.4895 31.8452 26.4895 31.7193 26.4895ZM23.2842 28.0632C23.2842 28.9759 23.9136 29.6368 24.8894 29.6368C25.33 29.6368 25.6447 29.5425 25.9594 29.2907L25.6447 28.7557C25.3929 28.9445 25.1412 29.0388 24.8579 29.0388C24.3228 29.0388 23.9452 28.6612 23.9452 28.0632C23.9452 27.4967 24.3228 27.1189 24.8579 27.0875C25.1412 27.0875 25.3929 27.1819 25.6447 27.3708L25.9594 26.8358C25.6447 26.5839 25.33 26.4895 24.8894 26.4895C23.9136 26.4895 23.2842 27.1505 23.2842 28.0632ZM29.3902 28.0632V26.5525H28.7292V26.9301C28.5089 26.6469 28.1942 26.4895 27.785 26.4895C26.9352 26.4895 26.2743 27.1505 26.2743 28.0632C26.2743 28.9759 26.9352 29.6368 27.785 29.6368C28.2256 29.6368 28.5404 29.4796 28.7292 29.1963V29.5739H29.3902V28.0632ZM26.9666 28.0632C26.9666 27.5281 27.3129 27.0875 27.8793 27.0875C28.4144 27.0875 28.7922 27.4967 28.7922 28.0632C28.7922 28.5983 28.4144 29.0388 27.8793 29.0388C27.3129 29.0073 26.9666 28.5983 26.9666 28.0632ZM19.0668 26.4895C18.1854 26.4895 17.5559 27.1189 17.5559 28.0632C17.5559 29.0074 18.1853 29.6368 19.0982 29.6368C19.5387 29.6368 19.9795 29.511 20.3257 29.2278L20.0109 28.7557C19.7591 28.9445 19.4444 29.0704 19.1297 29.0704C18.7205 29.0704 18.3113 28.8816 18.2168 28.3463H20.4516V28.0947C20.4831 27.1189 19.9165 26.4895 19.0666 26.4895H19.0668ZM19.0668 27.056C19.4758 27.056 19.7592 27.3079 19.822 27.78H18.2484C18.3113 27.3708 18.5946 27.056 19.0668 27.056ZM35.4646 28.0632V25.3564H34.8037V26.9301C34.5833 26.6469 34.2686 26.4895 33.8594 26.4895C33.0096 26.4895 32.3487 27.1505 32.3487 28.0632C32.3487 28.9759 33.0096 29.6368 33.8594 29.6368C34.3001 29.6368 34.6148 29.4796 34.8037 29.1963V29.5739H35.4646V28.0632ZM33.0412 28.0632C33.0412 27.5281 33.3873 27.0875 33.9539 27.0875C34.489 27.0875 34.8666 27.4967 34.8666 28.0632C34.8666 28.5983 34.489 29.0388 33.9539 29.0388C33.3873 29.0073 33.0412 28.5983 33.0412 28.0632ZM10.9464 28.0632V26.5525H10.2854V26.9301C10.0651 26.6469 9.75038 26.4895 9.34119 26.4895C8.49142 26.4895 7.83047 27.1505 7.83047 28.0632C7.83047 28.9759 8.49142 29.6368 9.34119 29.6368C9.78192 29.6368 10.0966 29.4796 10.2854 29.1963V29.5739H10.9464V28.0632ZM8.49142 28.0632C8.49142 27.5281 8.83767 27.0875 9.40413 27.0875C9.9392 27.0875 10.317 27.4967 10.317 28.0632C10.317 28.5983 9.9392 29.0388 9.40413 29.0388C8.83767 29.0073 8.49142 28.5983 8.49142 28.0632Z" fill="#F6F6F6"/>
<path id="Vector_3" d="M14.5655 11.7017C14.5655 8.08227 16.2651 4.87186 18.8773 2.79453C16.9576 1.28381 14.5341 0.371094 11.8903 0.371094C5.6268 0.371094 0.55957 5.43832 0.55957 11.7017C0.55957 17.965 5.6268 23.0323 11.8902 23.0323C14.534 23.0323 16.9574 22.1196 18.8773 20.6088C16.2651 18.563 14.5655 15.3212 14.5655 11.7017Z" fill="#EB001B"/>
<path id="Vector_4" d="M37.2265 11.7007C37.2265 17.964 32.1592 23.0314 25.8958 23.0314C23.252 23.0314 20.8286 22.1187 18.9087 20.6078C21.5525 18.5306 23.2206 15.3202 23.2206 11.7007C23.2206 8.08129 21.5209 4.87088 18.9087 2.79355C20.8285 1.28283 23.252 0.370117 25.8958 0.370117C32.1592 0.370117 37.2266 5.46889 37.2266 11.7007H37.2265Z" fill="#F79E1B"/>
</g>
</g>
</svg>
