<svg width="119" height="119" viewBox="0 0 119 119" fill="none" xmlns="http://www.w3.org/2000/svg">
<rect width="119" height="119" rx="10" fill="#D9D9D9"/>
<path fill-rule="evenodd" clip-rule="evenodd" d="M48 50C46.9391 50 45.9217 50.4214 45.1716 51.1716C44.4214 51.9217 44 52.9391 44 54V70C44 71.0609 44.4214 72.0783 45.1716 72.8284C45.9217 73.5786 46.9391 74 48 74H72C73.0609 74 74.0783 73.5786 74.8284 72.8284C75.5786 72.0783 76 71.0609 76 70V54C76 52.9391 75.5786 51.9217 74.8284 51.1716C74.0783 50.4214 73.0609 50 72 50H68.828C68.2976 49.9999 67.789 49.7891 67.414 49.414L65.172 47.172C64.422 46.4218 63.4048 46.0002 62.344 46H57.656C56.5952 46.0002 55.578 46.4218 54.828 47.172L52.586 49.414C52.211 49.7891 51.7024 49.9999 51.172 50H48ZM60 68C60.7879 68 61.5681 67.8448 62.2961 67.5433C63.0241 67.2417 63.6855 66.7998 64.2426 66.2426C64.7998 65.6855 65.2417 65.0241 65.5433 64.2961C65.8448 63.5681 66 62.7879 66 62C66 61.2121 65.8448 60.4319 65.5433 59.7039C65.2417 58.9759 64.7998 58.3145 64.2426 57.7574C63.6855 57.2002 63.0241 56.7583 62.2961 56.4567C61.5681 56.1552 60.7879 56 60 56C58.4087 56 56.8826 56.6321 55.7574 57.7574C54.6321 58.8826 54 60.4087 54 62C54 63.5913 54.6321 65.1174 55.7574 66.2426C56.8826 67.3679 58.4087 68 60 68Z" fill="#5A5A5A"/>
</svg>
