<svg width="56" height="56" viewBox="0 0 56 56" fill="none" xmlns="http://www.w3.org/2000/svg">
<circle cx="28" cy="28" r="28" fill="#FEF4F4"/>
<g clip-path="url(#clip0_155_1778)">
<path d="M24.1368 38.7143H30.429V20.6429C30.429 20.2071 30.2559 19.7893 29.9478 19.4812C29.6397 19.1731 29.2218 19 28.7861 19H17.2861" stroke="#FF1818" stroke-width="2" stroke-linecap="round" stroke-linejoin="round"/>
<path d="M14 32.1429V37.0714C14 37.5071 14.1731 37.925 14.4812 38.2331C14.7893 38.5412 15.2071 38.7143 15.6429 38.7143H17.0721" stroke="#FF1818" stroke-width="2" stroke-linecap="round" stroke-linejoin="round"/>
<path d="M33.5018 38.7142H30.4297V22.2857H37.4118C37.7806 22.272 38.1432 22.3829 38.4412 22.6005C38.7392 22.818 38.9553 23.1296 39.0547 23.485L40.2868 28.0357L42.324 28.545C42.6885 28.6349 43.0112 28.847 43.2384 29.1459C43.4655 29.4448 43.5835 29.8125 43.5725 30.1878V37.0714C43.5725 37.5071 43.3995 37.925 43.0914 38.2331C42.7833 38.5412 42.3654 38.7142 41.9297 38.7142H40.4675" stroke="#FF1818" stroke-width="2" stroke-linecap="round" stroke-linejoin="round"/>
<path d="M14 25.5714H23.8571M20.5714 35.4286C19.9216 35.4286 19.2863 35.6213 18.746 35.9823C18.2057 36.3434 17.7845 36.8565 17.5358 37.4569C17.2871 38.0573 17.2221 38.7179 17.3488 39.3553C17.4756 39.9927 17.7886 40.5781 18.2481 41.0377C18.7076 41.4972 19.2931 41.8101 19.9304 41.9369C20.5678 42.0637 21.2284 41.9986 21.8288 41.7499C22.4292 41.5012 22.9424 41.0801 23.3034 40.5397C23.6644 39.9994 23.8571 39.3642 23.8571 38.7143C23.8571 37.8429 23.511 37.0071 22.8948 36.391C22.2786 35.7748 21.4429 35.4286 20.5714 35.4286ZM37 35.4286C36.3502 35.4286 35.7149 35.6213 35.1746 35.9823C34.6342 36.3434 34.2131 36.8565 33.9644 37.4569C33.7157 38.0573 33.6506 38.7179 33.7774 39.3553C33.9042 39.9927 34.2171 40.5781 34.6767 41.0377C35.1362 41.4972 35.7216 41.8101 36.359 41.9369C36.9964 42.0637 37.657 41.9986 38.2574 41.7499C38.8578 41.5012 39.3709 41.0801 39.732 40.5397C40.093 39.9994 40.2857 39.3642 40.2857 38.7143C40.2857 37.8429 39.9395 37.0071 39.3234 36.391C38.7072 35.7748 37.8714 35.4286 37 35.4286Z" stroke="#A99393" stroke-width="2" stroke-linecap="round" stroke-linejoin="round"/>
</g>
<defs>
<clipPath id="clip0_155_1778">
<rect width="32.8417" height="32.8417" fill="white" transform="translate(11.5264 11.7242)"/>
</clipPath>
</defs>
</svg>
