<svg width="56" height="56" viewBox="0 0 56 56" fill="none" xmlns="http://www.w3.org/2000/svg">
<circle cx="28" cy="28" r="28" fill="#FEF4F4"/>
<g clip-path="url(#clip0_303_503)">
<path d="M39.7179 21.8972L36.0297 20.2573L24.3864 25.7311V29.2461L22.3553 28.3429V24.8279L33.9986 19.3542L30.0879 17.6153C29.5642 17.3825 28.7073 17.3825 28.1837 17.6153L18.5537 21.8972C17.7866 22.2383 17.1605 23.2044 17.1624 24.044L17.1774 30.3888C17.7811 30.1946 18.4234 30.0873 19.0908 30.0873C22.5436 30.0873 25.3531 32.8968 25.3531 36.35C25.3531 37.2519 25.1576 38.1078 24.8128 38.8832L28.2132 40.3368C28.7197 40.5533 29.5485 40.5533 30.0551 40.3369L39.6631 36.2309C40.4434 35.8975 41.0834 34.9305 41.0853 34.082L41.1091 24.0439C41.1111 23.2043 40.485 22.2383 39.7179 21.8972ZM35.9998 29.182L37.3047 26.429C37.4364 26.1512 37.7666 25.9909 37.8988 26.1416L39.2378 27.668C39.3716 27.8205 39.2019 28.1676 38.9336 28.292L38.37 28.5535L38.3586 32.5192C38.358 32.6925 38.205 32.8988 38.0171 32.9799L37.1733 33.3441C36.9884 33.424 36.8387 33.35 36.8386 33.1789L36.8358 29.2652L36.2899 29.5185C36.0331 29.6376 35.8724 29.4509 35.9998 29.182ZM31.1886 31.4315L32.3745 28.8145C32.4941 28.5506 32.7999 28.4021 32.9247 28.5482L34.1886 30.0287C34.3148 30.1765 34.1608 30.5062 33.9123 30.6215L33.3904 30.8636L33.4241 34.661C33.4256 34.827 33.2852 35.0225 33.1111 35.0977L32.3287 35.4355C32.1571 35.5095 32.0167 35.4366 32.0147 35.2727L31.9689 31.5232L31.4626 31.758C31.2246 31.8684 31.0726 31.6873 31.1886 31.4315ZM39.8649 33.5722C39.8643 33.6593 39.786 33.7626 39.6901 33.8029L30.7534 37.5573C30.6699 37.5923 30.6013 37.5557 30.6001 37.4753L30.5933 37.0385C30.592 36.958 30.6586 36.8639 30.7421 36.8283L39.6949 33.0146C39.791 32.9736 39.8685 33.0112 39.868 33.0985L39.8649 33.5722ZM19.0907 31.2592C16.2792 31.2592 14 33.5384 14 36.3499C14 39.1615 16.2792 41.4407 19.0907 41.4407C21.9022 41.4407 24.1814 39.1615 24.1814 36.3499C24.1815 33.5384 21.9022 31.2592 19.0907 31.2592ZM22.4172 35.304L19.2844 38.8283C19.13 39.0019 18.9152 39.0911 18.6987 39.0911C18.5268 39.0911 18.354 39.0348 18.2098 38.9193L16.2518 37.353C15.9141 37.083 15.8593 36.5901 16.1296 36.2524C16.3996 35.9144 16.8927 35.8596 17.2304 36.13L18.6077 37.2318L21.2466 34.263C21.5336 33.9399 22.0288 33.9105 22.3521 34.198C22.6755 34.4857 22.7046 34.9805 22.4172 35.304Z" fill="#FF1818"/>
</g>
<defs>
<clipPath id="clip0_303_503">
<rect width="32.8417" height="32.8417" fill="white" transform="translate(11.5264 11.7242)"/>
</clipPath>
</defs>
</svg>
