<svg width="66" height="66" viewBox="0 0 66 66" fill="none" xmlns="http://www.w3.org/2000/svg">
<circle cx="33" cy="33" r="33" fill="#F7DFDE"/>
<g clip-path="url(#clip0_1074_1068)">
<path d="M27.5924 33.016C29.9786 33.016 31.931 31.0636 31.931 28.6774C31.931 26.2912 29.9786 24.3389 27.5924 24.3389C25.2062 24.3389 23.2539 26.2912 23.2539 28.6774C23.2539 31.0636 25.2062 33.016 27.5924 33.016ZM31.931 41.693V35.9445C30.7379 35.5106 29.2194 35.1852 27.5924 35.1852C23.3624 35.1852 20 37.1376 20 39.5238V41.693H31.931ZM36.2695 24.3389C35.0764 24.3389 34.1003 25.315 34.1003 26.5081V39.5238C34.1003 40.7169 35.0764 41.693 36.2695 41.693H43.862C45.0551 41.693 46.0312 40.7169 46.0312 39.5238V26.5081C46.0312 25.315 45.0551 24.3389 43.862 24.3389H36.2695Z" fill="#D65D5B"/>
</g>
<g clip-path="url(#clip1_1074_1068)">
<path d="M27.5924 33.016C29.9786 33.016 31.931 31.0636 31.931 28.6774C31.931 26.2912 29.9786 24.3389 27.5924 24.3389C25.2062 24.3389 23.2539 26.2912 23.2539 28.6774C23.2539 31.0636 25.2062 33.016 27.5924 33.016ZM31.931 41.693V35.9445C30.7379 35.5106 29.2194 35.1852 27.5924 35.1852C23.3624 35.1852 20 37.1376 20 39.5238V41.693H31.931ZM36.2695 24.3389C35.0764 24.3389 34.1003 25.315 34.1003 26.5081V39.5238C34.1003 40.7169 35.0764 41.693 36.2695 41.693H43.862C45.0551 41.693 46.0312 40.7169 46.0312 39.5238V26.5081C46.0312 25.315 45.0551 24.3389 43.862 24.3389H36.2695Z" fill="#D65D5B"/>
</g>
<defs>
<clipPath id="clip0_1074_1068">
<rect width="26.0312" height="26.0312" fill="white" transform="translate(20 20)"/>
</clipPath>
<clipPath id="clip1_1074_1068">
<rect width="26.0312" height="26.0312" fill="white" transform="translate(20 20)"/>
</clipPath>
</defs>
</svg>
