<svg width="96" height="18" viewBox="0 0 96 18" fill="none" xmlns="http://www.w3.org/2000/svg">
<path d="M9.29659 0.888672L11.6828 6.02689L17.3069 6.70852L13.1576 10.5657L14.2472 16.1252L9.29659 13.3709L4.34593 16.1252L5.43561 10.5657L1.28625 6.70852L6.91037 6.02689L9.29659 0.888672Z" fill="#FFC633"/>
<path d="M30.9812 0.888672L33.3674 6.02689L38.9915 6.70852L34.8421 10.5657L35.9318 16.1252L30.9812 13.3709L26.0305 16.1252L27.1202 10.5657L22.9708 6.70852L28.5949 6.02689L30.9812 0.888672Z" fill="#FFC633"/>
<path d="M52.6657 0.888672L55.0519 6.02689L60.6761 6.70852L56.5267 10.5657L57.6164 16.1252L52.6657 13.3709L47.7151 16.1252L48.8047 10.5657L44.6554 6.70852L50.2795 6.02689L52.6657 0.888672Z" fill="#FFC633"/>
<path d="M74.3503 0.888672L76.7365 6.02689L82.3606 6.70852L78.2113 10.5657L79.301 16.1252L74.3503 13.3709L69.3996 16.1252L70.4893 10.5657L66.34 6.70852L71.9641 6.02689L74.3503 0.888672Z" fill="#FFC633"/>
<path d="M90.672 16.1252L95.6226 13.3709V0.888672L93.2364 6.02689L87.6123 6.70852L91.7617 10.5657L90.672 16.1252Z" fill="#FFC633"/>
</svg>
