<svg width="81" height="16" viewBox="0 0 81 16" fill="none" xmlns="http://www.w3.org/2000/svg">
<path d="M7.13137 0.871094L9.15178 5.22162L13.9137 5.79875L10.4005 9.06466L11.3231 13.7719L7.13137 11.4398L2.93966 13.7719L3.86229 9.06466L0.349034 5.79875L5.11097 5.22162L7.13137 0.871094Z" fill="#FFC633"/>
<path d="M25.4917 0.871094L27.5121 5.22162L32.2741 5.79875L28.7608 9.06466L29.6834 13.7719L25.4917 11.4398L21.3 13.7719L22.2226 9.06466L18.7094 5.79875L23.4713 5.22162L25.4917 0.871094Z" fill="#FFC633"/>
<path d="M43.8521 0.871094L45.8725 5.22162L50.6344 5.79875L47.1212 9.06466L48.0438 13.7719L43.8521 11.4398L39.6604 13.7719L40.583 9.06466L37.0697 5.79875L41.8317 5.22162L43.8521 0.871094Z" fill="#FFC633"/>
<path d="M62.2124 0.871094L64.2328 5.22162L68.9948 5.79875L65.4815 9.06466L66.4041 13.7719L62.2124 11.4398L58.0207 13.7719L58.9433 9.06466L55.4301 5.79875L60.192 5.22162L62.2124 0.871094Z" fill="#FFC633"/>
<path d="M76.032 13.7719L80.2237 11.4398V0.871094L78.2033 5.22162L73.4414 5.79875L76.9547 9.06466L76.032 13.7719Z" fill="#FFC633"/>
</svg>
