<svg width="32" height="32" viewBox="0 0 32 32" fill="none" xmlns="http://www.w3.org/2000/svg">
<rect x="0.5" y="0.5" width="31" height="31" rx="3.5" fill="white"/>
<rect x="0.5" y="0.5" width="31" height="31" rx="3.5" stroke="#DCDCE4"/>
<path fill-rule="evenodd" clip-rule="evenodd" d="M11.3404 14.596C11.0404 14.734 10.2832 15.1864 10.1872 15.2476C10.1295 15.2834 10.082 15.3334 10.0492 15.3929C10.0164 15.4524 9.99948 15.5193 10 15.5872V16.4128C9.99959 16.4817 10.0171 16.5496 10.0507 16.6097C10.0844 16.6699 10.1331 16.7203 10.192 16.756C10.3192 16.8364 11.0572 17.2768 11.3452 17.4076L11.7172 18.3076C11.5972 18.6244 11.3824 19.474 11.3572 19.5844C11.3421 19.6505 11.3441 19.7193 11.363 19.7844C11.3819 19.8495 11.417 19.9087 11.4652 19.9564L12.0484 20.5396C12.0962 20.5876 12.1554 20.6226 12.2205 20.6415C12.2855 20.6604 12.3543 20.6625 12.4204 20.6476L12.4356 20.6437C12.6159 20.5975 13.4087 20.3946 13.6972 20.2876L14.5972 20.6596C14.7352 20.9596 15.1876 21.7168 15.2488 21.8128C15.285 21.8701 15.3352 21.9173 15.3945 21.95C15.4539 21.9828 15.5206 22 15.5884 22H16.4128C16.4817 22.0004 16.5496 21.9829 16.6097 21.9493C16.6699 21.9156 16.7203 21.867 16.756 21.808C16.8364 21.6808 17.2768 20.9428 17.4076 20.6548L18.3076 20.2828C18.6244 20.4028 19.474 20.6176 19.5844 20.6428C19.6505 20.6579 19.7193 20.6559 19.7844 20.637C19.8495 20.6181 19.9087 20.583 19.9564 20.5348L20.5396 19.9516C20.5876 19.9038 20.6226 19.8446 20.6415 19.7795C20.6604 19.7145 20.6625 19.6457 20.6476 19.5796L20.6437 19.5644C20.5976 19.3841 20.3946 18.5913 20.2876 18.3028L20.6596 17.4028C20.9596 17.2648 21.7168 16.8124 21.8128 16.7512C21.8701 16.715 21.9173 16.6648 21.9501 16.6055C21.9828 16.5461 22 16.4794 22 16.4116V15.5872C21.9999 15.519 21.9823 15.4519 21.9489 15.3925C21.9155 15.333 21.8674 15.2831 21.8092 15.2476C21.682 15.1672 20.944 14.7268 20.656 14.596L20.284 13.696C20.404 13.3792 20.6188 12.5296 20.644 12.4192C20.6591 12.3531 20.6572 12.2843 20.6383 12.2192C20.6194 12.1541 20.5842 12.0949 20.536 12.0472L19.9528 11.4604C19.905 11.4124 19.8458 11.3774 19.7807 11.3585C19.7157 11.3396 19.6469 11.3375 19.5808 11.3524L19.5657 11.3563C19.3853 11.4024 18.5925 11.6054 18.304 11.7124L17.404 11.3404C17.266 11.0404 16.8136 10.2832 16.7524 10.1872C16.7162 10.1299 16.666 10.0827 16.6067 10.0499C16.5473 10.0172 16.4806 10 16.4128 10H15.5872C15.519 10.0001 15.452 10.0177 15.3925 10.0511C15.333 10.0845 15.2831 10.1326 15.2476 10.1908C15.1672 10.318 14.7268 11.056 14.596 11.344L13.696 11.716C13.3792 11.596 12.5296 11.3812 12.4192 11.356C12.3531 11.3409 12.2843 11.3428 12.2192 11.3617C12.1541 11.3806 12.0949 11.4158 12.0472 11.464L11.4604 12.0472C11.4124 12.095 11.3774 12.1542 11.3585 12.2193C11.3396 12.2843 11.3375 12.3531 11.3524 12.4192C11.3535 12.4236 11.3548 12.4287 11.3563 12.4343C11.4025 12.6147 11.6054 13.4075 11.7124 13.696L11.3404 14.596ZM16 18.5C17.3807 18.5 18.5 17.3807 18.5 16C18.5 14.6193 17.3807 13.5 16 13.5C14.6193 13.5 13.5 14.6193 13.5 16C13.5 17.3807 14.6193 18.5 16 18.5Z" fill="#666687"/>
</svg>
