<svg width="66" height="66" viewBox="0 0 66 66" fill="none" xmlns="http://www.w3.org/2000/svg">
<g id="star">
<path id="Vector" d="M36.7502 10.1513L36.7513 10.1534L41.5872 19.8252C41.5879 19.8267 41.5886 19.8282 41.5894 19.8297C42.0207 20.7077 42.7655 21.4962 43.5727 22.0918C44.3819 22.6889 45.3555 23.1672 46.3175 23.3275L46.3181 23.3276L55.09 24.785C57.701 25.2202 58.9269 26.3154 59.2674 27.3746C59.607 28.4312 59.2503 30.0293 57.3697 31.8971L57.367 31.8998L50.547 38.7198C49.8009 39.4659 49.2743 40.4969 48.9787 41.5294C48.683 42.5625 48.585 43.714 48.8147 44.7389L48.8164 44.7463L50.7687 53.1879C51.5169 56.4343 50.8876 58.1093 50.0369 58.7294C49.1844 59.3509 47.3902 59.4388 44.5172 57.7417L36.296 52.875C35.3376 52.307 34.1431 52.0578 33.0103 52.0578C31.8765 52.0578 30.6794 52.3074 29.7117 52.8704L29.7117 52.8704L29.7044 52.8747L21.4819 57.7422L21.4808 57.7428C18.627 59.4365 16.8315 59.3452 15.9737 58.7193C15.1169 58.0941 14.4844 56.4155 15.231 53.1889L15.2311 53.1888L17.1836 44.7463L17.1853 44.7389C17.415 43.714 17.317 42.5625 17.0212 41.5294C16.7257 40.4969 16.1991 39.4659 15.453 38.7198L8.63299 31.8998C6.765 30.0318 6.40528 28.4319 6.74356 27.3725C7.08149 26.3143 8.3001 25.22 10.9099 24.785L19.6819 23.3276L19.6858 23.3269C20.6353 23.1657 21.6016 22.6862 22.4054 22.0903C23.2076 21.4954 23.952 20.7073 24.3831 19.8297L29.2202 10.1555C29.2204 10.1552 29.2205 10.1548 29.2207 10.1545C30.4593 7.69078 31.8918 6.83594 32.9966 6.83594C34.0994 6.83594 35.5253 7.68854 36.7502 10.1513Z" fill="#FABF35" stroke="#FABF35" stroke-width="2.25" stroke-linecap="round" stroke-linejoin="round"/>
<g id="face">
<path id="Vector_2" d="M26.7291 31.6751C27.7607 31.6751 28.5969 30.8388 28.5969 29.8073C28.5969 28.7757 27.7607 27.9395 26.7291 27.9395C25.6976 27.9395 24.8613 28.7757 24.8613 29.8073C24.8613 30.8388 25.6976 31.6751 26.7291 31.6751Z" fill="#BB8300"/>
<path id="Vector_3" d="M39.4117 31.6751C40.4433 31.6751 41.2795 30.8388 41.2795 29.8073C41.2795 28.7757 40.4433 27.9395 39.4117 27.9395C38.3802 27.9395 37.5439 28.7757 37.5439 29.8073C37.5439 30.8388 38.3802 31.6751 39.4117 31.6751Z" fill="#BB8300"/>
<path id="Vector_4" d="M40.2965 39.5339C40.2884 39.5677 40.2864 39.5805 40.283 39.5977L40.2742 39.6446L40.2581 39.7292C40.2466 39.7842 40.2345 39.8348 40.2223 39.8867C40.198 39.9879 40.1687 40.0864 40.1394 40.1838C40.0778 40.3747 40.0054 40.562 39.9225 40.7447C39.7566 41.1088 39.5531 41.4547 39.3155 41.7766C38.8306 42.4239 38.2284 42.9743 37.5402 43.3991C37.1992 43.6074 36.8426 43.789 36.4735 43.9421C36.1104 44.0901 35.737 44.2113 35.3562 44.3046C34.6199 44.4838 33.8649 44.5743 33.1071 44.5744C32.3589 44.5822 31.6122 44.5053 30.8813 44.3451L30.6017 44.2797C30.5086 44.2584 30.4156 44.2277 30.3232 44.2021C30.2308 44.1765 30.1377 44.1508 30.0456 44.1171L29.7697 44.0207C29.3998 43.8843 29.0411 43.7193 28.697 43.5269C28.3481 43.3323 28.0166 43.1081 27.7061 42.8568C27.3953 42.6021 27.109 42.319 26.8509 42.011C26.7865 41.9341 26.7261 41.8532 26.6647 41.7749C26.6034 41.6967 26.546 41.6131 26.4904 41.5298C26.3789 41.3628 26.2765 41.1898 26.1838 41.0118C26.0897 40.8326 26.0068 40.6478 25.9356 40.4583C25.9019 40.3622 25.8665 40.2644 25.8365 40.1629C25.8216 40.1103 25.8071 40.0617 25.7929 40.0047L25.7724 39.9194L25.7612 39.8722C25.7569 39.8537 25.7548 39.8429 25.7444 39.8064C25.6543 39.5518 25.669 39.2718 25.7853 39.028C25.9017 38.7842 26.1101 38.5966 26.3647 38.5065C26.6194 38.4164 26.8994 38.4312 27.1432 38.5475C27.387 38.6638 27.5745 38.8722 27.6647 39.1269C27.6613 39.1094 27.6667 39.1168 27.6694 39.1171C27.6721 39.1175 27.6768 39.1218 27.6808 39.1252C27.6849 39.1286 27.698 39.1397 27.7082 39.1495L27.7662 39.2075C27.8076 39.2486 27.8491 39.2915 27.8933 39.3333C27.9793 39.4186 28.0727 39.5019 28.1658 39.5822C28.3519 39.7416 28.5488 39.8881 28.755 40.0206C28.958 40.1518 29.1691 40.2702 29.387 40.375C29.6058 40.4778 29.8301 40.5687 30.0588 40.6472C30.2912 40.7269 30.5275 40.7944 30.767 40.8495C30.8894 40.8755 31.0098 40.9042 31.1356 40.9241C31.198 40.9349 31.2583 40.9484 31.3221 40.9578L31.512 40.9855C32.0357 41.0558 32.5638 41.0888 33.0923 41.0843C33.6117 41.0853 34.1304 41.0456 34.6436 40.9656C34.8873 40.9273 35.129 40.8769 35.3677 40.8145C35.6021 40.7521 35.829 40.6762 36.0526 40.5926C36.498 40.4178 36.9192 40.1867 37.3058 39.9049C37.5042 39.7584 37.6929 39.5993 37.8707 39.4284C37.9591 39.341 38.0481 39.252 38.1311 39.1606L38.1931 39.0932L38.2525 39.0257L38.3084 38.9623C38.3186 38.9515 38.3267 38.9434 38.3348 38.9353C38.338 38.9314 38.3419 38.9281 38.3462 38.9256C38.3496 38.9256 38.3543 38.9178 38.352 38.933C38.3914 38.8052 38.4557 38.6864 38.541 38.5834C38.6264 38.4804 38.7312 38.3952 38.8495 38.3328C38.9678 38.2703 39.0972 38.2317 39.2304 38.2193C39.3636 38.2068 39.4979 38.2207 39.6257 38.2602C39.7535 38.2996 39.8723 38.3639 39.9753 38.4493C40.0783 38.5346 40.1635 38.6394 40.2259 38.7577C40.2884 38.876 40.327 39.0054 40.3394 39.1386C40.3519 39.2718 40.338 39.4061 40.2985 39.5339H40.2965Z" fill="#BB8300"/>
</g>
</g>
</svg>
