<svg width="66" height="66" viewBox="0 0 66 66" fill="none" xmlns="http://www.w3.org/2000/svg">
<path d="M36.7513 10.1534L36.7502 10.1513C35.5253 7.68854 34.0994 6.83594 32.9966 6.83594C31.8918 6.83594 30.4593 7.69078 29.2207 10.1545C29.2205 10.1548 29.2204 10.1552 29.2202 10.1555L24.3831 19.8297C23.952 20.7073 23.2076 21.4954 22.4054 22.0903C21.6016 22.6862 20.6353 23.1657 19.6858 23.3269L19.6819 23.3276L10.9099 24.785C8.3001 25.22 7.08149 26.3143 6.74356 27.3725C6.40528 28.4319 6.765 30.0318 8.63299 31.8998L15.453 38.7198C16.1991 39.4659 16.7257 40.4969 17.0212 41.5295C17.317 42.5625 17.415 43.714 17.1853 44.7389L17.1836 44.7463L15.2311 53.1888L15.231 53.1889C14.4844 56.4155 15.1169 58.0941 15.9737 58.7193C16.8315 59.3452 18.627 59.4365 21.4808 57.7429L21.4819 57.7422L29.7044 52.8747L29.7117 52.8704L29.7117 52.8704C30.6794 52.3074 31.8765 52.0578 33.0103 52.0578C34.1429 52.0578 35.3372 52.307 36.2956 52.8747C36.2957 52.8748 36.2957 52.8748 36.2958 52.8748C36.2959 52.8749 36.2959 52.8749 36.296 52.875L44.5172 57.7417L36.7513 10.1534ZM36.7513 10.1534L41.5872 19.8252C41.5879 19.8267 41.5887 19.8282 41.5894 19.8297C42.0207 20.7077 42.7655 21.4962 43.5727 22.0918C44.3819 22.6889 45.3555 23.1672 46.3175 23.3275L46.3181 23.3276M36.7513 10.1534L46.3181 23.3276M46.3181 23.3276L55.09 24.785C57.701 25.2202 58.9269 26.3154 59.2674 27.3746C59.607 28.4312 59.2503 30.0294 57.3697 31.8971L57.367 31.8998M46.3181 23.3276L57.367 31.8998M57.367 31.8998L50.547 38.7198C49.8009 39.4659 49.2743 40.4969 48.9787 41.5295C48.683 42.5625 48.585 43.714 48.8147 44.7389L48.8164 44.7463M57.367 31.8998L48.8164 44.7463M48.8164 44.7463L50.7687 53.1879M48.8164 44.7463L50.7687 53.1879M50.7687 53.1879C51.5169 56.4343 50.8876 58.1093 50.037 58.7294C49.1845 59.3508 47.3906 59.4388 44.5181 57.7422L50.7687 53.1879Z" fill="#E8E8E8" stroke="#E8E8E8" stroke-width="2.25" stroke-linecap="round" stroke-linejoin="round"/>
<path d="M26.5064 31.6751C27.538 31.6751 28.3742 30.8388 28.3742 29.8073C28.3742 28.7757 27.538 27.9395 26.5064 27.9395C25.4749 27.9395 24.6387 28.7757 24.6387 29.8073C24.6387 30.8388 25.4749 31.6751 26.5064 31.6751Z" fill="#C6C6C6"/>
<path d="M39.5816 31.6751C40.6132 31.6751 41.4494 30.8388 41.4494 29.8073C41.4494 28.7757 40.6132 27.9395 39.5816 27.9395C38.5501 27.9395 37.7139 28.7757 37.7139 29.8073C37.7139 30.8388 38.5501 31.6751 39.5816 31.6751Z" fill="#C6C6C6"/>
<path d="M25.5349 43.215C25.5429 43.1802 25.545 43.167 25.5481 43.1496L25.5572 43.1016L25.5735 43.0143C25.5846 42.9577 25.5968 42.9052 25.6083 42.8516C25.633 42.7473 25.6625 42.6455 25.6924 42.545C25.7545 42.3475 25.8276 42.1536 25.9115 41.9643C26.0803 41.587 26.2877 41.2281 26.5303 40.8935C27.0256 40.2186 27.6439 39.6434 28.3529 39.1982C28.7045 38.9786 29.073 38.7875 29.455 38.6266C29.8308 38.4706 30.2177 38.3428 30.6125 38.2441C31.376 38.0548 32.1595 37.9586 32.9461 37.9576C33.7224 37.9491 34.497 38.0301 35.2548 38.1989L35.5447 38.2685C35.641 38.2914 35.7373 38.3231 35.8337 38.3502C36.0259 38.403 36.2161 38.4729 36.4066 38.5411C36.7896 38.6842 37.1606 38.8577 37.5161 39.0598C37.8762 39.2641 38.218 39.4992 38.5376 39.7625C38.8574 40.0282 39.1513 40.3238 39.4151 40.6452C39.6782 40.9663 39.9063 41.3144 40.0956 41.6838C40.1912 41.8696 40.2754 42.061 40.3476 42.2571C40.3824 42.3565 40.4172 42.4577 40.4478 42.5627C40.4627 42.6166 40.4773 42.667 40.4916 42.7258L40.5121 42.8137L40.5232 42.8624C40.5277 42.8812 40.5298 42.8927 40.5402 42.9295C40.5904 43.0607 40.6138 43.2007 40.6089 43.3411C40.604 43.4815 40.571 43.6195 40.5118 43.7469C40.4526 43.8743 40.3685 43.9886 40.2644 44.0829C40.1602 44.1772 40.0382 44.2496 39.9056 44.2959C39.773 44.3422 39.6324 44.3614 39.4922 44.3524C39.352 44.3434 39.215 44.3064 39.0894 44.2435C38.9638 44.1806 38.8521 44.0931 38.7609 43.9863C38.6697 43.8794 38.6008 43.7553 38.5585 43.6214C38.5616 43.6388 38.5564 43.6311 38.5532 43.6308C38.5501 43.6304 38.5456 43.6256 38.5411 43.6221C38.5365 43.6186 38.5237 43.6065 38.5132 43.596L38.4531 43.5348C38.4103 43.4914 38.3676 43.4465 38.322 43.4024C38.2337 43.313 38.1371 43.2257 38.0414 43.1409C37.8499 42.973 37.6471 42.8184 37.4344 42.6781C37.2257 42.5396 37.0081 42.4149 36.7832 42.3047C36.5581 42.1963 36.3272 42.1003 36.0916 42.0172L35.9136 41.9563L35.7314 41.9025C35.6723 41.8823 35.6094 41.8677 35.5475 41.8517C35.4856 41.8357 35.4258 41.8169 35.3622 41.8048C35.236 41.778 35.1122 41.747 34.9825 41.7262C34.9182 41.7147 34.8556 41.7008 34.7903 41.6914L34.5945 41.6626C34.054 41.5882 33.5088 41.5533 32.9632 41.5583C31.8544 41.5635 30.8246 41.714 29.9133 42.0798C29.4536 42.2646 29.0198 42.5083 28.6227 42.8047C28.418 42.959 28.2236 43.1265 28.0407 43.3061C27.9499 43.3975 27.8581 43.491 27.773 43.587L27.709 43.6586L27.6478 43.7281L27.5897 43.7949C27.5796 43.806 27.5709 43.8147 27.5626 43.8234C27.5592 43.8274 27.5552 43.8309 27.5508 43.8338C27.5473 43.8338 27.5424 43.8422 27.5445 43.8272C27.4634 44.0937 27.2798 44.317 27.034 44.4481C26.7883 44.5791 26.5005 44.6072 26.2341 44.5261C25.9677 44.445 25.7443 44.2614 25.6133 44.0156C25.4822 43.7699 25.4542 43.4821 25.5353 43.2157L25.5349 43.215Z" fill="#C6C6C6"/>
</svg>
