<svg width="69" height="69" viewBox="0 0 69 69" fill="none" xmlns="http://www.w3.org/2000/svg">
<g id="tabler:brand-ok-ru">
<g id="Group">
<path id="Vector" d="M28.75 25.875C28.75 27.4 29.3558 28.8625 30.4341 29.9409C31.5125 31.0192 32.975 31.625 34.5 31.625C36.025 31.625 37.4875 31.0192 38.5659 29.9409C39.6442 28.8625 40.25 27.4 40.25 25.875C40.25 24.35 39.6442 22.8875 38.5659 21.8091C37.4875 20.7308 36.025 20.125 34.5 20.125C32.975 20.125 31.5125 20.7308 30.4341 21.8091C29.3558 22.8875 28.75 24.35 28.75 25.875Z" stroke="white" stroke-width="4" stroke-linecap="round" stroke-linejoin="round"/>
<path id="Vector_2" d="M57.5 34.5C57.5 57.5 57.5 57.5 34.5 57.5C11.5 57.5 11.5 57.5 11.5 34.5C11.5 11.5 11.5 11.5 34.5 11.5C57.5 11.5 57.5 11.5 57.5 34.5Z" stroke="white" stroke-width="4" stroke-linecap="round" stroke-linejoin="round"/>
<path id="Vector_3" d="M27.3125 37.375C31.1449 39.2926 37.8551 39.2926 41.6875 37.375M27.3125 48.875L34.5 40.25M34.5 40.25L41.6875 48.875M34.5 40.25V38.8125" stroke="white" stroke-width="4" stroke-linecap="round" stroke-linejoin="round"/>
</g>
</g>
</svg>
