<svg width="56" height="56" viewBox="0 0 56 56" fill="none" xmlns="http://www.w3.org/2000/svg">
<circle cx="28" cy="28" r="28" fill="#FEF4F4"/>
<g clip-path="url(#clip0_303_501)">
<path d="M37.9924 38.5656H18.3563V18.9325H27.0811V16.749H16.1729V40.749H40.1729V32.0212H37.9924V38.5656Z" fill="#FF1818"/>
<path d="M24.9009 30.9295H27.0814C27.0814 27.9228 29.5273 25.4739 32.537 25.4739C35.5467 25.4739 37.9927 27.9198 37.9927 30.9295H40.1731C40.1731 27.881 38.3775 25.2442 35.7883 24.0212C36.4804 23.2487 36.9009 22.2285 36.9009 21.1129C36.9009 18.7028 34.9472 16.749 32.537 16.749C30.1269 16.749 28.1731 18.7028 28.1731 21.1129C28.1731 22.2315 28.5937 23.2516 29.2857 24.0212C26.6966 25.2472 24.9009 27.881 24.9009 30.9295ZM32.537 18.9325C33.7391 18.9325 34.7175 19.9108 34.7175 21.1129C34.7175 22.315 33.7391 23.2934 32.537 23.2934C31.3349 23.2934 30.3566 22.315 30.3566 21.1129C30.3566 19.9108 31.3349 18.9325 32.537 18.9325ZM19.4453 21.1129H25.9897V23.2934H19.4453V21.1129ZM19.4453 33.1129H36.898V35.2934H19.4453V33.1129ZM19.4453 25.4768H23.8092V27.6573H19.4453V25.4768Z" fill="#FF1818"/>
</g>
<defs>
<clipPath id="clip0_303_501">
<rect width="32.8417" height="32.8417" fill="white" transform="translate(11.5264 11.7242)"/>
</clipPath>
</defs>
</svg>
