<svg width="36" height="36" viewBox="0 0 36 36" fill="none" xmlns="http://www.w3.org/2000/svg">
<path d="M7.85538 29.8736V28.3955C7.85538 25.6515 8.94544 23.0198 10.8858 21.0795C12.8261 19.1392 15.4578 18.0491 18.2018 18.0491M18.2018 18.0491C20.9458 18.0491 23.5775 19.1392 25.5178 21.0795C27.4582 23.0198 28.5482 25.6515 28.5482 28.3955V29.8736M18.2018 18.0491C19.7698 18.0491 21.2736 17.4262 22.3824 16.3174C23.4911 15.2087 24.114 13.7049 24.114 12.1368C24.114 10.5688 23.4911 9.06502 22.3824 7.95626C21.2736 6.8475 19.7698 6.22461 18.2018 6.22461C16.6338 6.22461 15.13 6.8475 14.0212 7.95626C12.9125 9.06502 12.2896 10.5688 12.2896 12.1368C12.2896 13.7049 12.9125 15.2087 14.0212 16.3174C15.13 17.4262 16.6338 18.0491 18.2018 18.0491Z" stroke="white" stroke-width="2.21709" stroke-linecap="round" stroke-linejoin="round"/>
</svg>
