<svg width="53" height="52" viewBox="0 0 53 52" fill="none" xmlns="http://www.w3.org/2000/svg">
<rect x="0.5" y="0.5" width="51.5568" height="51" rx="12.5" fill="#FAFCFE" stroke="#E0E5F2" stroke-dasharray="10 10"/>
<g clip-path="url(#clip0_1_1548)">
<path d="M24.3669 28.8889H28.3863C28.9389 28.8889 29.3911 28.4368 29.3911 27.8841V22.8599H30.9888C31.8831 22.8599 32.3352 21.7747 31.7022 21.1417L27.09 16.5295C26.6981 16.1376 26.0651 16.1376 25.6732 16.5295L21.061 21.1417C20.428 21.7747 20.8701 22.8599 21.7644 22.8599H23.3621V27.8841C23.3621 28.4368 23.8143 28.8889 24.3669 28.8889ZM20.3476 30.8986H32.4056C32.9582 30.8986 33.4104 31.3508 33.4104 31.9034C33.4104 32.4561 32.9582 32.9083 32.4056 32.9083H20.3476C19.7949 32.9083 19.3428 32.4561 19.3428 31.9034C19.3428 31.3508 19.7949 30.8986 20.3476 30.8986Z" fill="#4318FF"/>
</g>
<defs>
<clipPath id="clip0_1_1548">
<rect width="24.1159" height="24.1159" fill="white" transform="translate(14.3188 12.8115)"/>
</clipPath>
</defs>
</svg>
