<svg width="539" height="35" viewBox="0 0 539 35" fill="none" xmlns="http://www.w3.org/2000/svg">
<rect x="52" y="13.9385" width="98.0907" height="6" rx="3" fill="#EFF0F7"/>
<rect x="52" y="13.9385" width="49.045" height="6" rx="3" fill="#D65D5B"/>
<rect x="220.09" y="13.9385" width="98.0907" height="6" rx="3" fill="#EFF0F7"/>
<rect x="388.18" y="13.9385" width="98.0907" height="6" rx="3" fill="#EFF0F7"/>
<circle cx="17" cy="17.4385" r="17" fill="#D65D5B"/>
<path d="M16.288 21.4385V12.1585L14.48 12.5745V11.3265L16.96 10.2385H18.048V21.4385H16.288Z" fill="white"/>
<circle cx="185.09" cy="17.4385" r="17" fill="#EFF0F7"/>
<path d="M182.098 22.4385V21.4945C182.855 20.8971 183.57 20.2945 184.242 19.6865C184.925 19.0678 185.527 18.4598 186.05 17.8625C186.583 17.2651 186.999 16.6785 187.298 16.1025C187.607 15.5265 187.762 14.9718 187.762 14.4385C187.762 14.0438 187.693 13.6758 187.554 13.3345C187.426 12.9931 187.213 12.7211 186.914 12.5185C186.615 12.3051 186.21 12.1985 185.698 12.1985C185.207 12.1985 184.797 12.3105 184.466 12.5345C184.135 12.7478 183.885 13.0358 183.714 13.3985C183.554 13.7611 183.474 14.1505 183.474 14.5665H182.178C182.178 13.8305 182.333 13.2011 182.642 12.6785C182.951 12.1451 183.373 11.7398 183.906 11.4625C184.439 11.1851 185.042 11.0465 185.714 11.0465C186.706 11.0465 187.517 11.3291 188.146 11.8945C188.786 12.4491 189.106 13.2811 189.106 14.3905C189.106 15.0518 188.941 15.7078 188.61 16.3585C188.279 16.9985 187.858 17.6225 187.346 18.2305C186.834 18.8278 186.285 19.3878 185.698 19.9105C185.122 20.4331 184.583 20.9025 184.082 21.3185H189.49V22.4385H182.098Z" fill="#6F6C90"/>
<circle cx="353.18" cy="17.4385" r="17" fill="#EFF0F7"/>
<path d="M352.852 22.6305C352.137 22.6305 351.492 22.5025 350.916 22.2465C350.34 21.9798 349.876 21.5851 349.524 21.0625C349.182 20.5398 349.001 19.8891 348.98 19.1105H350.34C350.35 19.7505 350.574 20.3051 351.012 20.7745C351.449 21.2331 352.062 21.4625 352.852 21.4625C353.641 21.4625 354.233 21.2438 354.628 20.8065C355.033 20.3691 355.236 19.8411 355.236 19.2225C355.236 18.6998 355.108 18.2731 354.852 17.9425C354.606 17.6118 354.27 17.3665 353.844 17.2065C353.428 17.0465 352.969 16.9665 352.468 16.9665H351.636V15.8305H352.468C353.193 15.8305 353.758 15.6651 354.164 15.3345C354.58 15.0038 354.788 14.5398 354.788 13.9425C354.788 13.4411 354.622 13.0305 354.292 12.7105C353.972 12.3798 353.492 12.2145 352.852 12.2145C352.233 12.2145 351.737 12.4011 351.364 12.7745C350.99 13.1371 350.782 13.5958 350.74 14.1505H349.38C349.412 13.5425 349.572 13.0038 349.86 12.5345C350.158 12.0651 350.564 11.7025 351.076 11.4465C351.588 11.1798 352.18 11.0465 352.852 11.0465C353.577 11.0465 354.18 11.1745 354.66 11.4305C355.15 11.6865 355.518 12.0278 355.764 12.4545C356.02 12.8811 356.148 13.3505 356.148 13.8625C356.148 14.4278 355.993 14.9451 355.684 15.4145C355.374 15.8731 354.91 16.1825 354.292 16.3425C354.953 16.4811 355.502 16.7958 355.94 17.2865C356.377 17.7771 356.596 18.4225 356.596 19.2225C356.596 19.8411 356.452 20.4118 356.164 20.9345C355.886 21.4465 355.47 21.8571 354.916 22.1665C354.361 22.4758 353.673 22.6305 352.852 22.6305Z" fill="#6F6C90"/>
<circle cx="521.27" cy="17.4385" r="17" fill="#EFF0F7"/>
<path d="M522.526 22.4385V20.0385H516.846V18.9985L522.286 11.2385H523.854V18.8545H525.518V20.0385H523.854V22.4385H522.526ZM518.334 18.8545H522.59V12.7265L518.334 18.8545Z" fill="#6F6C90"/>
</svg>
