<svg width="19" height="19" viewBox="0 0 19 19" fill="none" xmlns="http://www.w3.org/2000/svg">
<g id="EyeOutline">
<path id="Vector" d="M11.875 9.5C11.875 10.1299 11.6248 10.734 11.1794 11.1794C10.734 11.6248 10.1299 11.875 9.5 11.875C8.87011 11.875 8.26602 11.6248 7.82062 11.1794C7.37522 10.734 7.125 10.1299 7.125 9.5C7.125 8.87011 7.37522 8.26602 7.82062 7.82062C8.26602 7.37522 8.87011 7.125 9.5 7.125C10.1299 7.125 10.734 7.37522 11.1794 7.82062C11.6248 8.26602 11.875 8.87011 11.875 9.5Z" stroke="#515151" stroke-width="2" stroke-linecap="round" stroke-linejoin="round"/>
<path id="Vector_2" d="M1.94592 9.4987C2.95451 6.28691 5.95571 3.95703 9.50001 3.95703C13.0451 3.95703 16.0455 6.28691 17.0541 9.4987C16.0455 12.7105 13.0451 15.0404 9.50001 15.0404C5.95571 15.0404 2.95451 12.7105 1.94592 9.4987Z" stroke="#515151" stroke-width="2" stroke-linecap="round" stroke-linejoin="round"/>
</g>
</svg>
